<svg width="191" height="200" viewBox="0 0 191 200" fill="none" xmlns="http://www.w3.org/2000/svg">
<g filter="url(#filter0_d_2_7)">
<path d="M71.052 85L95.118 99.6C95.5 99.8 95.882 100 96.264 100C96.646 100 97.028 99.8 97.41 99.6L121.476 85C122.24 84.6 122.622 83.6 122.622 82.8V53.6C122.622 52.6 122.24 51.8 121.476 51.4L97.41 36.8C96.646 36.4 95.691 36.4 94.927 36.8L70.861 51.4C70.097 51.8 69.715 52.8 69.715 53.6V82.8C69.906 83.8 70.288 84.6 71.052 85ZM74.872 55.2L96.455 42L118.038 55.2V81.4L96.455 94.6L74.872 81.4V55.2Z" fill="#333333"/>
<path d="M67.423 128L56.536 121.4C55.772 121 54.817 121 54.053 121.4L43.357 128C42.593 128.4 42.211 129.4 42.211 130.2V143.4C42.211 144.4 42.593 145.2 43.357 145.6L54.244 152.2C54.626 152.4 55.008 152.6 55.39 152.6C55.772 152.6 56.154 152.4 56.536 152.2L67.423 145.6C68.187 145.2 68.569 144.2 68.569 143.4V130.2C68.76 129.4 68.187 128.6 67.423 128ZM63.794 142L55.39 147L46.986 142V131.8L55.39 126.8L63.794 131.8V142Z" fill="#333333"/>
<path d="M108.488 128L97.601 121.4C96.837 121 95.882 121 95.118 121.4L84.422 128C83.658 128.4 83.276 129.4 83.276 130.2V143.4C83.276 144.4 83.658 145.2 84.422 145.6L95.309 152.2C95.691 152.4 96.073 152.6 96.455 152.6C96.837 152.6 97.219 152.4 97.601 152.2L108.488 145.6C109.252 145.2 109.634 144.2 109.634 143.4V130.2C109.825 129.4 109.252 128.6 108.488 128ZM104.859 142L96.455 147L88.051 142V131.8L96.455 126.8L104.859 131.8V142Z" fill="#333333"/>
<path d="M149.553 128L138.666 121.4C137.902 121 136.947 121 136.183 121.4L125.487 128C124.723 128.4 124.341 129.4 124.341 130.2V143.4C124.341 144.4 124.723 145.2 125.487 145.6L136.374 152.2C136.756 152.4 137.138 152.6 137.52 152.6C137.902 152.6 138.284 152.4 138.666 152.2L149.553 145.6C150.317 145.2 150.699 144.2 150.699 143.4V130.2C150.89 129.4 150.317 128.6 149.553 128ZM145.924 142L137.52 147L129.116 142V131.8L137.52 126.8L145.924 131.8V142Z" fill="#333333"/>
<path d="M77.928 117.2L86.141 108.6C87.096 107.6 87.096 106 86.141 105C85.186 104 83.658 104 82.703 105L78.692 109.2V97.4C78.692 96 77.546 94.8 76.209 94.8C74.872 94.8 73.726 96 73.726 97.4V109.2L69.715 105C68.76 104 67.232 104 66.277 105C65.322 106 65.322 107.6 66.277 108.6L74.49 117.2C74.681 117.4 74.872 117.6 75.254 117.8C75.636 118 75.827 118 76.209 118C76.591 118 76.782 118 77.164 117.8C77.546 117.6 77.737 117.4 77.928 117.2Z" fill="#333333"/>
<path d="M118.42 117.2L126.633 108.6C127.588 107.6 127.588 106 126.633 105C125.678 104 124.15 104 123.195 105L119.184 109.2V97.4C119.184 96 118.038 94.8 116.701 94.8C115.364 94.8 114.218 96 114.218 97.4V109.2L110.207 105C109.252 104 107.724 104 106.769 105C105.814 106 105.814 107.6 106.769 108.6L114.982 117.2C114.982 117.2 114.982 117.2 115.173 117.2C115.364 117.4 115.555 117.6 115.937 117.6C116.319 117.8 116.51 117.8 116.892 117.8C117.274 117.8 117.465 117.8 117.847 117.6C117.847 117.6 118.038 117.4 118.42 117.2Z" fill="#333333"/>
</g>
<defs>
<filter id="filter0_d_2_7" x="-4" y="0" width="199" height="208" filterUnits="userSpaceOnUse" color-interpolation-filters="sRGB">
<feFlood flood-opacity="0" result="BackgroundImageFix"/>
<feColorMatrix in="SourceAlpha" type="matrix" values="0 0 0 0 0 0 0 0 0 0 0 0 0 0 0 0 0 0 127 0" result="hardAlpha"/>
<feOffset dy="4"/>
<feGaussianBlur stdDeviation="2"/>
<feComposite in2="hardAlpha" operator="out"/>
<feColorMatrix type="matrix" values="0 0 0 0 0 0 0 0 0 0 0 0 0 0 0 0 0 0 0.25 0"/>
<feBlend mode="normal" in2="BackgroundImageFix" result="effect1_dropShadow_2_7"/>
<feBlend mode="normal" in="SourceGraphic" in2="effect1_dropShadow_2_7" result="shape"/>
</filter>
</defs>
</svg>
