<svg width="191" height="200" viewBox="0 0 191 200" fill="none" xmlns="http://www.w3.org/2000/svg">
<g filter="url(#filter0_d_2_3)">
<path d="M133.7 65.2C128.734 65.2 124.532 69 123.577 74H91.298V71.8C91.298 64.2 85.377 58 78.119 58C71.816 58 66.468 62.6 65.322 68.8C63.985 68.4 62.839 68.4 61.502 68.4C52.525 68.4 45.267 76 45.267 85.4C45.267 87.2 45.649 89 46.222 90.8C40.683 94.4 37.245 100.8 37.245 107.6C37.245 114.8 40.874 121.4 46.795 124.8C45.84 127 45.458 129.4 45.458 131.8C45.458 141.2 52.716 148.8 61.693 148.8C63.03 148.8 64.367 148.6 65.513 148.4C66.85 154.6 72.007 159.2 78.31 159.2C85.568 159.2 91.489 153 91.489 145.4V143.2H113.263C114.218 148.2 118.42 152 123.386 152C129.116 152 133.7 147.2 133.7 141.2C133.7 135.2 129.116 130.4 123.386 130.4C118.42 130.4 114.218 134.2 113.263 139.2H91.298V111.2H102.758C103.713 116.2 107.915 120 112.881 120C118.611 120 123.195 115.2 123.195 109.2C123.195 103.2 118.611 98.4 112.881 98.4C107.915 98.4 103.713 102.2 102.758 107.2H91.298V79.2H123.577C124.532 84.2 128.734 88 133.7 88C139.43 88 144.014 83.2 144.014 77.2C144.014 70.2 139.43 65.2 133.7 65.2ZM123.195 134.2C126.633 134.2 129.498 137.2 129.498 140.8C129.498 144.4 126.633 147.4 123.195 147.4C119.757 147.4 116.892 144.4 116.892 140.8C116.892 137.2 119.757 134.2 123.195 134.2ZM112.881 101.8C116.319 101.8 119.184 104.8 119.184 108.4C119.184 112 116.319 115 112.881 115C109.443 115 106.578 112 106.578 108.4C106.578 104.8 109.443 101.8 112.881 101.8ZM87.096 145.2C87.096 150.4 83.085 154.6 78.119 154.6C73.153 154.6 69.142 150.4 69.142 145.2C69.142 144.4 68.76 143.8 68.187 143.4C67.805 143.2 67.423 143 67.041 143C66.85 143 66.468 143 66.277 143.2C64.749 143.8 63.221 144.2 61.502 144.2C54.817 144.2 49.469 138.6 49.469 131.6C49.469 129.2 50.042 126.8 51.379 124.8C51.761 124.2 51.761 123.6 51.57 123C51.379 122.4 50.997 121.8 50.424 121.6C44.885 119.2 41.447 113.6 41.447 107.4C41.447 101.6 44.694 96 49.851 93.4C51.57 92.8 56.345 91.4 59.592 93C60.929 93.6 61.884 94.8 62.457 96.4C63.412 99.4 63.412 101.8 62.457 103.6C61.311 106 58.637 107.2 56.727 107.8C55.581 108.2 55.008 109.4 55.199 110.4C55.39 111.4 56.345 112 57.3 112C57.491 112 57.682 112 57.873 112C60.547 111.2 64.367 109.4 66.277 105.8C67.805 102.8 67.805 99.2 66.468 95.2C65.513 92.4 63.794 90.4 61.502 89.2C57.682 87.4 52.907 88.2 50.424 89C50.042 87.8 49.851 86.6 49.851 85.2C49.851 78.2 55.199 72.6 61.884 72.6C63.603 72.6 65.131 73 66.659 73.6C67.232 73.8 67.996 73.8 68.569 73.4C69.142 73 69.524 72.4 69.524 71.6C69.524 66.4 73.535 62.2 78.501 62.2C83.467 62.2 87.478 66.4 87.478 71.6V77C80.793 77 77.355 82.8 76.4 86.2C76.018 87.4 76.782 88.6 77.928 88.8C78.119 88.8 78.31 88.8 78.501 88.8C79.456 88.8 80.22 88.2 80.602 87.2C80.602 87 82.321 81.2 87.669 81.2V128H75.636C70.861 128 66.85 123.8 66.85 118.8C66.85 117.6 65.895 116.6 64.749 116.6C63.603 116.6 62.648 117.6 62.648 118.8C62.648 126.2 68.378 132.4 75.636 132.4H87.669V145.2H87.096ZM133.7 82.6C130.262 82.6 127.397 79.6 127.397 76C127.397 72.4 130.262 69.4 133.7 69.4C137.138 69.4 140.003 72.4 140.003 76C139.812 79.8 137.138 82.6 133.7 82.6Z" fill="#333333"/>
</g>
<defs>
<filter id="filter0_d_2_3" x="-4" y="0" width="199" height="208" filterUnits="userSpaceOnUse" color-interpolation-filters="sRGB">
<feFlood flood-opacity="0" result="BackgroundImageFix"/>
<feColorMatrix in="SourceAlpha" type="matrix" values="0 0 0 0 0 0 0 0 0 0 0 0 0 0 0 0 0 0 127 0" result="hardAlpha"/>
<feOffset dy="4"/>
<feGaussianBlur stdDeviation="2"/>
<feComposite in2="hardAlpha" operator="out"/>
<feColorMatrix type="matrix" values="0 0 0 0 0 0 0 0 0 0 0 0 0 0 0 0 0 0 0.25 0"/>
<feBlend mode="normal" in2="BackgroundImageFix" result="effect1_dropShadow_2_3"/>
<feBlend mode="normal" in="SourceGraphic" in2="effect1_dropShadow_2_3" result="shape"/>
</filter>
</defs>
</svg>
