<svg width="190" height="200" viewBox="0 0 190 200" fill="none" xmlns="http://www.w3.org/2000/svg">
<path d="M126.35 81.2H106.97V76.4C106.97 75 106.02 74 104.69 74C103.36 74 102.41 75 102.41 76.4V81.2H66.69V76.4C66.69 75 65.74 74 64.41 74C63.08 74 62.13 75 62.13 76.4V81.2H41.23C36.29 81.2 32.3 85.4 32.3 90.6V156.6C32.3 161.8 36.29 166 41.23 166H126.35C131.29 166 135.28 161.8 135.28 156.6V90.6C135.28 85.4 131.29 81.2 126.35 81.2ZM130.91 156.6C130.91 159.2 128.82 161.4 126.35 161.4H41.23C38.76 161.4 36.67 159.2 36.67 156.6V102.4H130.91V156.6ZM130.91 97.6H36.67V90.6C36.67 88 38.76 85.8 41.23 85.8H62.13V90.6C62.13 92 63.08 93 64.41 93C65.74 93 66.69 92 66.69 90.6V85.8H102.6V90.6C102.6 92 103.55 93 104.88 93C106.21 93 107.16 92 107.16 90.6V85.8H126.54C129.01 85.8 131.1 88 131.1 90.6V97.6H130.91Z" fill="#333333"/>
<path d="M69.16 145.8C70.87 145.8 72.39 144.2 72.39 142.4C72.39 140.6 70.87 139 69.16 139C67.45 139 65.93 140.6 65.93 142.4C65.93 144.2 67.26 145.8 69.16 145.8Z" fill="#333333"/>
<path d="M104.88 122.6C106.59 122.6 108.11 121 108.11 119.2C108.11 117.4 106.59 115.8 104.88 115.8C103.17 115.8 101.65 117.4 101.65 119.2C101.65 121 103.17 122.6 104.88 122.6Z" fill="#333333"/>
<path d="M104.5 145.8C106.21 145.8 107.73 144.2 107.73 142.4C107.73 140.6 106.21 139 104.5 139C102.79 139 101.27 140.6 101.27 142.4C101.27 144.2 102.79 145.8 104.5 145.8Z" fill="#333333"/>
<path d="M87.02 123.4C88.73 123.4 90.25 121.8 90.25 120C90.25 118.2 88.73 116.6 87.02 116.6C85.31 116.6 83.79 118 83.79 120C83.79 122 85.31 123.4 87.02 123.4Z" fill="#333333"/>
<path d="M86.83 145.8C88.54 145.8 90.06 144.2 90.06 142.4C90.06 140.6 88.54 139 86.83 139C85.12 139 83.6 140.6 83.6 142.4C83.6 144.2 84.93 145.8 86.83 145.8Z" fill="#333333"/>
<path d="M139.46 59.8C137.75 59.8 136.23 58.4 136.23 56.4C136.23 54.4 137.56 53 139.46 53C141.36 53 142.69 54.4 142.69 56.4C142.69 57.8 143.64 58.8 144.97 58.8C146.3 58.8 147.25 57.8 147.25 56.4C147.25 52.8 144.97 49.8 141.93 48.8V48C141.93 46.6 140.98 45.6 139.65 45.6C138.32 45.6 137.37 46.6 137.37 48V48.8C134.33 49.8 132.05 52.8 132.05 56.4C132.05 60.8 135.47 64.4 139.65 64.4C141.36 64.4 142.88 65.8 142.88 67.8C142.88 69.6 141.55 71.2 139.65 71.2C137.75 71.2 136.42 69.8 136.42 67.8C136.42 66.4 135.47 65.4 134.14 65.4C132.81 65.4 131.86 66.4 131.86 67.8C131.86 71.4 134.14 74.4 137.18 75.4V76.2C137.18 77.6 138.13 78.6 139.46 78.6C140.79 78.6 141.74 77.6 141.74 76.2V75.4C144.78 74.4 147.06 71.4 147.06 67.8C147.06 63.4 143.64 59.8 139.46 59.8Z" fill="#333333"/>
</svg>
