<svg width="191" height="200" viewBox="0 0 191 200" fill="none" xmlns="http://www.w3.org/2000/svg">
<path d="M88.433 86.4C86.714 86.4 85.186 88 85.186 89.8C85.186 91.6 86.714 93.2 88.433 93.2C90.152 93.2 91.68 91.6 91.68 89.8C91.871 87.8 90.343 86.4 88.433 86.4Z" fill="#333333"/>
<path d="M110.207 86.4C108.488 86.4 106.96 88 106.96 89.8C106.96 91.6 108.488 93.2 110.207 93.2C111.926 93.2 113.454 91.6 113.454 89.8C113.454 87.8 112.117 86.4 110.207 86.4Z" fill="#333333"/>
<path d="M99.32 86.4C97.601 86.4 96.073 88 96.073 89.8C96.073 91.6 97.601 93.2 99.32 93.2C101.039 93.2 102.567 91.6 102.567 89.8C102.567 87.8 101.23 86.4 99.32 86.4Z" fill="#333333"/>
<path d="M114.409 77.2H44.694C39.919 77.2 35.908 81.2 35.908 86.4V100V159.4C35.908 162 37.818 164 40.301 164H118.802C121.285 164 123.195 162 123.195 159.4V100V86.4C123.004 81.2 119.184 77.2 114.409 77.2ZM40.301 159.4V102.2H118.802V159.2H40.301V159.4ZM118.802 97.8H40.301V86.4C40.301 83.8 42.211 81.8 44.694 81.8H114.409C116.892 81.8 118.802 83.8 118.802 86.4V97.8Z" fill="#333333"/>
<path d="M68.569 107H53.289C50.806 107 48.896 109 48.896 111.6V129.8C48.896 132.4 50.806 134.4 53.289 134.4H68.569C71.052 134.4 72.962 132.4 72.962 129.8V111.6C72.962 109 71.052 107 68.569 107ZM53.289 129.8V111.6H68.569V129.8H53.289Z" fill="#333333"/>
<path d="M103.331 127.6H88.051C85.568 127.6 83.658 129.6 83.658 132.2V150.4C83.658 153 85.568 155 88.051 155H103.331C105.814 155 107.724 153 107.724 150.4V132.2C107.724 129.6 105.814 127.6 103.331 127.6ZM88.242 150.4V132.2H103.522V150.4H88.242Z" fill="#333333"/>
<path d="M68.569 141H53.289C50.806 141 48.896 143 48.896 145.6V152.6C48.896 153.8 49.851 154.8 50.997 154.8C52.143 154.8 53.098 153.8 53.098 152.6V145.6H68.378V152.6C68.378 153.8 69.333 154.8 70.479 154.8C71.625 154.8 72.58 153.8 72.58 152.6V145.6C72.962 143.2 71.052 141 68.569 141Z" fill="#333333"/>
<path d="M105.623 107C104.477 107 103.522 108 103.522 109.2V116H88.242V109.2C88.242 108 87.287 107 86.141 107C84.995 107 84.04 108 84.04 109.2V116C84.04 118.6 85.95 120.6 88.433 120.6H103.713C106.196 120.6 108.106 118.6 108.106 116V109.2C107.724 108 106.769 107 105.623 107Z" fill="#333333"/>
<path d="M144.396 74.6L137.711 67.6C139.048 65.6 139.621 63.4 139.621 60.8C139.621 54.2 134.464 48.6 127.97 48.6C121.476 48.6 116.51 54 116.51 60.6C116.51 67.2 121.667 72.8 128.161 72.8C130.644 72.8 132.745 72 134.655 70.8L141.34 77.8C141.722 78.2 142.295 78.4 142.868 78.4C143.441 78.4 144.014 78.2 144.396 77.8C145.16 76.8 145.16 75.4 144.396 74.6ZM120.903 60.6C120.903 56.4 124.15 53 128.161 53C132.172 53 135.419 56.4 135.419 60.6C135.419 64.8 132.172 68.2 128.161 68.2C124.15 68.2 120.903 64.8 120.903 60.6Z" fill="#333333"/>
</svg>
