<svg width="200" height="200" viewBox="0 0 200 200" fill="none" xmlns="http://www.w3.org/2000/svg">
<g clip-path="url(#clip0_3_194)">
<path fill-rule="evenodd" clip-rule="evenodd" d="M138.216 33.8034L138.213 33.8014L100.548 12.0558C100.394 11.9526 100.213 11.8946 100.027 11.8886C99.8415 11.8826 99.6577 11.9288 99.4968 12.0218L61.7739 33.8014L61.7749 33.803L24.1382 55.5326C23.9633 55.6116 23.8149 55.7394 23.7108 55.9007C23.6067 56.0619 23.5514 56.2498 23.5514 56.4417V143.559H23.5565C23.5564 143.734 23.6024 143.905 23.6898 144.056C23.7773 144.208 23.903 144.333 24.0545 144.42L61.7779 166.199L99.5008 187.977C99.6513 188.064 99.8218 188.109 99.9953 188.109C100.169 188.109 100.339 188.064 100.49 187.977L138.213 166.199L175.852 144.468C176.027 144.389 176.176 144.262 176.28 144.1C176.384 143.939 176.439 143.751 176.439 143.559V56.4417H176.436C176.436 56.2674 176.39 56.0961 176.303 55.9451C176.216 55.794 176.091 55.6684 175.94 55.581L138.217 33.8014L138.216 33.8034ZM71.2603 45.2033L83.0835 64.3317L77.6075 70.1051L71.9804 64.1645C71.7986 63.9736 71.5483 63.8626 71.2847 63.856C71.0211 63.8494 70.7656 63.9477 70.5744 64.1293L70.5392 64.1645L64.9154 70.106L59.4378 64.3314L61.2775 61.3549L71.2603 45.2033ZM77.136 50.9299C78.2918 49.0783 79.8805 47.5356 81.7653 46.4348C83.496 45.4261 85.431 44.8188 87.4276 44.6575C89.4243 44.4962 91.4317 44.7851 93.3018 45.5029C95.172 46.2207 96.8572 47.3491 98.2332 48.8049C99.6092 50.2607 100.641 52.0067 101.252 53.9143C101.864 55.8219 102.039 57.8424 101.766 59.8268C101.492 61.8112 100.777 63.709 99.6724 65.3801C98.5679 67.0513 97.1024 68.4532 95.384 69.4826C93.6656 70.512 91.738 71.1426 89.7435 71.3279L77.136 50.9299ZM56.0209 66.0805H32.0506C32.0519 64.953 32.5009 63.8722 33.2987 63.0756C34.0965 62.2789 35.178 61.8316 36.3055 61.8319C36.6469 61.8307 36.9873 61.8702 37.3193 61.9497C37.6477 62.0308 37.9652 62.151 38.2649 62.3079C38.4021 62.3791 38.5539 62.4174 38.7085 62.4198C38.863 62.4223 39.016 62.3888 39.1554 62.3219C39.2947 62.2551 39.4167 62.1568 39.5115 62.0348C39.6064 61.9127 39.6715 61.7703 39.7019 61.6188C40.0019 60.364 40.7141 59.2462 41.7246 58.4441C42.735 57.6421 43.9853 57.2022 45.2754 57.1948C46.5655 57.1874 47.8207 57.6129 48.8403 58.4033C49.8599 59.1937 50.5849 60.3033 50.8993 61.5545C50.9434 61.7312 51.0351 61.8925 51.1645 62.0206C51.2939 62.1488 51.456 62.239 51.6331 62.2815C51.8102 62.3239 51.9956 62.317 52.169 62.2613C52.3425 62.2057 52.4973 62.1036 52.6167 61.966C53.0944 61.4368 53.677 61.0129 54.3276 60.7213C55.0934 60.3804 55.9314 60.2334 56.7675 60.2931C57.6036 60.3527 58.4121 60.6173 59.1218 61.0634L56.0209 66.0805ZM57.4169 67.6004L58.3554 66.0821L64.1953 72.2378L64.2305 72.273C64.4217 72.4546 64.6772 72.5529 64.9408 72.5463C65.2045 72.5397 65.4547 72.4287 65.6366 72.2378L71.2602 66.2979L76.8866 72.2378L76.9218 72.273C77.113 72.4546 77.3685 72.5529 77.6321 72.5463C77.8957 72.5397 78.1459 72.4287 78.3278 72.2378L84.1654 66.0821L93.3457 80.9344L97.4001 87.4941C97.3518 87.4844 97.3008 87.4894 97.2522 87.4807C96.8192 87.4006 96.3798 87.3608 95.9395 87.3619C95.9324 87.3619 95.9254 87.36 95.9183 87.36C95.1768 87.3661 94.4405 87.4842 93.7343 87.7103C93.6019 87.7539 93.4823 87.8116 93.3568 87.8632C92.6098 88.1281 91.9715 88.6324 91.5409 89.2978L86.7346 89.3104C86.6799 89.3011 86.6245 89.2964 86.569 89.2964H67.5062C66.8827 89.3004 66.2668 89.4342 65.6978 89.6892C65.1288 89.9443 64.6191 90.315 64.2011 90.7777L64.2031 90.7797C63.3423 91.7253 62.8655 92.9581 62.8659 94.2368C62.8663 95.5155 63.3439 96.748 64.2052 97.6931C64.3657 97.8666 64.5386 98.0282 64.7225 98.1766C64.5607 98.3068 64.4076 98.4473 64.264 98.5973L64.2006 98.6602C63.3771 99.568 62.9047 100.74 62.8682 101.965C62.8317 103.19 63.2336 104.388 64.0015 105.344C64.2176 105.603 64.4605 105.84 64.7262 106.049C64.8035 106.111 64.8857 106.163 64.9666 106.22C65.1666 106.361 65.3777 106.486 65.5978 106.593C65.6536 106.62 65.7005 106.663 65.7573 106.687L65.7841 116.512H27.1853L49.1754 80.9341L57.4169 67.6004ZM123.83 69.8886C124.128 69.6923 124.445 69.528 124.778 69.3982C125.762 69.0226 126.836 68.952 127.861 69.1956C128.257 69.2932 128.64 69.4381 129.001 69.6272C129.229 69.7458 129.495 69.7712 129.742 69.6982C129.989 69.6252 130.199 69.4594 130.326 69.2356C130.393 69.088 130.444 68.9335 130.478 68.775C130.868 67.2987 131.737 65.994 132.95 65.066C134.162 64.138 135.649 63.6393 137.176 63.6485C138.703 63.6576 140.183 64.174 141.385 65.1165C142.586 66.059 143.44 67.374 143.812 68.8549C143.857 69.0316 143.948 69.1927 144.078 69.3209C144.207 69.4491 144.369 69.5393 144.546 69.5817C144.723 69.6242 144.909 69.6173 145.082 69.5617C145.256 69.5061 145.41 69.404 145.53 69.2666C146.101 68.6291 146.801 68.1199 147.584 67.7723C148.366 67.4247 149.214 67.2466 150.07 67.2498C151.204 67.2467 152.316 67.5605 153.281 68.1559C154.25 68.7557 155.033 69.6126 155.543 70.6311C155.617 70.7775 155.725 70.9036 155.859 70.998C155.993 71.0925 156.148 71.1524 156.31 71.1724C156.473 71.1924 156.638 71.1719 156.791 71.1127C156.943 71.0535 157.079 70.9575 157.186 70.8331C157.646 70.2992 158.213 69.8659 158.849 69.5603C159.484 69.2546 160.176 69.0831 160.88 69.0565C161.585 69.03 162.288 69.1488 162.944 69.4057C163.601 69.6626 164.198 70.0521 164.698 70.5497L164.701 70.5538C165.618 71.4698 166.152 72.7005 166.195 73.996H126.51L123.83 69.8886ZM123.412 72.8866L117.789 78.513L112.155 72.886L117.783 64.2597L123.412 72.8866ZM111.047 74.5835L117.094 80.6231L117.096 80.6211C117.187 80.7123 117.295 80.7845 117.414 80.8338C117.533 80.883 117.66 80.9083 117.789 80.9081C117.918 80.9079 118.046 80.8822 118.164 80.8326C118.283 80.783 118.391 80.7104 118.482 80.619L124.517 74.58L134.913 90.5156L140.651 99.3102L140.227 99.9615L129.429 116.512H117.671L101.141 89.7677L111.047 74.5835ZM154.247 116.511L143.015 99.2958L152.14 85.3088L162.412 101.052L172.498 116.512L154.247 116.511ZM151.874 116.511H131.783L141.828 101.114L151.874 116.511ZM85.0871 153.752L85.0851 153.754C84.5691 154.207 83.8973 154.443 83.2111 154.41L83.1636 154.409H65.3877C64.6732 154.455 63.9669 154.236 63.4034 153.794C63.1813 153.573 63.0051 153.311 62.8849 153.021C62.7646 152.732 62.7028 152.422 62.7029 152.109V152.086V150.745H80.1012C80.3666 150.745 80.6212 150.639 80.8089 150.452C80.9966 150.264 81.102 150.01 81.102 149.744C81.102 149.479 80.9966 149.224 80.8089 149.036C80.6212 148.849 80.3666 148.743 80.1012 148.743H62.7034V147.695H62.6994V147.679C62.6741 147.208 62.7632 146.738 62.959 146.309C63.1549 145.88 63.4517 145.504 63.8241 145.215L82.9687 145.317L103.545 148.833L103.596 148.84C110.574 149.776 117.632 149.952 124.648 149.366C125.541 149.273 126.429 149.16 127.313 149.027C127.592 148.985 127.866 148.928 128.143 148.881C128.744 148.781 129.345 148.682 129.938 148.561C130.273 148.492 130.601 148.405 130.934 148.329C131.462 148.21 131.99 148.093 132.509 147.955C132.864 147.86 133.209 147.747 133.56 147.643C134.046 147.499 134.535 147.36 135.012 147.198C135.372 147.076 135.72 146.936 136.074 146.804C136.53 146.633 136.987 146.467 137.433 146.279C137.788 146.129 138.132 145.96 138.481 145.798C138.909 145.599 139.339 145.403 139.756 145.185C140.102 145.005 140.436 144.806 140.774 144.613C141.175 144.385 141.577 144.156 141.966 143.907C142.299 143.696 142.618 143.465 142.941 143.238C143.206 143.052 143.484 142.884 143.743 142.689C143.827 142.786 143.905 142.889 143.976 142.996C144.341 143.548 144.477 144.22 144.355 144.87C144.183 145.69 143.806 146.453 143.26 147.088C142.628 147.851 141.884 148.513 141.053 149.05C135.857 152.483 127.597 153.989 118.801 154.289C108.063 154.622 97.3311 153.447 86.9194 150.798C86.7711 150.757 86.6152 150.752 86.464 150.781C86.3128 150.81 86.1704 150.874 86.0481 150.968C85.9258 151.061 85.8268 151.182 85.7591 151.32C85.6913 151.458 85.6565 151.61 85.6576 151.764C85.7286 152.475 85.5252 153.187 85.0871 153.752ZM65.5435 104.089C65.0806 103.503 64.839 102.773 64.8612 102.026C64.8834 101.28 65.1679 100.565 65.6647 100.008L65.6769 99.994C65.7514 99.9191 65.8301 99.8486 65.9127 99.7828C65.9655 99.7388 66.0134 99.6892 66.0689 99.6492C66.1549 99.591 66.2444 99.5381 66.3368 99.4908C66.3943 99.4591 66.448 99.4204 66.5079 99.3933C66.6119 99.3498 66.7187 99.3134 66.8277 99.2845C66.8826 99.2683 66.9342 99.2435 66.9903 99.2317C67.1594 99.1939 67.3321 99.1746 67.5054 99.1743H85.5799V101.369V101.372C85.5799 101.669 85.5678 101.981 85.5414 102.304C85.5393 102.331 85.535 102.354 85.5328 102.38C85.5101 102.631 85.4777 102.863 85.437 103.076C85.3679 103.459 85.2331 103.827 85.0387 104.164C84.842 104.449 84.5756 104.678 84.2651 104.83C83.9545 104.983 83.6101 105.053 83.2646 105.035H67.1259C66.5002 104.924 65.937 104.588 65.5435 104.089ZM65.6612 96.3441C65.1386 95.7665 64.8525 95.0134 64.8598 94.2345C64.8596 94.0319 64.8783 93.8298 64.9156 93.6306C64.9503 93.4492 65.001 93.2712 65.067 93.0987L65.0751 93.07C65.2094 92.721 65.4082 92.4004 65.6612 92.125L65.6632 92.1232L65.6651 92.125C66.0157 91.7391 66.4751 91.4685 66.9826 91.3491C67.1541 91.3103 67.3295 91.2908 67.5054 91.2908H85.5757L85.5787 97.1784H67.5054C67.157 97.1748 66.8131 97.0989 66.4957 96.9553C66.1782 96.8118 65.894 96.6033 65.6612 96.3441ZM98.8777 110.416H93.224V103.809H98.8777V110.416ZM93.2191 113.194C93.223 113.158 93.2248 113.122 93.2246 113.086V112.41H98.8783V113.817C98.8783 114.451 98.9152 115.06 98.9691 115.659C98.9733 115.706 98.9715 115.752 98.9759 115.799C98.9835 115.876 99.0008 115.948 99.0092 116.025C99.0607 116.497 99.1285 116.958 99.2127 117.409C99.2201 117.448 99.2229 117.491 99.2303 117.53L94.1047 119.734C93.4688 117.614 93.17 115.407 93.2191 113.194ZM94.3586 89.6028C94.8705 89.4383 95.4043 89.3521 95.9419 89.3469C96.4777 89.334 97.0116 89.4138 97.5201 89.5829C97.8634 89.673 98.1738 89.8596 98.4145 90.1205C98.6551 90.3814 98.8161 90.7058 98.8783 91.0553V101.814H93.2246V90.438C93.2284 90.4132 93.2422 90.393 93.2446 90.3676C93.2555 90.2294 93.3763 90.0904 93.5732 89.9599C93.8185 89.8077 94.0828 89.6877 94.3586 89.6028ZM66.1565 123.65C67.2894 127.393 70.9183 127.808 75.012 128.263C80.8848 128.917 87.8578 129.727 87.486 144.067L83.2401 143.342C83.2153 143.337 83.1915 143.34 83.1671 143.338C83.1368 143.335 83.1072 143.33 83.0764 143.33H83.0074H83.0041L68.7801 143.254L64.4796 143.231C63.1921 139.617 62.762 135.754 63.2234 131.946C63.6005 129.004 64.6005 126.176 66.1565 123.65ZM141.782 141.62C141.491 141.824 141.207 142.038 140.907 142.23C140.525 142.474 140.126 142.693 139.731 142.917C139.427 143.09 139.132 143.273 138.821 143.435C138.409 143.649 137.98 143.839 137.556 144.033C137.244 144.176 136.94 144.331 136.621 144.465C136.179 144.651 135.724 144.812 135.27 144.98C134.953 145.096 134.645 145.224 134.324 145.333C133.852 145.491 133.367 145.627 132.886 145.768C132.571 145.86 132.262 145.963 131.943 146.048C131.426 146.185 130.898 146.299 130.372 146.417C130.079 146.484 129.791 146.561 129.495 146.621C128.914 146.74 128.323 146.836 127.733 146.933C127.484 146.974 127.239 147.026 126.989 147.063C126.147 147.19 125.299 147.297 124.446 147.385C117.583 147.955 110.679 147.779 103.853 146.862L93.8556 145.154C93.8714 144.779 93.8931 144.407 93.9006 144.028C93.9136 143.373 93.9132 142.736 93.8996 142.119C93.8944 141.856 93.7848 141.605 93.5949 141.423C93.4049 141.24 93.1502 141.14 92.8867 141.145C92.6232 141.15 92.3726 141.26 92.1899 141.45C92.0073 141.64 91.9075 141.895 91.9127 142.158C91.9257 142.75 91.9261 143.36 91.9138 143.989C91.9087 144.245 91.89 144.544 91.8785 144.816L89.4699 144.406C90.0121 127.954 81.9807 127.036 75.2301 126.285C71.2424 125.841 67.7937 125.454 67.7815 120.875L67.7724 117.529L67.7764 117.51C67.7764 117.479 67.7745 117.451 67.772 117.422L67.7435 107.021L69.9913 107.024V109.986C69.9895 110.118 70.014 110.249 70.0633 110.371C70.1127 110.494 70.1859 110.605 70.2787 110.699C70.3714 110.793 70.482 110.868 70.6039 110.919C70.7258 110.97 70.8566 110.996 70.9887 110.996C71.1208 110.996 71.2516 110.97 71.3734 110.919C71.4953 110.868 71.6059 110.793 71.6987 110.699C71.7915 110.605 71.8646 110.494 71.914 110.371C71.9633 110.249 71.9878 110.118 71.9861 109.986V107.026L83.0991 107.04V107.044C83.1151 107.044 83.1271 107.039 83.143 107.039C83.2232 107.039 83.3984 107.034 83.4204 107.033V107.017C84.0984 107.053 84.773 106.899 85.3678 106.571C85.9626 106.244 86.454 105.757 86.7864 105.165C87.0336 104.711 87.2133 104.224 87.3199 103.718C87.329 103.681 87.3422 103.648 87.3507 103.61C87.3558 103.591 87.3691 103.577 87.3732 103.557L87.3947 103.449L87.3982 103.431L87.4007 103.419C87.4606 103.115 87.5039 102.807 87.5304 102.498L87.5313 102.477C87.5402 102.375 87.5394 102.267 87.5455 102.163C87.5619 101.899 87.5807 101.632 87.5807 101.388H87.5767L87.5717 91.2956L91.2301 91.2852V113.086L91.2322 113.15C91.1872 116.389 91.7906 119.605 93.0069 122.608C94.2231 125.611 96.0276 128.34 98.3143 130.635C103.118 135.651 109.575 138.76 116.492 139.387C119.247 139.616 122.014 139.145 124.539 138.019C125.534 137.637 126.434 137.043 127.177 136.279C127.921 135.515 128.49 134.599 128.845 133.594C130.159 133.571 131.439 133.52 132.616 133.414C135.089 132.941 137.65 133.341 139.862 134.544C141.415 135.643 142.379 137.653 142.708 140.954C142.407 141.186 142.093 141.402 141.782 141.62ZM123.696 136.22C121.724 137.087 119.581 137.493 117.429 137.409L118.102 132.805C119.043 132.971 119.996 133.115 120.959 133.227C122.883 133.453 124.831 133.569 126.722 133.603C126.036 134.791 124.97 135.713 123.696 136.22ZM115.437 137.253C112.857 136.92 110.344 136.192 107.986 135.094L110.615 130.615C110.808 130.7 110.982 130.804 111.178 130.886C112.787 131.535 114.45 132.046 116.146 132.411L115.437 137.253ZM106.215 134.185C103.869 132.895 101.724 131.268 99.8504 129.356L103.707 126.011C105.212 127.509 106.935 128.77 108.818 129.75L106.215 134.185ZM98.5246 127.873C96.9545 125.997 95.6875 123.886 94.7696 121.618L99.7223 119.489C100.242 121.122 101.018 122.662 102.024 124.05C102.14 124.211 102.29 124.346 102.412 124.503L98.5246 127.873ZM101.077 116.512C100.941 115.621 100.873 114.72 100.873 113.818V93.1119L115.336 116.512L101.077 116.512ZM44.779 118.507L25.5462 129.598V118.507H44.779ZM137.224 164.477L99.9958 185.971L92.0412 181.378L128.867 160.115C129.115 159.968 129.294 159.729 129.367 159.451C129.439 159.172 129.399 158.876 129.255 158.627C129.11 158.378 128.874 158.196 128.596 158.12C128.318 158.044 128.022 158.081 127.771 158.222L89.8535 180.115L82.5778 175.915L108.669 160.807C108.795 160.736 108.905 160.64 108.993 160.526C109.081 160.412 109.146 160.282 109.184 160.142C109.222 160.003 109.232 159.857 109.213 159.714C109.194 159.571 109.147 159.433 109.075 159.308C109.002 159.183 108.906 159.074 108.791 158.986C108.676 158.899 108.545 158.835 108.406 158.798C108.266 158.762 108.12 158.753 107.977 158.773C107.834 158.793 107.697 158.841 107.572 158.914L80.3916 174.653L73.0897 170.437L93.0579 158.893C93.3052 158.746 93.4846 158.507 93.557 158.229C93.6295 157.95 93.5892 157.654 93.4449 157.405C93.3006 157.156 93.0639 156.974 92.7862 156.898C92.5085 156.822 92.2121 156.859 91.9613 157L70.9023 169.175L63.6377 164.98L70.3509 161.071C70.6019 160.926 70.7848 160.687 70.8595 160.406C70.9341 160.126 70.8944 159.827 70.7489 159.576C70.6035 159.325 70.3643 159.142 70.084 159.068C69.8036 158.993 69.5051 159.033 69.2541 159.178L61.4547 163.72L54.1519 159.504L57.0914 157.788C57.2164 157.715 57.3258 157.619 57.4134 157.504C57.501 157.39 57.5652 157.259 57.6021 157.119C57.639 156.98 57.6481 156.834 57.6287 156.691C57.6092 156.548 57.5618 156.411 57.489 156.286C57.4162 156.161 57.3195 156.052 57.2045 155.965C57.0895 155.878 56.9584 155.814 56.8187 155.778C56.6791 155.742 56.5336 155.733 56.3907 155.753C56.2477 155.773 56.1102 155.821 55.9859 155.895L51.9658 158.242L44.6382 154.012L56.6051 147.103C56.8561 146.958 57.0395 146.72 57.115 146.441C57.1905 146.161 57.1519 145.863 57.0076 145.612C56.8634 145.361 56.6253 145.178 56.3458 145.102C56.0663 145.027 55.7683 145.065 55.5173 145.21L42.4555 152.751L35.1262 148.52L57.0024 135.947C57.2534 135.802 57.4369 135.564 57.5124 135.285C57.5879 135.005 57.5493 134.707 57.4051 134.456C57.2609 134.205 57.0228 134.022 56.7433 133.946C56.4638 133.871 56.1658 133.909 55.9147 134.054L32.9404 147.258L25.6018 143.021L59.7122 123.323C59.9595 123.176 60.1389 122.937 60.2113 122.659C60.2838 122.38 60.2435 122.084 60.0992 121.835C59.9549 121.586 59.7182 121.404 59.4405 121.328C59.1628 121.252 58.8664 121.289 58.6156 121.43L25.5462 140.527V132.118L49.1537 118.507H65.7887L65.7945 120.646C63.3198 123.857 61.751 127.673 61.2514 131.696C60.7608 135.754 61.2081 139.87 62.5589 143.727C62.0642 144.119 61.6454 144.599 61.3229 145.141C60.8967 145.923 60.6861 146.805 60.7126 147.695H60.7086V152.086C60.7086 152.13 60.7115 152.174 60.717 152.217C60.7273 152.791 60.8524 153.358 61.085 153.883C61.3175 154.408 61.6529 154.882 62.0713 155.275C62.9965 156.053 64.1799 156.456 65.3877 156.404H83.1637C83.2058 156.404 83.2478 156.402 83.2896 156.396C83.8864 156.408 84.4796 156.301 85.0349 156.082C85.5903 155.863 86.0967 155.536 86.5251 155.12L86.5273 155.122C87.0631 154.538 87.4153 153.81 87.5401 153.028C97.7907 155.496 108.324 156.588 118.863 156.275C127.991 155.963 136.618 154.366 142.151 150.709C143.154 150.058 144.051 149.257 144.81 148.334C145.571 147.433 146.09 146.354 146.318 145.197C146.528 144.05 146.283 142.867 145.635 141.897C145.367 141.506 145.048 141.151 144.688 140.842C144.302 136.874 143.061 134.376 141.007 132.923C138.895 131.429 136.029 131.113 132.444 131.435C128.694 131.747 124.922 131.685 121.184 131.249C118.018 130.933 114.909 130.193 111.941 129.046C108.656 127.798 105.781 125.664 103.636 122.881C102.686 121.555 101.973 120.076 101.528 118.507H120.566L111.273 123.865C111.148 123.936 111.039 124.031 110.952 124.145C110.864 124.258 110.8 124.388 110.763 124.526C110.725 124.665 110.715 124.809 110.734 124.951C110.752 125.094 110.799 125.231 110.87 125.355C110.941 125.479 111.037 125.588 111.15 125.676C111.264 125.763 111.393 125.828 111.532 125.865C111.67 125.902 111.814 125.912 111.957 125.894C112.099 125.875 112.236 125.829 112.36 125.758L124.952 118.507H139.509L125.295 126.736C125.17 126.807 125.059 126.903 124.971 127.017C124.883 127.131 124.818 127.262 124.78 127.401C124.742 127.541 124.733 127.686 124.751 127.829C124.77 127.972 124.817 128.11 124.889 128.235C124.962 128.36 125.058 128.47 125.173 128.557C125.288 128.645 125.419 128.708 125.559 128.745C125.698 128.782 125.844 128.79 125.987 128.77C126.13 128.751 126.267 128.702 126.392 128.629L143.875 118.507H158.305L142.947 127.532C142.823 127.604 142.714 127.7 142.627 127.815C142.54 127.929 142.476 128.06 142.44 128.199C142.403 128.338 142.395 128.483 142.414 128.625C142.434 128.768 142.481 128.905 142.554 129.029C142.627 129.153 142.723 129.262 142.838 129.348C142.953 129.435 143.084 129.498 143.223 129.534C143.362 129.57 143.507 129.579 143.65 129.558C143.792 129.538 143.929 129.49 144.053 129.417L162.503 118.575C162.529 118.554 162.555 118.531 162.579 118.507H174.326V118.502C174.367 118.502 174.404 118.472 174.444 118.467V120.236L147.638 135.746C147.39 135.893 147.209 136.132 147.136 136.411C147.063 136.69 147.103 136.987 147.248 137.237C147.392 137.486 147.63 137.669 147.909 137.744C148.187 137.82 148.484 137.782 148.735 137.639L174.444 122.763V131.198L150.081 145.35C149.83 145.496 149.648 145.735 149.573 146.015C149.499 146.295 149.539 146.593 149.684 146.844C149.829 147.095 150.068 147.278 150.348 147.352C150.628 147.427 150.926 147.388 151.177 147.243L174.444 133.728V142.989L137.224 164.477ZM174.444 100V115.887L164.055 99.9616L152.973 82.9773C152.886 82.8367 152.766 82.7203 152.622 82.639C152.478 82.5577 152.316 82.5141 152.151 82.5124C151.986 82.5106 151.823 82.5507 151.677 82.6289C151.532 82.7071 151.408 82.821 151.319 82.9597L141.837 97.4919L136.58 89.434L127.811 75.9924H167.14V75.9899C167.381 75.9899 167.613 75.9029 167.794 75.745C167.975 75.5872 168.093 75.3691 168.126 75.1311C168.147 74.9799 168.162 74.8289 168.173 74.6823L168.175 74.6568C168.187 74.482 168.193 74.3223 168.193 74.1787C168.193 73.2447 168.009 72.3198 167.652 71.4571C167.294 70.5943 166.77 69.8105 166.108 69.1508L166.107 69.1493L166.105 69.1472L166.103 69.1453C164.866 67.9083 163.216 67.1705 161.47 67.0731C159.723 66.9757 158.002 67.5255 156.635 68.6172C156.012 67.7569 155.227 67.0266 154.324 66.4674C152.941 65.613 151.333 65.1947 149.709 65.2667C148.085 65.3386 146.52 65.8977 145.218 66.871C144.493 65.273 143.311 63.9259 141.82 62.9997C140.33 62.0735 138.598 61.6098 136.845 61.6671C135.091 61.7245 133.393 62.3003 131.967 63.3219C130.54 64.3435 129.448 65.7651 128.829 67.4069C128.665 67.3539 128.498 67.307 128.328 67.2661C127.382 67.0285 126.397 66.9921 125.436 67.159C124.475 67.326 123.56 67.6927 122.749 68.2355L118.617 61.9009C118.526 61.762 118.403 61.6477 118.257 61.5687C118.112 61.4896 117.949 61.4482 117.783 61.4482C117.617 61.4482 117.454 61.4896 117.308 61.5687C117.163 61.6477 117.039 61.762 116.949 61.9009L99.9861 87.8991L95.0358 79.8903L90.8906 73.184C93.4049 72.8011 95.7851 71.8009 97.8184 70.2729C99.8516 68.7449 101.474 66.7368 102.542 64.4282C103.609 62.1196 104.087 59.5825 103.934 57.0437C103.781 54.505 103 52.0438 101.663 49.8804C100.326 47.7169 98.4734 45.9187 96.2712 44.6464C94.0689 43.3742 91.5856 42.6676 89.0435 42.5899C86.5013 42.5122 83.9795 43.0659 81.7037 44.2013C79.4278 45.3367 77.4689 47.0186 76.0021 49.0963L72.1056 42.7922C72.0164 42.6477 71.8916 42.5285 71.7432 42.4459C71.5948 42.3634 71.4277 42.3203 71.2579 42.3207C71.0881 42.3211 70.9212 42.3651 70.7732 42.4485C70.6252 42.5318 70.5011 42.6517 70.4126 42.7966L60.1619 59.3809C59.1798 58.759 58.0589 58.3901 56.8993 58.3072C55.7398 58.2242 54.5779 58.4299 53.5172 58.9056C53.0893 59.0968 52.6812 59.3296 52.2988 59.6007C51.6451 58.2427 50.61 57.1045 49.3199 56.3252C48.0299 55.5458 46.5408 55.1591 45.0346 55.2121C43.5284 55.2652 42.0702 55.7558 40.8383 56.6241C39.6063 57.4923 38.6539 58.7005 38.0973 60.1011C37.9951 60.0707 37.8912 60.0429 37.7865 60.0174C36.8669 59.7925 35.9083 59.7796 34.983 59.9796C34.0577 60.1795 33.1899 60.5872 32.4453 61.1718C31.7007 61.7563 31.0987 62.5024 30.6847 63.3538C30.2707 64.2051 30.0557 65.1394 30.0558 66.0861C30.0558 66.2597 30.0667 66.4573 30.0871 66.6758C30.1031 66.85 30.1265 67.0176 30.1551 67.1783C30.1801 67.4241 30.2955 67.6519 30.4788 67.8175C30.6621 67.9831 30.9004 68.0749 31.1474 68.0749H54.7879L47.4851 79.89L25.5462 115.385V57.0122L62.7668 35.5229L62.7698 35.5208L62.7708 35.5229L99.9974 14.0297L137.221 35.5215L137.22 35.5231L174.444 57.0148V100Z" fill="black"/>
<path fill-rule="evenodd" clip-rule="evenodd" d="M186.734 50.4972C186.734 50.3229 186.688 50.1516 186.601 50.0006C186.514 49.8495 186.389 49.724 186.238 49.6365L143.367 24.8838L143.366 24.8858L143.363 24.8838L100.49 0.131833C100.339 0.0454533 100.169 0 99.9953 0C99.8218 0 99.6513 0.0454533 99.5008 0.131833L56.6801 24.8537L56.6248 24.8838L13.822 49.5967C13.6519 49.6778 13.5083 49.8054 13.4078 49.9648C13.3073 50.1242 13.254 50.3088 13.2542 50.4972V149.503H13.2571C13.2571 149.677 13.303 149.848 13.39 149.999C13.477 150.15 13.6022 150.276 13.753 150.363L56.625 175.117V175.115L56.628 175.117L99.5008 199.868C99.6513 199.955 99.8217 200 99.9953 200C100.169 200 100.339 199.955 100.49 199.868L143.31 175.147L143.366 175.117L186.169 150.404C186.339 150.323 186.483 150.195 186.583 150.036C186.684 149.876 186.737 149.692 186.737 149.503V50.4972H186.734ZM184.742 100V148.93L142.369 173.395L142.32 173.426L99.9958 197.862L57.6205 173.397L57.6216 173.395L15.249 148.93V51.07L57.6216 26.6051L57.6705 26.5747L99.9958 2.13879L142.37 26.6037L184.742 51.07V100Z" fill="black"/>
<path fill-rule="evenodd" clip-rule="evenodd" d="M92.1473 132.271C91.9152 131.679 91.6534 131.098 91.363 130.532C91.0829 129.983 90.7727 129.45 90.4339 128.935C90.3626 128.824 90.27 128.729 90.1615 128.654C90.0529 128.579 89.9306 128.527 89.8017 128.5C89.6727 128.473 89.5397 128.471 89.4103 128.496C89.2808 128.521 89.1576 128.571 89.0477 128.644C88.9379 128.717 88.8435 128.81 88.7702 128.92C88.6969 129.029 88.6461 129.152 88.6206 129.282C88.5952 129.411 88.5957 129.544 88.6221 129.673C88.6485 129.802 88.7003 129.925 88.7744 130.034C89.0733 130.486 89.3471 130.954 89.5947 131.436C89.8537 131.944 90.0869 132.464 90.2933 132.995C90.3894 133.241 90.5792 133.439 90.821 133.545C91.0627 133.651 91.3367 133.656 91.5826 133.56C91.8284 133.464 92.026 133.274 92.1319 133.033C92.2378 132.791 92.2434 132.517 92.1473 132.271Z" fill="black"/>
<path fill-rule="evenodd" clip-rule="evenodd" d="M93.1432 135.551C93.1146 135.424 93.0612 135.304 92.986 135.197C92.9108 135.09 92.8153 134.999 92.7049 134.929C92.5946 134.86 92.4716 134.812 92.343 134.79C92.2144 134.768 92.0826 134.771 91.9552 134.8C91.8278 134.828 91.7073 134.882 91.6006 134.957C91.4939 135.032 91.4031 135.128 91.3332 135.238C91.2634 135.348 91.216 135.471 91.1937 135.6C91.1714 135.728 91.1747 135.86 91.2034 135.988C91.3072 136.446 91.4022 136.932 91.4883 137.444C91.5696 137.933 91.642 138.446 91.7018 138.98C91.7308 139.243 91.8628 139.483 92.0689 139.648C92.2749 139.813 92.538 139.889 92.8005 139.86C93.0629 139.831 93.303 139.699 93.4681 139.493C93.6331 139.287 93.7096 139.024 93.6806 138.762C93.6173 138.2 93.5398 137.651 93.4518 137.117C93.3638 136.583 93.2591 136.063 93.1432 135.551Z" fill="black"/>
<path fill-rule="evenodd" clip-rule="evenodd" d="M74.496 121.787L74.2739 121.745L74.0364 121.691L74.028 121.69C73.4741 121.607 72.9494 121.388 72.5007 121.053L72.4966 121.049C72.2294 120.743 72.0749 120.355 72.0591 119.949C72.024 119.688 71.8866 119.451 71.677 119.291C71.4674 119.131 71.2028 119.06 70.9413 119.095C70.6799 119.13 70.4431 119.268 70.283 119.478C70.1229 119.687 70.0527 119.952 70.0877 120.213C70.1496 121.076 70.5208 121.887 71.133 122.498C71.8275 123.083 72.6655 123.472 73.5605 123.625L73.6149 123.639L73.8523 123.69V123.688L73.8793 123.694L74.1282 123.741C74.2573 123.767 74.3903 123.768 74.5195 123.742C74.6486 123.716 74.7714 123.665 74.8807 123.591C74.99 123.518 75.0835 123.423 75.1559 123.313C75.2284 123.203 75.2782 123.08 75.3026 122.95C75.3269 122.821 75.3253 122.688 75.2979 122.559C75.2704 122.43 75.2176 122.308 75.1426 122.2C75.0676 122.092 74.9718 121.999 74.8608 121.929C74.7498 121.858 74.6258 121.809 74.496 121.787Z" fill="black"/>
<path fill-rule="evenodd" clip-rule="evenodd" d="M86.6105 124.999C86.063 124.62 85.4889 124.28 84.8925 123.983C84.7754 123.925 84.6479 123.89 84.5174 123.881C84.3868 123.872 84.2558 123.889 84.1317 123.93C84.0077 123.972 83.893 124.038 83.7943 124.123C83.6956 124.209 83.6148 124.314 83.5565 124.431C83.4982 124.548 83.4635 124.676 83.4545 124.806C83.4454 124.937 83.4622 125.068 83.5038 125.192C83.5454 125.316 83.611 125.431 83.6969 125.529C83.7829 125.628 83.8874 125.709 84.0045 125.767C85.0297 126.273 85.9755 126.926 86.812 127.705C87.0052 127.885 87.2619 127.98 87.5256 127.971C87.7893 127.961 88.0384 127.847 88.2181 127.654C88.3979 127.461 88.4935 127.204 88.484 126.941C88.4744 126.677 88.3606 126.428 88.1674 126.248C87.6791 125.795 87.1588 125.378 86.6105 124.999Z" fill="black"/>
<path fill-rule="evenodd" clip-rule="evenodd" d="M81.5646 122.806L81.2877 122.746L81.2439 122.737L80.9923 122.688L80.9151 122.676C80.2814 122.559 79.7275 122.467 79.2355 122.393C78.6837 122.31 78.1748 122.243 77.7052 122.185C77.4464 122.16 77.188 122.237 76.9852 122.4C76.7825 122.562 76.6513 122.798 76.6198 123.056C76.5883 123.314 76.6589 123.574 76.8166 123.781C76.9742 123.988 77.2065 124.125 77.4637 124.163C77.9279 124.22 78.4223 124.286 78.9391 124.363H78.9431C79.48 124.443 80.0223 124.532 80.5542 124.631L80.6102 124.643L80.8586 124.692L80.8667 124.694L81.1435 124.754C81.4009 124.807 81.6688 124.757 81.889 124.613C82.1093 124.47 82.264 124.245 82.3195 123.989C82.3751 123.732 82.3269 123.463 82.1855 123.242C82.0441 123.02 81.8209 122.864 81.5646 122.806Z" fill="black"/>
<path fill-rule="evenodd" clip-rule="evenodd" d="M70.9889 117.806C71.1199 117.806 71.2496 117.781 71.3706 117.73C71.4916 117.68 71.6016 117.607 71.6942 117.514C71.7868 117.422 71.8603 117.312 71.9105 117.191C71.9606 117.07 71.9864 116.94 71.9864 116.809V113.257C71.9829 112.995 71.8763 112.744 71.6896 112.56C71.5029 112.376 71.2512 112.273 70.989 112.273C70.7267 112.273 70.475 112.376 70.2884 112.56C70.1017 112.744 69.9951 112.995 69.9916 113.257V116.809C69.9916 117.073 70.0967 117.327 70.2837 117.514C70.4707 117.701 70.7244 117.806 70.9889 117.806Z" fill="black"/>
<path fill-rule="evenodd" clip-rule="evenodd" d="M133.374 43.2057C132.73 41.8544 131.716 40.7134 130.449 39.9146C129.183 39.1157 127.716 38.6918 126.219 38.6918C124.722 38.6918 123.256 39.1157 121.989 39.9146C120.723 40.7134 119.709 41.8544 119.064 43.2057C117.981 42.43 116.705 41.968 115.376 41.8703C114.048 41.7726 112.718 42.043 111.533 42.6518C110.348 43.2607 109.354 44.1844 108.659 45.3215C107.965 46.4585 107.598 47.765 107.598 49.0972C107.599 49.4065 107.62 49.7154 107.661 50.0222C107.696 50.2992 107.747 50.574 107.814 50.845C107.853 51.0786 107.972 51.291 108.153 51.4443C108.333 51.5976 108.562 51.6818 108.799 51.6818H143.64V51.6788C143.86 51.6786 144.074 51.6054 144.248 51.4707C144.422 51.336 144.546 51.1473 144.602 50.9343C144.68 50.635 144.739 50.331 144.778 50.0243C144.818 49.717 144.839 49.4076 144.841 49.0977C144.841 48.1468 144.654 47.2051 144.29 46.3267C143.926 45.4482 143.392 44.6503 142.719 43.9786L142.717 43.977L142.715 43.9745L142.713 43.9724C141.5 42.7588 139.895 42.0156 138.185 41.8751C136.474 41.7347 134.77 42.2063 133.374 43.2057ZM137.593 43.8438C138.282 43.8423 138.965 43.9771 139.603 44.2405C140.24 44.5039 140.819 44.8906 141.307 45.3785L141.311 45.3825C141.798 45.87 142.185 46.449 142.448 47.0864C142.712 47.7237 142.847 48.4069 142.845 49.0965C142.846 49.2935 142.836 49.4904 142.816 49.6863H109.622C109.601 49.4904 109.592 49.2935 109.593 49.0965C109.591 48.0319 109.912 46.9919 110.515 46.1143C111.117 45.2366 111.972 44.5629 112.967 44.1824C113.961 43.802 115.047 43.7327 116.082 43.9838C117.116 44.235 118.05 44.7946 118.759 45.5886C118.88 45.7228 119.035 45.8216 119.208 45.8744C119.381 45.9272 119.565 45.932 119.74 45.8884C119.915 45.8448 120.075 45.7543 120.203 45.6267C120.331 45.4991 120.421 45.3391 120.465 45.1639C120.787 43.8817 121.529 42.7438 122.571 41.9308C123.614 41.1178 124.898 40.6763 126.22 40.6763C127.542 40.6763 128.826 41.1178 129.869 41.9308C130.911 42.7438 131.652 43.8817 131.974 45.1639C132.019 45.3404 132.11 45.5015 132.24 45.6296C132.369 45.7576 132.531 45.8478 132.708 45.8904C132.885 45.9329 133.07 45.9262 133.243 45.8709C133.417 45.8155 133.572 45.7138 133.691 45.5767C134.182 45.0286 134.784 44.5908 135.456 44.292C136.129 43.9932 136.857 43.8408 137.593 43.8438Z" fill="black"/>
</g>
<defs>
<clipPath id="clip0_3_194">
<rect width="200" height="200" fill="white"/>
</clipPath>
</defs>
</svg>
