<svg width="197" height="200" viewBox="0 0 197 200" fill="none" xmlns="http://www.w3.org/2000/svg">
<g clip-path="url(#clip0_3_187)">
<path fill-rule="evenodd" clip-rule="evenodd" d="M98.5769 12.0572C98.4253 11.954 98.2484 11.8961 98.0662 11.8901C97.8841 11.8841 97.7039 11.9302 97.5461 12.0233L60.5628 33.8021L23.6649 55.5337C23.4935 55.6127 23.348 55.7404 23.246 55.9017C23.144 56.0629 23.0897 56.2507 23.0898 56.4426V143.56H23.0946C23.0945 143.735 23.1396 143.906 23.2253 144.058C23.3111 144.209 23.4344 144.334 23.5828 144.421L60.5666 166.2L97.5501 187.979C97.6976 188.065 97.8647 188.111 98.0348 188.111C98.205 188.111 98.3721 188.065 98.5196 187.979L135.503 166.199L172.405 144.469C172.576 144.39 172.722 144.262 172.824 144.101C172.926 143.94 172.98 143.752 172.98 143.56V56.4418H172.975C172.975 56.2672 172.93 56.0956 172.844 55.9445C172.759 55.7934 172.635 55.668 172.487 55.581L135.503 33.8021L98.5769 12.0572ZM98.0367 14.0311L117.46 25.4694H78.6137L98.0367 14.0311ZM61.5363 35.5234L61.5392 35.5215V35.5234L75.2256 27.4634H120.847L134.534 35.5234L143.238 40.6492H110.177C109.941 37.7228 108.693 34.9771 106.657 32.9013L106.653 32.8976C105.522 31.7425 104.178 30.8261 102.699 30.2009C101.221 29.5757 99.6355 29.2539 98.0347 29.2539C96.4338 29.2539 94.8487 29.5757 93.3698 30.2009C91.891 30.8261 90.5474 31.7425 89.416 32.8976L89.4122 32.9013C87.376 34.9771 86.1285 37.7228 85.8918 40.6492H52.832L61.5363 35.5234ZM141.001 132.76C141.05 132.641 141.075 132.514 141.076 132.385V119.295L145.638 123.119C145.737 123.202 145.851 123.264 145.973 123.302C146.096 123.34 146.224 123.353 146.352 123.34C146.479 123.328 146.603 123.29 146.716 123.228C146.828 123.167 146.928 123.083 147.01 122.983C147.091 122.882 147.152 122.766 147.189 122.641C147.226 122.516 147.239 122.385 147.227 122.255C147.214 122.125 147.177 121.999 147.117 121.884C147.057 121.769 146.975 121.667 146.876 121.584L141.076 116.723V110.007L145.638 113.831C145.737 113.915 145.851 113.978 145.974 114.017C146.096 114.056 146.225 114.069 146.353 114.057C146.481 114.045 146.606 114.007 146.719 113.945C146.832 113.884 146.933 113.8 147.015 113.699C147.096 113.598 147.157 113.481 147.195 113.356C147.232 113.23 147.244 113.099 147.231 112.968C147.219 112.838 147.181 112.711 147.12 112.596C147.059 112.481 146.976 112.379 146.876 112.296L142.634 108.741H156.942L151.648 113.176C151.548 113.259 151.465 113.361 151.404 113.476C151.343 113.591 151.305 113.718 151.292 113.848C151.28 113.979 151.292 114.11 151.329 114.236C151.367 114.361 151.428 114.478 151.509 114.579C151.591 114.68 151.691 114.764 151.805 114.825C151.918 114.887 152.043 114.925 152.171 114.937C152.298 114.949 152.427 114.936 152.55 114.897C152.673 114.858 152.787 114.795 152.886 114.711L157.448 110.887V117.605L151.648 122.466C151.448 122.633 151.322 122.875 151.297 123.137C151.272 123.399 151.35 123.661 151.514 123.864C151.678 124.068 151.915 124.197 152.172 124.222C152.429 124.248 152.686 124.168 152.886 124.001L157.448 120.177V126.893L151.648 131.754C151.448 131.921 151.322 132.163 151.297 132.425C151.272 132.687 151.35 132.949 151.514 133.153C151.678 133.356 151.915 133.485 152.172 133.51C152.429 133.536 152.686 133.456 152.886 133.289L157.448 129.465V141.318L141.001 132.76ZM92.7303 144.623V144.631L92.7284 144.67L92.7268 144.672V144.691C92.4922 149.14 90.5384 153.313 87.2934 156.296C84.0484 159.279 79.7767 160.828 75.4139 160.605H75.4105L75.3678 160.603L75.3668 160.601H75.3483C70.986 160.362 66.8944 158.369 63.9698 155.059C61.0453 151.749 59.5262 147.391 59.7454 142.941V142.937L59.7478 142.894L59.7493 142.893V142.874C59.9448 139.133 61.3642 135.567 63.7807 132.745C64.0834 132.39 64.4028 132.051 64.7329 131.724C64.8282 131.629 64.9181 131.529 65.0157 131.437C65.8856 130.614 66.8395 129.889 67.861 129.274C68.0205 129.178 68.1873 129.094 68.3501 129.004C68.7031 128.807 69.061 128.619 69.4284 128.449C69.6366 128.353 69.8486 128.265 70.0609 128.177C70.386 128.043 70.7158 127.919 71.0502 127.805C71.2746 127.73 71.4989 127.658 71.7257 127.592C72.0741 127.491 72.4283 127.406 72.7856 127.328C73.0061 127.28 73.2256 127.228 73.4492 127.189C73.8486 127.12 74.2546 127.074 74.6627 127.035C74.8526 127.016 75.0386 126.988 75.2294 126.976C75.8398 126.937 76.4518 126.932 77.0626 126.961C77.2735 126.971 77.4768 127.004 77.6859 127.023C78.0342 127.054 78.3836 127.081 78.7248 127.133C78.9596 127.169 79.1869 127.226 79.4183 127.272C79.7141 127.331 80.0123 127.384 80.302 127.459C80.5461 127.522 80.7823 127.603 81.0216 127.677C81.2886 127.759 81.5576 127.837 81.8186 127.932C82.0624 128.021 82.2979 128.127 82.5364 128.227C82.7808 128.33 83.0269 128.43 83.2648 128.544C83.5028 128.659 83.7353 128.788 83.9681 128.914C84.1924 129.036 84.4188 129.155 84.6371 129.287C84.8675 129.426 85.0897 129.577 85.3129 129.727C85.5199 129.866 85.7262 130.004 85.9258 130.152C86.1445 130.314 86.3548 130.486 86.5643 130.658C86.7541 130.814 86.944 130.971 87.1274 131.135C87.3293 131.316 87.5243 131.504 87.7169 131.696C87.8921 131.869 88.0657 132.044 88.233 132.225C88.4184 132.425 88.597 132.631 88.7727 132.841C88.9333 133.032 89.091 133.226 89.2434 133.425C89.4079 133.64 89.5663 133.859 89.7206 134.082C89.8656 134.291 90.0061 134.504 90.142 134.721C90.2838 134.947 90.4205 135.176 90.5522 135.409C90.6807 135.638 90.8027 135.869 90.9209 136.104C91.0391 136.338 91.1537 136.574 91.2612 136.815C91.3719 137.062 91.4737 137.314 91.5719 137.568C91.6654 137.808 91.7572 138.048 91.84 138.293C91.9301 138.559 92.009 138.83 92.0861 139.102C92.1551 139.346 92.2242 139.59 92.2832 139.838C92.3498 140.119 92.4028 140.407 92.4557 140.695C92.501 140.943 92.5482 141.19 92.5826 141.441C92.6228 141.735 92.6464 142.032 92.6715 142.33C92.6928 142.585 92.7184 142.839 92.7284 143.097C92.7491 143.602 92.7555 144.109 92.7303 144.623ZM65.4069 127.38L56.9493 131.781V119.295L61.5123 123.119C61.611 123.202 61.7249 123.265 61.8475 123.304C61.9701 123.342 62.099 123.356 62.2267 123.343C62.3544 123.331 62.4785 123.293 62.5917 123.231C62.705 123.17 62.8052 123.086 62.8867 122.985C62.9682 122.884 63.0293 122.768 63.0665 122.643C63.1038 122.517 63.1164 122.386 63.1037 122.256C63.0909 122.125 63.0531 121.999 62.9924 121.884C62.9317 121.769 62.8492 121.667 62.7498 121.584L56.9493 116.723V110.007L61.5123 113.831C61.7122 113.994 61.9673 114.071 62.2221 114.044C62.477 114.017 62.7112 113.889 62.874 113.687C63.0368 113.485 63.115 113.226 63.0917 112.965C63.0685 112.705 62.9456 112.465 62.7498 112.296L58.5077 108.741H78.7641C78.7536 108.78 78.7369 108.814 78.727 108.853C78.3891 110.341 78.4055 111.891 78.7747 113.371L77.9217 114.559C76.2719 114.889 74.7763 115.769 73.6705 117.06L65.5271 127.345C65.4863 127.354 65.4462 127.365 65.4069 127.38ZM49.4445 42.6444H58.2109L51.1874 55.8296H27.0545L49.4445 42.6444ZM85.8877 42.6444C86.1046 45.6037 87.3552 48.3853 89.4124 50.4837L89.4162 50.4878C91.0636 52.1713 93.1502 53.3371 95.4281 53.8466C97.7059 54.3561 100.079 54.1878 102.266 53.3618C104.453 52.5358 106.362 51.0868 107.765 49.187C109.168 47.2871 110.007 45.0163 110.182 42.6444H135.212L128.188 55.8296H67.8828L60.8593 42.6444H85.8877ZM87.7961 41.6927C87.7978 39.2786 88.62 36.9397 90.1227 35.0745C91.6253 33.2094 93.7155 31.9333 96.037 31.4636C98.3586 30.9939 100.768 31.3597 102.855 32.4987C104.942 33.6377 106.577 35.4795 107.482 37.7102C108.387 39.9409 108.505 42.4226 107.818 44.7326C107.13 47.0425 105.678 49.0379 103.71 50.3787C101.742 51.7196 99.379 52.3229 97.0237 52.086C94.6683 51.8492 92.4663 50.7867 90.7927 49.0796C89.841 48.1102 89.0863 46.9585 88.5721 45.6908C88.0578 44.4231 87.7941 43.0646 87.7961 41.6927ZM159.045 89.4378C158.87 89.2914 158.651 89.2114 158.425 89.2114C158.199 89.2114 157.98 89.2914 157.806 89.4378L151.648 94.5986C151.448 94.766 151.322 95.0074 151.297 95.2697C151.272 95.532 151.35 95.7937 151.514 95.9972C151.678 96.2008 151.915 96.3295 152.172 96.355C152.429 96.3806 152.686 96.3009 152.886 96.1335L157.448 92.3097V99.0277L151.648 103.889C151.549 103.972 151.467 104.074 151.407 104.189C151.347 104.304 151.31 104.43 151.297 104.56C151.285 104.69 151.298 104.821 151.335 104.946C151.372 105.07 151.433 105.187 151.514 105.287C151.596 105.388 151.696 105.472 151.809 105.533C151.921 105.594 152.045 105.632 152.172 105.645C152.3 105.658 152.428 105.645 152.551 105.607C152.673 105.568 152.787 105.506 152.886 105.423L157.448 101.6V106.746H141.076V100.718L145.638 104.541C145.737 104.625 145.851 104.688 145.974 104.727C146.096 104.766 146.225 104.78 146.353 104.767C146.481 104.755 146.606 104.717 146.719 104.656C146.832 104.594 146.933 104.51 147.015 104.409C147.096 104.308 147.157 104.191 147.195 104.066C147.232 103.941 147.244 103.809 147.231 103.678C147.219 103.548 147.181 103.422 147.12 103.306C147.059 103.191 146.976 103.089 146.876 103.006L141.076 98.1457V91.4294L145.638 95.2532C145.838 95.4206 146.095 95.5003 146.352 95.4748C146.609 95.4492 146.846 95.3205 147.01 95.117C147.174 94.9134 147.252 94.6517 147.227 94.3895C147.202 94.1272 147.076 93.8857 146.876 93.7183L141.076 88.8576V82.1404L145.638 85.964C145.737 86.048 145.851 86.1111 145.974 86.1499C146.096 86.1887 146.225 86.2024 146.353 86.1901C146.481 86.1779 146.606 86.1399 146.719 86.0785C146.832 86.017 146.933 85.9333 147.015 85.8321C147.096 85.7309 147.157 85.6142 147.195 85.4888C147.232 85.3634 147.244 85.2317 147.231 85.1013C147.219 84.9709 147.181 84.8444 147.12 84.7291C147.059 84.6138 146.976 84.5119 146.876 84.4293L140.716 79.2676C140.542 79.1214 140.323 79.0416 140.097 79.0418C139.871 79.042 139.652 79.1223 139.477 79.2688L133.32 84.4293C133.122 84.5974 132.998 84.8383 132.974 85.0995C132.95 85.3608 133.028 85.6211 133.191 85.8237C133.355 86.0264 133.59 86.1549 133.846 86.1812C134.102 86.2074 134.358 86.1294 134.557 85.964L139.12 82.1404V88.8572L133.32 93.7183C133.221 93.8012 133.139 93.9032 133.079 94.0183C133.019 94.1335 132.981 94.2596 132.969 94.3895C132.944 94.6517 133.022 94.9134 133.186 95.117C133.35 95.3205 133.587 95.4492 133.844 95.4748C134.101 95.5003 134.358 95.4206 134.557 95.2532L139.12 91.4292V98.1463L133.32 103.007C133.122 103.175 132.998 103.416 132.974 103.677C132.95 103.939 133.028 104.199 133.191 104.402C133.355 104.604 133.59 104.733 133.846 104.759C134.102 104.785 134.358 104.707 134.557 104.542L139.12 100.718V106.745H126.089L113.694 87.1978L119.944 75.4669L126.854 62.4943L130.958 67.5145C131.123 67.717 131.36 67.8442 131.617 67.8683C131.874 67.8924 132.13 67.8114 132.329 67.643C132.376 67.603 132.419 67.5585 132.458 67.5101L136.535 62.5161L140.614 67.5151C140.779 67.7175 141.016 67.8447 141.273 67.8688C141.531 67.8929 141.786 67.8119 141.985 67.6436C142.032 67.6033 142.075 67.5589 142.115 67.5107L146.216 62.4941L153.127 75.4667L161.799 91.7461L159.045 89.4378ZM116.274 106.521C116.132 106.314 115.98 106.116 115.818 105.926C115.72 105.812 115.619 105.703 115.514 105.597C115.45 105.531 115.393 105.458 115.327 105.395L115.325 105.393L115.327 105.391C115.21 105.281 115.08 105.187 114.956 105.085C114.87 105.013 114.785 104.937 114.695 104.869C114.398 104.644 114.086 104.442 113.762 104.263C113.744 104.254 113.727 104.248 113.71 104.239C113.392 104.071 113.063 103.924 112.726 103.799C112.69 103.785 112.657 103.765 112.621 103.752C112.562 103.73 112.497 103.722 112.438 103.702C112.279 103.649 112.124 103.587 111.96 103.542C111.819 103.503 111.67 103.487 111.526 103.454C111.349 103.415 111.175 103.377 110.995 103.348C110.707 103.302 110.416 103.274 110.121 103.253C109.945 103.241 109.771 103.223 109.594 103.22C109.274 103.215 108.952 103.234 108.629 103.259C108.472 103.271 108.317 103.272 108.159 103.291C107.697 103.346 107.238 103.432 106.786 103.548C106.766 103.553 106.746 103.554 106.727 103.559C106.316 103.668 105.913 103.804 105.519 103.965C105.44 103.996 105.365 104.035 105.287 104.069C105.169 104.12 105.057 104.177 104.941 104.232C104.799 104.301 104.651 104.357 104.512 104.432L112.634 89.1871L123.767 106.746H116.445C116.394 106.665 116.327 106.599 116.274 106.521ZM115.055 114.21C114.936 114.21 114.814 114.223 114.693 114.226C114.419 114.234 114.146 114.242 113.869 114.264C113.677 114.278 113.486 114.301 113.294 114.322C113.032 114.351 112.771 114.381 112.509 114.422C112.298 114.454 112.089 114.496 111.878 114.536C111.636 114.583 111.395 114.63 111.154 114.687C110.924 114.741 110.698 114.802 110.471 114.865C110.329 114.904 110.185 114.934 110.044 114.977C109.967 115 109.894 115.031 109.818 115.055C109.73 115.083 109.639 115.103 109.551 115.133C109.401 115.183 109.256 115.247 109.107 115.302C108.899 115.377 108.695 115.452 108.492 115.535C108.256 115.631 108.026 115.735 107.796 115.841C107.602 115.931 107.41 116.02 107.221 116.117C106.993 116.233 106.774 116.356 106.554 116.482C106.375 116.585 106.197 116.688 106.023 116.797C105.81 116.932 105.607 117.073 105.404 117.217C105.303 117.289 105.194 117.352 105.096 117.426L104.826 114.341C104.832 113.8 104.964 113.267 105.211 112.788C105.458 112.308 105.814 111.895 106.247 111.583C106.805 111.149 107.43 110.815 108.097 110.594C108.785 110.36 109.504 110.23 110.229 110.211C110.802 110.196 111.374 110.271 111.925 110.433C111.976 110.449 112.036 110.453 112.087 110.471C112.249 110.534 112.407 110.61 112.558 110.698C112.653 110.747 112.763 110.782 112.85 110.839C112.958 110.921 113.059 111.013 113.153 111.112C113.257 111.192 113.355 111.281 113.445 111.377L113.447 111.38L115.464 114.191L115.466 114.192L115.48 114.212C115.4 114.21 115.317 114.217 115.236 114.217C115.175 114.216 115.116 114.21 115.055 114.21ZM115.021 110.205L114.964 110.133C114.788 109.934 114.595 109.752 114.387 109.59C114.271 109.489 114.178 109.365 114.053 109.276C113.806 109.115 113.546 108.976 113.276 108.86C113.149 108.8 113.038 108.716 112.904 108.664C112.569 108.545 112.225 108.454 111.876 108.391C111.781 108.372 111.694 108.333 111.597 108.318C111.132 108.245 110.662 108.214 110.191 108.225C109.269 108.248 108.355 108.411 107.479 108.709C106.602 109.001 105.78 109.443 105.048 110.017C104.926 110.114 104.829 110.233 104.715 110.337C104.517 110.507 104.329 110.688 104.153 110.881C104.033 111.021 103.949 111.183 103.844 111.333C103.705 111.513 103.578 111.702 103.462 111.899C103.386 112.07 103.319 112.245 103.262 112.424C103.168 112.631 103.089 112.844 103.024 113.062C102.99 113.258 102.967 113.457 102.955 113.656C102.914 113.877 102.888 114.101 102.877 114.326C102.568 113.787 102.331 113.208 102.174 112.604C101.935 111.701 101.949 110.747 102.214 109.852C102.449 109.129 102.83 108.463 103.33 107.898C103.395 107.821 103.459 107.743 103.528 107.669C103.593 107.599 103.647 107.522 103.716 107.454C103.802 107.369 103.897 107.291 103.988 107.21C104.185 107.033 104.391 106.867 104.605 106.714C104.718 106.634 104.833 106.557 104.95 106.483C105.197 106.328 105.452 106.187 105.714 106.06C105.825 106.005 105.934 105.946 106.048 105.897C106.416 105.735 106.796 105.6 107.183 105.494L107.21 105.485C107.231 105.48 107.251 105.478 107.272 105.473C107.634 105.381 108.001 105.312 108.372 105.266C108.507 105.25 108.642 105.249 108.777 105.239C109.029 105.22 109.279 105.204 109.527 105.207C109.684 105.21 109.838 105.225 109.993 105.236C110.215 105.252 110.436 105.272 110.653 105.307C110.81 105.332 110.964 105.365 111.118 105.4C111.297 105.44 111.472 105.489 111.645 105.542C112.007 105.65 112.36 105.79 112.698 105.96C112.754 105.989 112.815 106.008 112.869 106.038C113.233 106.242 113.574 106.486 113.884 106.767C113.931 106.808 113.972 106.855 114.017 106.899C114.068 106.947 114.116 106.997 114.164 107.047C114.375 107.266 114.566 107.505 114.734 107.759C114.803 107.865 114.879 107.964 114.941 108.076C115.168 108.474 115.343 108.901 115.459 109.346C115.598 109.911 115.661 110.492 115.646 111.074L115.021 110.205ZM93.1155 113.665C93.1036 113.462 93.0802 113.261 93.0454 113.061C92.9845 112.858 92.9107 112.66 92.8245 112.467C92.7631 112.273 92.6902 112.082 92.6064 111.896C92.5095 111.735 92.4043 111.579 92.2913 111.43C92.1768 111.239 92.0513 111.055 91.9154 110.879C91.8243 110.772 91.7084 110.685 91.6093 110.583C91.425 110.382 91.2287 110.192 91.0214 110.016C90.289 109.443 89.4668 109.001 88.5897 108.709C87.7144 108.411 86.8003 108.247 85.8777 108.225C85.4073 108.214 84.9368 108.245 84.4718 108.318C84.3741 108.333 84.2871 108.372 84.191 108.391C83.8424 108.454 83.4995 108.545 83.1654 108.664C83.0289 108.717 82.9151 108.802 82.7846 108.865C82.5176 108.979 82.2606 109.117 82.0165 109.276C81.895 109.378 81.779 109.488 81.6688 109.603C81.4658 109.762 81.2772 109.939 81.1055 110.133L81.0487 110.205L80.4259 111.072C80.4115 110.49 80.4744 109.909 80.6128 109.344C80.7293 108.9 80.9034 108.473 81.1305 108.075C81.1932 107.963 81.2686 107.862 81.3395 107.756C81.507 107.502 81.6968 107.265 81.9066 107.046C81.9556 106.996 82.0044 106.945 82.0553 106.896C82.1 106.854 82.1416 106.807 82.1872 106.766C82.4976 106.485 82.8378 106.241 83.2015 106.037C83.2579 106.007 83.3209 105.986 83.3784 105.957C83.7144 105.788 84.0639 105.649 84.4231 105.541C84.5991 105.487 84.777 105.438 84.9591 105.397C85.1094 105.363 85.2599 105.331 85.4136 105.306C85.6335 105.271 85.8577 105.251 86.0832 105.235C86.2363 105.224 86.3881 105.208 86.5433 105.206C86.7907 105.202 87.0409 105.219 87.2915 105.238C87.4277 105.248 87.5631 105.249 87.6996 105.265C88.0699 105.311 88.4371 105.38 88.7989 105.472C88.8192 105.477 88.84 105.479 88.8603 105.484L88.8879 105.493C89.2751 105.599 89.6542 105.733 90.0222 105.895C90.1371 105.945 90.2466 106.005 90.3587 106.06C90.6196 106.186 90.8736 106.327 91.1196 106.482C91.2369 106.556 91.352 106.633 91.4647 106.713C91.6784 106.866 91.8838 107.031 92.0799 107.207C92.1724 107.289 92.268 107.368 92.356 107.455C92.4223 107.52 92.4754 107.595 92.5387 107.663C92.6078 107.738 92.6713 107.816 92.7367 107.894C93.2388 108.46 93.6201 109.127 93.8566 109.852C94.1217 110.748 94.1355 111.701 93.8963 112.605C93.7388 113.208 93.5022 113.787 93.1929 114.327C93.182 114.105 93.1559 113.884 93.1155 113.665ZM92.7876 125.791L92.7636 135.019L92.7598 135.111L92.7643 135.134V135.382C92.6219 135.091 92.4614 134.812 92.3049 134.529C92.2968 134.511 92.2977 134.49 92.2877 134.472C92.2777 134.453 92.2583 134.444 92.2487 134.426C92.1786 134.302 92.1149 134.173 92.0416 134.05C92.0212 134.016 91.9976 133.984 91.9771 133.95C91.7113 133.508 91.4266 133.079 91.1268 132.662C91.0348 132.535 90.937 132.412 90.8421 132.287C90.5991 131.966 90.348 131.652 90.0854 131.348C90.0293 131.283 89.9818 131.212 89.924 131.148C89.8662 131.084 89.8005 131.025 89.7416 130.961C89.6341 130.843 89.5345 130.718 89.4241 130.603C89.2843 130.458 89.1307 130.327 88.9856 130.186C88.8151 130.02 88.645 129.854 88.4679 129.693C88.2116 129.461 87.9462 129.241 87.6774 129.024C87.4934 128.876 87.3112 128.726 87.1217 128.584C86.8434 128.376 86.5557 128.183 86.2654 127.99C86.0689 127.86 85.8751 127.726 85.6734 127.605C85.3745 127.423 85.0658 127.258 84.756 127.093C84.5489 126.982 84.3437 126.867 84.1311 126.764C83.8131 126.61 83.4852 126.476 83.157 126.34C82.9392 126.25 82.7256 126.154 82.5037 126.072C82.1644 125.947 81.8158 125.844 81.4682 125.74C81.2456 125.673 81.0275 125.596 80.8013 125.538C80.4337 125.442 80.0568 125.373 79.6805 125.3C79.4632 125.258 79.2508 125.204 79.0311 125.17C78.6048 125.104 78.1693 125.068 77.7334 125.032C77.567 125.018 77.4055 124.988 77.2383 124.979C77.1954 124.973 77.1523 124.97 77.109 124.97H77.1071V124.973C76.437 124.942 75.7657 124.949 75.0962 124.992C74.8909 125.005 74.6909 125.037 74.4871 125.057C74.0211 125.101 73.5578 125.154 73.1019 125.234C72.8639 125.275 72.6314 125.331 72.3966 125.382C71.9812 125.472 71.57 125.571 71.165 125.689C70.9277 125.758 70.6942 125.835 70.4609 125.913C70.0664 126.046 69.6783 126.192 69.2966 126.351C69.1677 126.403 69.0314 126.442 68.9038 126.498L68.5922 126.64L75.1908 118.307C76.1223 117.27 77.3807 116.599 78.7472 116.41C79.2471 116.312 79.7529 116.249 80.2611 116.221C80.2922 116.219 80.3243 116.22 80.3555 116.218C80.839 116.197 81.3232 116.202 81.8061 116.233C81.8938 116.238 81.9803 116.238 82.0684 116.245C82.5872 116.285 83.1118 116.354 83.6362 116.448C83.7475 116.468 83.8586 116.496 83.9701 116.519C84.3908 116.604 84.8091 116.706 85.2249 116.825C85.366 116.865 85.5072 116.904 85.6473 116.948C86.1132 117.095 86.5729 117.257 87.018 117.444C87.0397 117.453 87.0627 117.46 87.0843 117.469C87.5345 117.663 87.9746 117.881 88.4028 118.122C88.5359 118.196 88.6632 118.275 88.7925 118.352C89.0976 118.536 89.3902 118.73 89.6703 118.936C89.7842 119.019 89.9011 119.099 90.0103 119.186C90.3486 119.452 90.6686 119.741 90.9682 120.052C91.5268 120.589 91.9756 121.233 92.2887 121.948C92.6018 122.663 92.773 123.433 92.7924 124.216L92.7876 125.791ZM79.7975 106.52C79.7431 106.598 79.6767 106.665 79.6249 106.746H72.3018L83.4359 89.1871L91.5574 104.433C91.4179 104.358 91.2685 104.301 91.1259 104.232C91.0112 104.177 90.8999 104.12 90.7831 104.07C90.7051 104.036 90.6302 103.997 90.5513 103.966C90.1573 103.805 89.7538 103.669 89.3433 103.56C89.3242 103.555 89.3045 103.554 89.2853 103.549C88.8327 103.433 88.3732 103.347 87.9096 103.291C87.7557 103.272 87.6039 103.272 87.4499 103.26C87.1221 103.235 86.7973 103.215 86.4739 103.221C86.2993 103.224 86.1288 103.242 85.9562 103.254C85.658 103.274 85.3638 103.302 85.0728 103.35C84.8954 103.378 84.723 103.416 84.5491 103.454C84.4038 103.487 84.2528 103.503 84.1102 103.542C83.9454 103.588 83.7884 103.65 83.6271 103.704C83.5692 103.724 83.5063 103.732 83.4491 103.753C83.4138 103.765 83.3822 103.785 83.3472 103.798C83.0051 103.925 82.6715 104.074 82.3487 104.245L82.3112 104.262C81.9854 104.442 81.6728 104.645 81.3758 104.87C81.286 104.938 81.2032 105.013 81.1169 105.084C80.9927 105.186 80.8619 105.281 80.7443 105.391L80.7464 105.393L80.7443 105.395C80.6779 105.458 80.622 105.532 80.5578 105.597C80.453 105.704 80.3507 105.813 80.2532 105.927C80.091 106.116 79.9389 106.314 79.7975 106.52ZM59.5355 106.746H56.9493V100.718L61.5123 104.541C61.7122 104.705 61.9673 104.781 62.2221 104.754C62.477 104.727 62.7112 104.599 62.874 104.397C63.0368 104.195 63.115 103.936 63.0917 103.676C63.0685 103.415 62.9456 103.175 62.7498 103.006L56.9493 98.1456V91.4292L61.5123 95.2532C61.712 95.4192 61.968 95.4978 62.2244 95.4717C62.4807 95.4457 62.7165 95.3171 62.8801 95.1141C63.0437 94.9112 63.1219 94.6504 63.0975 94.3888C63.073 94.1272 62.948 93.8861 62.7498 93.7183L56.9493 88.8572V82.1404L61.5123 85.964C61.7122 86.1275 61.9673 86.2041 62.2221 86.1771C62.477 86.1502 62.7112 86.0218 62.874 85.82C63.0368 85.6181 63.115 85.3589 63.0917 85.0986C63.0685 84.8383 62.9456 84.5979 62.7498 84.4293L56.5917 79.2688C56.4173 79.1223 56.1984 79.042 55.9724 79.0418C55.7464 79.0416 55.5274 79.1214 55.3527 79.2676L49.1931 84.4293C49.0933 84.5119 49.0106 84.6138 48.9496 84.7291C48.8886 84.8444 48.8506 84.9709 48.8377 85.1013C48.8248 85.2317 48.8374 85.3634 48.8746 85.4888C48.9118 85.6142 48.973 85.7309 49.0546 85.8321C49.1362 85.9333 49.2367 86.017 49.3501 86.0785C49.4636 86.1399 49.5879 86.1779 49.7158 86.1901C49.8437 86.2024 49.9727 86.1887 50.0954 86.1499C50.2181 86.1111 50.3321 86.048 50.4307 85.964L54.9936 82.1404V88.8576L49.1931 93.7183C48.9935 93.8857 48.8674 94.1272 48.8423 94.3895C48.8173 94.6517 48.8954 94.9134 49.0595 95.117C49.2236 95.3205 49.4603 95.4492 49.7175 95.4748C49.9746 95.5003 50.2312 95.4206 50.4307 95.2532L54.9936 91.4294V98.1464L49.1931 103.007C49.0933 103.09 49.0106 103.192 48.9496 103.307C48.8886 103.422 48.8506 103.549 48.8377 103.679C48.8248 103.81 48.8374 103.941 48.8746 104.067C48.9118 104.192 48.973 104.309 49.0546 104.41C49.1362 104.511 49.2367 104.595 49.3501 104.656C49.4636 104.718 49.5879 104.756 49.7158 104.768C49.8437 104.78 49.9727 104.767 50.0954 104.728C50.2181 104.689 50.3321 104.626 50.4307 104.542L54.9936 100.718V106.745H38.6213V101.6L43.1836 105.423C43.2824 105.506 43.3962 105.568 43.5186 105.606C43.641 105.644 43.7695 105.657 43.8968 105.645C44.0241 105.632 44.1477 105.594 44.2606 105.533C44.3735 105.471 44.4734 105.388 44.5547 105.287C44.6359 105.186 44.6969 105.07 44.7342 104.945C44.7715 104.82 44.7843 104.689 44.7719 104.56C44.7595 104.43 44.7222 104.304 44.662 104.188C44.6019 104.073 44.5201 103.971 44.4213 103.888L38.6213 99.0277V92.3106L43.1836 96.1344C43.3832 96.3018 43.6397 96.3815 43.8969 96.3559C44.1541 96.3304 44.3907 96.2017 44.5548 95.9981C44.719 95.7946 44.7971 95.5329 44.772 95.2706C44.747 95.0083 44.6208 94.7669 44.4213 94.5995L38.2638 89.4386C38.0891 89.2923 37.8702 89.2123 37.6441 89.2123C37.4181 89.2123 37.1992 89.2923 37.0245 89.4386L34.2723 91.7445L42.9436 75.467L49.8544 62.4945L53.9577 67.5147C54.0493 67.6272 54.1643 67.7177 54.2942 67.7796C54.4242 67.8416 54.5659 67.8735 54.7093 67.8731C54.8528 67.8727 54.9943 67.8399 55.1239 67.7772C55.2535 67.7145 55.3679 67.6234 55.459 67.5103L59.5355 62.5161L63.6147 67.5151C63.7798 67.7175 64.0171 67.8448 64.2742 67.8689C64.5313 67.893 64.7873 67.8119 64.9859 67.6436C65.0329 67.6033 65.0763 67.5589 65.1155 67.5107L69.2165 62.4941L76.1275 75.4667L82.3765 87.1974L69.9801 106.746H59.5355ZM25.0455 73.004H42.0383L41.2324 74.5167L35.0138 86.189H25.0455V73.004ZM120.101 71.009H103.429L98.8523 63.7909C98.7781 63.6738 98.6804 63.5742 98.5656 63.4985C98.3488 63.3551 98.085 63.3053 97.8322 63.3601C97.5794 63.415 97.3583 63.5699 97.2174 63.7909L92.6406 71.009H75.9696L68.9461 57.824H127.125L120.101 71.009ZM112.49 85.2973L104.694 73.004H119.038L118.232 74.5167L112.49 85.2973ZM77.8381 74.5167L77.0322 73.004H91.3758L83.581 85.2973L77.8381 74.5167ZM101.721 71.9769L98.0379 75.8129L94.3479 71.9769L98.0352 66.1629L101.721 71.9769ZM68.2156 60.616L64.3631 65.3282L60.2874 60.3335C60.2483 60.2852 60.2049 60.2407 60.1578 60.2005C59.9593 60.0321 59.7033 59.951 59.4462 59.9751C59.1891 59.9991 58.9518 60.1262 58.7866 60.3286L54.7056 65.3275L50.8554 60.6164L59.5355 44.3213L68.2156 60.616ZM83.2207 110.839C83.2738 110.803 83.3415 110.785 83.3984 110.752C84.1517 110.357 84.9936 110.17 85.8399 110.211C86.5653 110.23 87.2838 110.359 87.9718 110.594C88.6387 110.815 89.2643 111.149 89.8222 111.582C90.2562 111.894 90.6114 112.307 90.8586 112.787C91.1057 113.267 91.2379 113.799 91.2442 114.341L90.9743 117.428C90.8918 117.365 90.7993 117.312 90.7154 117.252C90.4881 117.088 90.2583 116.93 90.0177 116.779C89.8676 116.684 89.7135 116.595 89.5587 116.506C89.3192 116.367 89.0784 116.232 88.8291 116.106C88.6551 116.018 88.4777 115.935 88.2993 115.852C88.0577 115.74 87.8177 115.631 87.5704 115.531C87.3728 115.45 87.1735 115.377 86.9721 115.303C86.8202 115.248 86.6729 115.183 86.5195 115.132C86.4313 115.102 86.3398 115.082 86.2509 115.053C86.1757 115.03 86.1029 114.999 86.0266 114.976C85.8885 114.934 85.7457 114.905 85.6059 114.866C85.3745 114.802 85.1441 114.739 84.9104 114.684C84.6768 114.629 84.4421 114.583 84.2067 114.538C83.9888 114.496 83.772 114.454 83.5535 114.42C83.2987 114.38 83.0457 114.351 82.7913 114.322C82.5917 114.3 82.3932 114.277 82.1946 114.262C81.9224 114.242 81.6541 114.233 81.3849 114.226C81.2622 114.223 81.1371 114.209 81.0151 114.209C80.9538 114.209 80.8943 114.215 80.833 114.215C80.7524 114.216 80.6696 114.209 80.5895 114.211L82.6231 111.38L82.6257 111.376C82.7012 111.297 82.7819 111.224 82.8672 111.156C82.9753 111.039 83.0936 110.933 83.2207 110.839ZM95.007 106.745L84.6409 87.2873L85.0896 86.5798L93.2632 73.6885L97.3358 77.923L97.3432 77.9308L97.3549 77.9429C97.5394 78.1276 97.7881 78.2301 98.0466 78.2278C98.3051 78.2255 98.5521 78.1187 98.7334 77.9308L102.806 73.6887L110.98 86.5796L111.429 87.287L101.064 106.746L95.007 106.745ZM154.839 74.5164L154.033 73.0037H171.025V86.189H161.057L154.839 74.5164ZM171.025 71.0087H152.97L145.946 57.8237H171.024L171.025 71.0087ZM145.216 60.6159L141.363 65.3282L137.287 60.3335C137.248 60.2852 137.205 60.2406 137.158 60.2005C136.959 60.0321 136.703 59.951 136.446 59.9751C136.189 59.9991 135.952 60.1263 135.787 60.3286L131.706 65.3275L127.855 60.6162L136.535 44.3213L145.216 60.6159ZM50.125 57.824L43.1015 71.009H25.0455V57.824H50.125ZM25.0455 100.001V88.1838H33.9518L25.0455 104.903V100.001ZM31.865 96.2632C31.9498 96.2321 32.0299 96.1887 32.1026 96.1344L36.6656 92.3104V99.0277L30.8651 103.889C30.7663 103.972 30.6845 104.073 30.6244 104.189C30.5642 104.304 30.5268 104.43 30.5144 104.56C30.5021 104.69 30.5149 104.821 30.5521 104.945C30.5894 105.07 30.6504 105.186 30.7316 105.287C30.8129 105.388 30.9128 105.471 31.0257 105.533C31.1386 105.594 31.2622 105.632 31.3895 105.645C31.5168 105.657 31.6453 105.644 31.7676 105.606C31.89 105.568 32.0038 105.506 32.1026 105.423L36.6656 101.6V106.746H26.2805L31.865 96.2632ZM38.6213 129.465L43.1836 133.289C43.3832 133.456 43.6397 133.536 43.8969 133.51C44.1541 133.485 44.3907 133.356 44.5548 133.153C44.719 132.949 44.7971 132.687 44.772 132.425C44.747 132.163 44.6208 131.921 44.4213 131.754L38.6213 126.893V120.177L43.1836 124.001C43.2824 124.084 43.3963 124.146 43.5187 124.184C43.641 124.222 43.7696 124.235 43.8969 124.222C44.0242 124.21 44.1479 124.171 44.2608 124.11C44.3736 124.049 44.4736 123.965 44.5548 123.864C44.6361 123.764 44.6971 123.648 44.7344 123.523C44.7717 123.398 44.7844 123.267 44.772 123.137C44.7596 123.007 44.7223 122.881 44.6621 122.766C44.6019 122.651 44.5201 122.549 44.4213 122.466L38.6213 117.605V110.889L43.1836 114.712C43.2823 114.796 43.3963 114.859 43.519 114.898C43.6417 114.937 43.7707 114.95 43.8986 114.938C44.0265 114.926 44.1508 114.888 44.2642 114.826C44.3777 114.765 44.4781 114.681 44.5597 114.58C44.6413 114.479 44.7025 114.362 44.7398 114.237C44.777 114.111 44.7895 113.98 44.7767 113.849C44.7638 113.719 44.7258 113.592 44.6648 113.477C44.6038 113.362 44.521 113.26 44.4213 113.177L39.1276 108.742H53.4355L49.1931 112.297C49.0933 112.38 49.0106 112.482 48.9496 112.597C48.8886 112.712 48.8506 112.839 48.8377 112.969C48.8248 113.1 48.8374 113.231 48.8746 113.357C48.9118 113.482 48.973 113.599 49.0546 113.7C49.1362 113.801 49.2367 113.885 49.3501 113.946C49.4636 114.008 49.5879 114.046 49.7158 114.058C49.8437 114.07 49.9727 114.057 50.0954 114.018C50.2181 113.979 50.3321 113.916 50.4307 113.832L54.9936 110.008V116.725L49.1931 121.585C49.0943 121.668 49.0125 121.77 48.9523 121.885C48.8921 122 48.8547 122.127 48.8423 122.256C48.8299 122.386 48.8427 122.517 48.88 122.642C48.9173 122.767 48.9783 122.883 49.0595 122.984C49.1408 123.085 49.2407 123.168 49.3536 123.23C49.4665 123.291 49.5901 123.329 49.7175 123.342C49.8448 123.354 49.9733 123.341 50.0957 123.303C50.2181 123.265 50.3319 123.203 50.4307 123.12L54.9936 119.297V132.387C54.9942 132.515 55.0195 132.643 55.0678 132.761L38.6222 141.32L38.6213 129.465ZM94.7324 127.402L94.734 126.788H101.335L101.353 134.114H94.7155L94.7324 127.402ZM94.739 124.793L94.7404 124.216C94.7253 122.327 94.028 120.51 92.7819 119.113L92.8854 117.925C94.2468 116.6 95.2452 114.935 95.7818 113.095C96.1116 111.838 96.0897 110.512 95.7188 109.268C95.6645 109.087 95.5906 108.916 95.5226 108.74H100.547C100.478 108.914 100.405 109.086 100.351 109.268C99.9797 110.512 99.9578 111.838 100.288 113.095C100.824 114.935 101.822 116.6 103.184 117.926L103.287 119.113C102.041 120.51 101.344 122.327 101.329 124.216L101.331 124.794L94.739 124.793ZM103.305 135.382L103.281 125.853L103.284 125.791L103.281 125.775L103.277 124.216C103.315 122.654 103.957 121.171 105.064 120.091C105.376 119.764 105.711 119.459 106.065 119.181C106.159 119.107 106.26 119.038 106.357 118.966C106.653 118.747 106.964 118.54 107.289 118.345C107.408 118.273 107.526 118.2 107.649 118.132C108.083 117.887 108.529 117.665 108.986 117.468L109.008 117.459C109.467 117.265 109.942 117.098 110.423 116.947C110.563 116.903 110.704 116.864 110.845 116.824C111.26 116.705 111.679 116.603 112.101 116.517C112.212 116.495 112.322 116.467 112.433 116.446C112.957 116.352 113.481 116.284 113.999 116.244C114.089 116.237 114.178 116.237 114.267 116.231C114.748 116.201 115.23 116.196 115.712 116.216C115.744 116.218 115.777 116.218 115.809 116.219C116.317 116.247 116.823 116.311 117.323 116.409C118.689 116.597 119.947 117.269 120.878 118.305L127.476 126.638L127.164 126.497C127.033 126.439 126.893 126.4 126.76 126.345C126.381 126.187 125.995 126.043 125.604 125.91C125.368 125.831 125.131 125.754 124.89 125.684C124.49 125.568 124.084 125.47 123.673 125.381C123.432 125.328 123.194 125.272 122.95 125.23C122.507 125.153 122.057 125.102 121.605 125.058C121.387 125.037 121.173 125.004 120.953 124.99C120.297 124.949 119.639 124.943 118.982 124.972C118.959 124.974 118.937 124.971 118.914 124.972C118.291 125.004 117.678 125.069 117.074 125.162C116.9 125.188 116.732 125.232 116.56 125.264C116.135 125.342 115.711 125.421 115.298 125.527C115.089 125.581 114.889 125.652 114.683 125.713C114.315 125.822 113.947 125.929 113.588 126.06C113.375 126.139 113.17 126.233 112.96 126.319C112.622 126.457 112.284 126.595 111.956 126.753C111.747 126.853 111.547 126.967 111.343 127.075C111.027 127.242 110.712 127.409 110.408 127.595C110.208 127.716 110.017 127.847 109.823 127.975C109.528 128.17 109.236 128.366 108.954 128.577C108.766 128.717 108.586 128.865 108.403 129.012C108.131 129.232 107.862 129.454 107.602 129.689C107.427 129.847 107.258 130.012 107.089 130.178C106.942 130.321 106.785 130.454 106.643 130.602C106.533 130.717 106.432 130.842 106.325 130.96C106.266 131.024 106.201 131.081 106.143 131.146C106.086 131.211 106.038 131.281 105.982 131.346C105.718 131.652 105.465 131.968 105.22 132.292C105.127 132.415 105.03 132.536 104.939 132.662C104.627 133.096 104.33 133.542 104.055 134.002L104.024 134.05C103.769 134.485 103.527 134.928 103.305 135.382ZM103.34 143.096C103.35 142.84 103.375 142.588 103.397 142.335C103.422 142.036 103.446 141.736 103.486 141.44C103.521 141.19 103.567 140.945 103.612 140.698C103.665 140.409 103.718 140.12 103.785 139.836C103.843 139.591 103.911 139.35 103.98 139.109C104.058 138.834 104.138 138.559 104.229 138.29C104.31 138.049 104.401 137.812 104.493 137.576C104.593 137.318 104.697 137.062 104.809 136.811C104.915 136.574 105.028 136.341 105.145 136.11C105.264 135.873 105.388 135.637 105.518 135.406C105.648 135.175 105.784 134.949 105.925 134.725C106.061 134.507 106.203 134.292 106.349 134.081C106.503 133.859 106.661 133.641 106.824 133.427C106.977 133.228 107.135 133.034 107.296 132.842C107.471 132.633 107.649 132.427 107.834 132.227C108.003 132.044 108.179 131.868 108.356 131.693C108.548 131.503 108.742 131.314 108.943 131.133C109.128 130.968 109.32 130.81 109.512 130.653C109.721 130.482 109.931 130.31 110.149 130.149C110.351 130 110.56 129.861 110.769 129.721C110.991 129.571 111.212 129.42 111.442 129.282C111.662 129.148 111.892 129.028 112.119 128.905C112.35 128.78 112.58 128.652 112.817 128.538C113.06 128.422 113.311 128.321 113.559 128.217C113.795 128.118 114.027 128.013 114.268 127.926C114.537 127.827 114.814 127.749 115.09 127.665C115.323 127.594 115.552 127.514 115.789 127.453C116.1 127.374 116.419 127.318 116.736 127.256C116.948 127.215 117.156 127.162 117.372 127.129C117.84 127.059 118.317 127.014 118.797 126.983C118.867 126.979 118.935 126.965 119.004 126.962C119.615 126.933 120.227 126.938 120.837 126.977C121.029 126.989 121.217 127.018 121.409 127.037C121.815 127.076 122.219 127.122 122.617 127.191C122.842 127.23 123.064 127.282 123.286 127.33C123.641 127.408 123.994 127.492 124.34 127.592C124.569 127.658 124.795 127.731 125.02 127.807C125.353 127.92 125.682 128.043 126.005 128.177C126.218 128.265 126.431 128.353 126.64 128.45C127.008 128.62 127.365 128.808 127.718 129.005C127.88 129.095 128.047 129.179 128.207 129.275C129.227 129.889 130.181 130.614 131.05 131.435C131.152 131.531 131.245 131.636 131.344 131.735C131.67 132.059 131.986 132.393 132.285 132.744C134.011 134.77 135.237 137.187 135.861 139.794C136.486 142.401 136.49 145.123 135.874 147.732C135.257 150.342 134.039 152.763 132.319 154.794C130.599 156.825 128.428 158.408 125.987 159.41C123.546 160.412 120.906 160.804 118.286 160.554C115.666 160.304 113.143 159.418 110.927 157.972C108.711 156.525 106.866 154.559 105.545 152.237C104.225 149.916 103.468 147.306 103.338 144.625C103.314 144.11 103.321 143.601 103.34 143.096ZM130.543 127.346L122.399 117.061C121.293 115.769 119.798 114.889 118.149 114.56L117.295 113.371C117.664 111.891 117.681 110.341 117.343 108.853C117.333 108.814 117.316 108.78 117.306 108.741H137.562L133.32 112.296C133.122 112.464 132.998 112.705 132.974 112.967C132.95 113.228 133.028 113.488 133.191 113.691C133.355 113.893 133.59 114.022 133.846 114.048C134.102 114.074 134.358 113.996 134.557 113.831L139.12 110.007V116.724L133.32 121.584C133.221 121.667 133.139 121.769 133.079 121.884C133.019 122 132.981 122.126 132.969 122.256C132.944 122.518 133.022 122.78 133.186 122.983C133.35 123.187 133.587 123.315 133.844 123.341C134.101 123.366 134.358 123.287 134.557 123.119L139.12 119.296V131.781L130.663 127.381C130.624 127.366 130.584 127.354 130.543 127.346ZM159.404 101.599L163.967 105.423C164.065 105.506 164.179 105.568 164.302 105.606C164.424 105.644 164.552 105.657 164.68 105.645C164.807 105.632 164.931 105.594 165.043 105.532C165.156 105.471 165.256 105.388 165.337 105.287C165.419 105.186 165.48 105.07 165.517 104.945C165.554 104.82 165.567 104.689 165.555 104.559C165.542 104.43 165.505 104.304 165.445 104.188C165.385 104.073 165.303 103.971 165.204 103.888L159.404 99.0277V92.3106L163.967 96.1344C164.04 96.1892 164.121 96.2329 164.206 96.2643L169.789 106.746H159.404V101.599ZM162.119 88.1838H171.023V104.901L162.119 88.1838ZM144.883 55.8292L137.86 42.6441H146.626L169.015 55.8292H144.883ZM25.0455 108.741H36.1588L30.8646 113.176C30.6687 113.345 30.5459 113.585 30.5226 113.846C30.4994 114.106 30.5776 114.365 30.7404 114.567C30.9032 114.769 31.1374 114.897 31.3922 114.924C31.6471 114.951 31.9022 114.875 32.1021 114.711L36.6651 110.887V117.604L30.8646 122.465C30.6663 122.633 30.5413 122.874 30.5169 123.135C30.4925 123.397 30.5706 123.658 30.7342 123.861C30.8979 124.064 31.1337 124.192 31.39 124.218C31.6464 124.244 31.9024 124.166 32.1021 124L36.6651 120.176V126.893L30.8646 131.753C30.6663 131.921 30.5413 132.162 30.5169 132.424C30.4925 132.685 30.5706 132.946 30.7342 133.149C30.8979 133.352 31.1337 133.481 31.39 133.507C31.6464 133.533 31.9024 133.454 32.1021 133.288L36.6651 129.464V142.336L29.9084 145.853L25.0455 142.989V108.741ZM134.534 164.478L98.0352 185.972L61.5373 164.478L31.9257 147.041L62.552 131.103L62.1496 131.611L62.1453 131.616C62.1253 131.649 62.1072 131.682 62.0912 131.717C59.5242 134.826 58.0189 138.703 57.803 142.762C57.7973 142.806 57.7945 142.85 57.7945 142.894L57.7966 142.895C57.5673 147.861 59.2722 152.717 62.5394 156.406C65.8066 160.095 70.3711 162.317 75.2377 162.587C75.2805 162.592 75.3237 162.595 75.3668 162.595L75.3678 162.593C80.236 162.827 84.9972 161.088 88.6135 157.756C92.2297 154.423 94.4078 149.768 94.6727 144.804C94.6783 144.76 94.6812 144.717 94.6812 144.673V144.67H94.6791C94.6998 144.228 94.6848 143.794 94.6755 143.358C94.6782 143.328 94.6927 143.303 94.6927 143.273L94.71 136.109H101.359L101.376 143.273C101.376 143.301 101.39 143.325 101.392 143.353C101.383 143.807 101.369 144.259 101.391 144.718C101.532 147.704 102.366 150.613 103.827 153.204C105.288 155.795 107.332 157.994 109.791 159.62C112.25 161.246 115.053 162.251 117.968 162.553C120.884 162.855 123.828 162.445 126.557 161.356C129.286 160.268 131.722 158.532 133.663 156.293C135.604 154.054 136.995 151.376 137.72 148.48C138.446 145.584 138.485 142.553 137.835 139.639C137.185 136.724 135.863 134.01 133.981 131.719C133.965 131.684 133.946 131.649 133.925 131.616L133.921 131.611L133.519 131.103L164.145 147.041L134.534 164.478ZM166.162 145.853L159.404 142.336V129.465L163.967 133.289C164.166 133.455 164.422 133.534 164.679 133.507C164.935 133.481 165.171 133.353 165.334 133.15C165.498 132.947 165.576 132.686 165.552 132.425C165.527 132.163 165.402 131.922 165.204 131.754L159.404 126.894V120.177L163.967 124.001C164.166 124.167 164.422 124.245 164.679 124.219C164.935 124.193 165.171 124.065 165.334 123.862C165.498 123.659 165.576 123.398 165.552 123.136C165.527 122.875 165.402 122.634 165.204 122.466L159.404 117.605V110.888L163.967 114.712C164.166 114.876 164.422 114.952 164.676 114.925C164.931 114.898 165.165 114.77 165.328 114.568C165.491 114.366 165.569 114.107 165.546 113.847C165.523 113.586 165.4 113.346 165.204 113.177L159.91 108.742H171.023V142.989L166.162 145.853Z" fill="black"/>
<path fill-rule="evenodd" clip-rule="evenodd" d="M183.073 50.4975C183.073 50.3232 183.028 50.1519 182.943 50.0008C182.857 49.8497 182.734 49.7241 182.587 49.6366L140.556 24.8839L140.555 24.886L140.552 24.8839L98.5195 0.132049C98.3721 0.0455326 98.2049 0 98.0348 0C97.8647 0 97.6975 0.0455326 97.5501 0.132049L55.5689 24.8538L55.5145 24.8839L13.551 49.5966C13.3842 49.6778 13.2434 49.8055 13.1449 49.965C13.0463 50.1244 12.9941 50.309 12.9943 50.4975V149.503H12.9972C12.9972 149.677 13.0422 149.849 13.1275 150C13.2128 150.151 13.3356 150.276 13.4835 150.364L55.5147 175.117L55.5157 175.115L55.5187 175.117L97.5501 199.869C97.6976 199.955 97.8647 200 98.0348 200C98.2049 200 98.372 199.955 98.5195 199.869L140.501 175.147L140.555 175.117L182.519 150.403C182.686 150.322 182.827 150.195 182.925 150.035C183.024 149.876 183.076 149.691 183.076 149.503V50.4975H183.073ZM181.12 100.001V148.93L139.578 173.395L139.53 173.426L98.0352 197.862L56.4909 173.397L56.492 173.396L14.95 148.929V51.0701L56.492 26.6053L56.5399 26.5747L98.0352 2.13883L139.579 26.6038L139.578 26.6053L181.12 51.0701V100.001Z" fill="black"/>
<path fill-rule="evenodd" clip-rule="evenodd" d="M76.851 131.186C73.9925 131.04 71.1728 131.91 68.8723 133.647C66.5719 135.384 64.9331 137.88 64.2352 140.712C63.5372 143.543 63.8234 146.533 65.0449 149.174C66.2663 151.814 68.3475 153.94 70.9338 155.191C73.5201 156.441 76.4515 156.738 79.2284 156.031C82.0053 155.324 84.4559 153.657 86.1627 151.313C87.8695 148.97 88.7268 146.095 88.5885 143.179C88.4503 140.263 87.325 137.486 85.4045 135.322C84.3163 134.091 83.0004 133.093 81.5325 132.383C80.0646 131.673 78.4736 131.267 76.851 131.186ZM83.2277 151.662C81.4405 153.313 79.1474 154.28 76.739 154.4C74.3306 154.52 71.9561 153.784 70.0202 152.318C68.0842 150.851 66.7066 148.746 66.1222 146.36C65.5377 143.974 65.7825 141.455 66.8149 139.232C67.8473 137.01 69.6034 135.221 71.7838 134.171C73.9643 133.121 76.4343 132.875 78.7727 133.475C81.1112 134.074 83.1735 135.482 84.6081 137.459C86.0427 139.436 86.7609 141.859 86.6402 144.315C86.5733 145.708 86.2374 147.075 85.6518 148.335C85.0662 149.596 84.2424 150.726 83.2277 151.662Z" fill="black"/>
<path fill-rule="evenodd" clip-rule="evenodd" d="M82.4089 143.101C82.1506 143.089 81.8981 143.182 81.7069 143.359C81.5156 143.537 81.4013 143.784 81.389 144.048C81.3554 144.738 81.1886 145.415 80.8984 146.039C80.6081 146.663 80.2001 147.223 79.6975 147.687C79.1949 148.15 78.6077 148.508 77.9695 148.74C77.3312 148.971 76.6544 149.072 75.9778 149.037C75.724 149.032 75.4782 149.128 75.2928 149.305C75.1074 149.482 74.997 149.726 74.985 149.985C74.973 150.243 75.0604 150.497 75.2287 150.691C75.3969 150.885 75.6327 151.004 75.8859 151.024C77.7684 151.118 79.6106 150.446 81.0076 149.155C82.4047 147.865 83.2424 146.061 83.3368 144.141C83.3488 143.878 83.2579 143.62 83.0839 143.425C82.9099 143.23 82.6671 143.114 82.4089 143.101Z" fill="black"/>
<path fill-rule="evenodd" clip-rule="evenodd" d="M119.219 156.38C122.077 156.527 124.897 155.657 127.197 153.921C129.498 152.184 131.137 149.687 131.835 146.856C132.533 144.025 132.247 141.034 131.026 138.394C129.805 135.754 127.724 133.627 125.138 132.377C122.551 131.126 119.62 130.829 116.843 131.536C114.066 132.242 111.615 133.909 109.908 136.253C108.201 138.596 107.344 141.47 107.482 144.386C107.62 147.302 108.745 150.079 110.665 152.244C111.753 153.474 113.069 154.473 114.537 155.183C116.005 155.893 117.596 156.3 119.219 156.38ZM112.841 135.905C114.629 134.254 116.922 133.286 119.33 133.166C121.739 133.047 124.113 133.783 126.049 135.249C127.985 136.715 129.363 138.821 129.947 141.207C130.532 143.593 130.287 146.112 129.255 148.334C128.222 150.557 126.466 152.346 124.286 153.396C122.105 154.446 119.635 154.692 117.297 154.092C114.958 153.493 112.896 152.085 111.461 150.108C110.026 148.131 109.308 145.708 109.429 143.252C109.496 141.858 109.832 140.492 110.417 139.231C111.003 137.971 111.827 136.84 112.841 135.905Z" fill="black"/>
<path fill-rule="evenodd" clip-rule="evenodd" d="M119.48 151.024C121.362 151.118 123.205 150.446 124.602 149.155C125.999 147.865 126.836 146.061 126.931 144.141C126.938 144.01 126.92 143.879 126.877 143.755C126.834 143.631 126.768 143.517 126.681 143.42C126.595 143.322 126.491 143.243 126.374 143.187C126.258 143.131 126.132 143.098 126.003 143.092C125.875 143.086 125.746 143.106 125.625 143.151C125.504 143.195 125.393 143.264 125.298 143.353C125.203 143.442 125.127 143.549 125.072 143.668C125.018 143.787 124.988 143.916 124.983 144.047C124.949 144.738 124.783 145.414 124.492 146.039C124.202 146.663 123.794 147.223 123.291 147.687C122.789 148.15 122.202 148.508 121.563 148.74C120.925 148.971 120.248 149.072 119.571 149.037C119.318 149.032 119.072 149.129 118.887 149.306C118.701 149.483 118.591 149.726 118.579 149.985C118.567 150.244 118.655 150.497 118.823 150.691C118.991 150.885 119.227 151.004 119.48 151.024Z" fill="black"/>
</g>
<defs>
<clipPath id="clip0_3_187">
<rect width="196.078" height="200" fill="white"/>
</clipPath>
</defs>
</svg>
