<svg width="200" height="200" viewBox="0 0 200 200" fill="none" xmlns="http://www.w3.org/2000/svg">
<g clip-path="url(#clip0_3_224)">
<path d="M186.735 50.4973C186.735 50.323 186.689 50.1517 186.602 50.0006C186.515 49.8496 186.39 49.724 186.239 49.6366L143.367 24.8837L143.366 24.8858L143.363 24.8837L100.49 0.131833C100.339 0.0454534 100.169 0 99.9953 0C99.8218 0 99.6514 0.0454534 99.5009 0.131833L56.6801 24.8537L56.6247 24.8837L13.822 49.5966C13.6519 49.6777 13.5083 49.8054 13.4078 49.9648C13.3073 50.1242 13.254 50.3089 13.2542 50.4973V149.503H13.2571C13.2572 149.677 13.303 149.848 13.39 149.999C13.477 150.15 13.6022 150.276 13.753 150.363L56.625 175.116L56.6261 175.114L56.6291 175.116L99.5009 199.869C99.6514 199.955 99.8218 200 99.9953 200C100.169 200 100.339 199.955 100.49 199.869L143.311 175.146L143.366 175.116L186.17 150.403C186.34 150.322 186.484 150.195 186.584 150.035C186.684 149.876 186.738 149.691 186.738 149.503V50.4973H186.735ZM184.743 99.9999V148.93L142.369 173.395L142.32 173.426L99.9959 197.862L57.6206 173.396L57.6216 173.395L15.249 148.93V51.0701L57.6216 26.6051L57.6706 26.5747L99.9959 2.13862L142.37 26.6035L142.369 26.6051L184.743 51.0701V99.9999Z" fill="black"/>
<path d="M100.548 12.0572C100.394 11.954 100.213 11.896 100.027 11.89C99.8416 11.884 99.6578 11.9302 99.4968 12.0233L61.7744 33.8014L61.7755 33.803L24.1388 55.5326C23.9638 55.6116 23.8154 55.7394 23.7113 55.9007C23.6072 56.0619 23.5518 56.2498 23.5519 56.4418V143.559H23.5568C23.5568 143.734 23.6028 143.905 23.6902 144.056C23.7776 144.208 23.9034 144.333 24.0548 144.42L61.7255 166.168L61.7744 166.199L99.4968 187.978L99.4979 187.976C99.6485 188.064 99.8195 188.11 99.9936 188.11C100.168 188.11 100.339 188.065 100.49 187.978L138.213 166.199L175.853 144.468C176.028 144.389 176.176 144.261 176.28 144.1C176.385 143.939 176.44 143.751 176.44 143.559V56.4418H176.435C176.435 56.2672 176.389 56.0956 176.302 55.9445C176.214 55.7934 176.088 55.668 175.937 55.581L138.213 33.8014L100.548 12.0572ZM25.5467 118.841L36.6646 115.051V149.407L25.5467 142.989V118.841ZM50.5316 110.324V157.413L38.6595 150.559V114.371L50.5316 110.324ZM62.7152 164.447L52.5257 158.565V109.643L64.4001 105.595V165.418L62.7705 164.477L62.7152 164.447ZM99.9967 185.97L94.1353 182.586V168.971C94.1319 168.709 94.0252 168.459 93.8386 168.274C93.6519 168.09 93.4002 167.987 93.1379 167.987C92.8757 167.987 92.624 168.09 92.4373 168.274C92.2506 168.459 92.144 168.709 92.1405 168.971V181.434L80.2642 174.577V170.476C80.2607 170.213 80.1541 169.963 79.9675 169.779C79.7808 169.595 79.5291 169.491 79.2668 169.491C79.0046 169.491 78.7529 169.595 78.5662 169.779C78.3795 169.963 78.2729 170.213 78.2694 170.476V173.425L66.3959 166.569V104.915L78.2694 100.867V133.805C78.2677 133.937 78.2922 134.068 78.3415 134.19C78.3908 134.313 78.464 134.425 78.5568 134.519C78.6496 134.613 78.7602 134.687 78.882 134.738C79.0039 134.789 79.1347 134.815 79.2668 134.815C79.3989 134.815 79.5297 134.789 79.6516 134.738C79.7735 134.687 79.884 134.613 79.9768 134.519C80.0696 134.425 80.1428 134.313 80.1922 134.19C80.2415 134.068 80.266 133.937 80.2642 133.805V100.188L92.1412 96.1391V100.087C92.1447 100.35 92.2513 100.6 92.438 100.784C92.6247 100.968 92.8764 101.072 93.1386 101.072C93.4009 101.072 93.6526 100.968 93.8393 100.784C94.0259 100.6 94.1326 100.35 94.136 100.087V95.4581L99.9798 93.4658L105.857 95.4688V106.088C105.861 106.35 105.967 106.601 106.154 106.785C106.341 106.969 106.592 107.072 106.855 107.072C107.117 107.072 107.369 106.969 107.555 106.785C107.742 106.601 107.849 106.35 107.852 106.088V96.1484L119.728 100.195V133.805C119.726 133.937 119.751 134.068 119.8 134.19C119.849 134.313 119.923 134.425 120.015 134.519C120.108 134.613 120.219 134.687 120.341 134.738C120.463 134.789 120.593 134.815 120.725 134.815C120.858 134.815 120.988 134.789 121.11 134.738C121.232 134.687 121.343 134.613 121.435 134.519C121.528 134.425 121.601 134.313 121.651 134.19C121.7 134.068 121.725 133.937 121.723 133.805V100.876L133.597 104.922V166.572L121.723 173.427V170.476C121.719 170.214 121.613 169.963 121.426 169.779C121.239 169.595 120.988 169.492 120.725 169.492C120.463 169.492 120.211 169.595 120.025 169.779C119.838 169.963 119.731 170.214 119.728 170.476V174.579L107.852 181.436V168.971C107.849 168.709 107.742 168.459 107.555 168.274C107.369 168.09 107.117 167.987 106.855 167.987C106.592 167.987 106.341 168.09 106.154 168.274C105.967 168.459 105.861 168.709 105.857 168.971V182.588L99.9967 185.97ZM137.224 164.477L135.591 165.42V105.601L147.465 109.648V158.565L137.224 164.477ZM161.333 114.373V150.559L149.461 157.413V110.328L161.333 114.373ZM163.327 149.407V115.053L174.445 118.841V142.989L163.327 149.407ZM174.445 99.9999V116.728L157.936 111.103C157.969 111.012 157.988 110.917 157.993 110.821V97.73L162.647 101.554C162.85 101.721 163.112 101.801 163.374 101.775C163.637 101.75 163.878 101.621 164.045 101.418C164.213 101.214 164.293 100.952 164.267 100.69C164.241 100.428 164.113 100.186 163.909 100.019L157.993 95.1583V88.4417L162.647 92.2653C162.748 92.3482 162.864 92.4104 162.989 92.4484C163.113 92.4865 163.245 92.4995 163.374 92.4869C163.504 92.4742 163.63 92.4361 163.746 92.3747C163.861 92.3133 163.963 92.2299 164.045 92.1291C164.128 92.0283 164.191 91.9122 164.229 91.7873C164.267 91.6625 164.28 91.5314 164.267 91.4015C164.254 91.2717 164.216 91.1456 164.155 91.0304C164.094 90.9153 164.01 90.8133 163.909 90.7304L157.993 85.8697V79.1527L162.647 82.9763C162.747 83.0602 162.864 83.1234 162.989 83.1622C163.114 83.201 163.246 83.2147 163.376 83.2024C163.507 83.1901 163.633 83.1522 163.749 83.0907C163.865 83.0293 163.967 82.9455 164.05 82.8443C164.134 82.7431 164.196 82.6265 164.234 82.5011C164.272 82.3756 164.285 82.244 164.272 82.1136C164.259 81.9832 164.22 81.8567 164.158 81.7414C164.095 81.6261 164.011 81.5242 163.909 81.4416L157.993 76.5807V69.8642L162.647 73.6878C162.747 73.7718 162.864 73.8349 162.989 73.8737C163.114 73.9125 163.246 73.9262 163.376 73.9139C163.507 73.9016 163.633 73.8637 163.749 73.8022C163.865 73.7408 163.967 73.6571 164.05 73.5559C164.134 73.4547 164.196 73.338 164.234 73.2126C164.272 73.0872 164.285 72.9555 164.272 72.8251C164.259 72.6947 164.22 72.5682 164.158 72.4529C164.095 72.3376 164.011 72.2357 163.909 72.1531L157.993 67.2917V60.5754L162.647 64.399C162.85 64.5664 163.112 64.6461 163.374 64.6206C163.637 64.595 163.878 64.4663 164.045 64.2628C164.213 64.0592 164.293 63.7975 164.267 63.5352C164.241 63.2729 164.113 63.0315 163.909 62.8641L157.626 57.7026C157.448 57.5564 157.225 57.4765 156.994 57.4767C156.764 57.4769 156.541 57.5571 156.363 57.7036L150.082 62.8641C149.981 62.947 149.898 63.049 149.836 63.1641C149.775 63.2793 149.737 63.4054 149.724 63.5352C149.711 63.6651 149.724 63.7962 149.762 63.921C149.8 64.0459 149.863 64.162 149.946 64.2628C150.028 64.3636 150.13 64.447 150.246 64.5084C150.361 64.5698 150.487 64.6079 150.617 64.6206C150.747 64.6332 150.878 64.6202 151.002 64.5821C151.127 64.5441 151.243 64.4819 151.344 64.399L155.998 60.5752V67.2917L150.082 72.1531C149.98 72.2357 149.896 72.3376 149.833 72.4529C149.771 72.5682 149.732 72.6947 149.719 72.8251C149.706 72.9555 149.719 73.0872 149.757 73.2126C149.795 73.338 149.857 73.4547 149.941 73.5559C150.024 73.6571 150.126 73.7408 150.242 73.8022C150.358 73.8637 150.484 73.9016 150.615 73.9139C150.745 73.9262 150.877 73.9125 151.002 73.8737C151.127 73.8349 151.244 73.7718 151.344 73.6878L155.998 69.864V76.5805L150.082 81.4416C149.98 81.5242 149.896 81.6261 149.833 81.7414C149.771 81.8567 149.732 81.9832 149.719 82.1136C149.706 82.244 149.719 82.3756 149.757 82.5011C149.795 82.6265 149.857 82.7431 149.941 82.8443C150.024 82.9455 150.126 83.0293 150.242 83.0907C150.358 83.1522 150.484 83.1901 150.615 83.2024C150.745 83.2147 150.877 83.201 151.002 83.1622C151.127 83.1234 151.244 83.0602 151.344 82.9763L155.998 79.1525V85.8695L150.082 90.7304C149.981 90.8133 149.898 90.9153 149.836 91.0304C149.775 91.1456 149.737 91.2717 149.724 91.4015C149.711 91.5314 149.724 91.6625 149.762 91.7873C149.8 91.9122 149.863 92.0283 149.946 92.1291C150.028 92.2299 150.13 92.3133 150.246 92.3747C150.361 92.4361 150.487 92.4742 150.617 92.4869C150.747 92.4995 150.878 92.4865 151.002 92.4484C151.127 92.4104 151.243 92.3482 151.344 92.2653L155.998 88.4417V95.1578L150.082 100.019C149.981 100.102 149.898 100.204 149.836 100.319C149.775 100.434 149.737 100.56 149.724 100.69C149.711 100.82 149.724 100.951 149.762 101.076C149.8 101.201 149.863 101.317 149.946 101.418C150.028 101.518 150.13 101.602 150.246 101.663C150.361 101.725 150.487 101.763 150.617 101.775C150.747 101.788 150.878 101.775 151.002 101.737C151.127 101.699 151.243 101.637 151.344 101.554L155.998 97.73V110.443L130.229 101.661C130.241 101.618 130.25 101.574 130.255 101.53V88.4396L134.91 92.2637C135.01 92.3476 135.126 92.4108 135.252 92.4496C135.377 92.4884 135.508 92.5021 135.639 92.4898C135.769 92.4775 135.896 92.4396 136.012 92.3781C136.128 92.3167 136.23 92.233 136.313 92.1318C136.396 92.0306 136.459 91.9139 136.497 91.7885C136.535 91.6631 136.548 91.5314 136.534 91.401C136.521 91.2706 136.483 91.1441 136.42 91.0288C136.358 90.9135 136.274 90.8116 136.172 90.729L130.255 85.8678V79.1521L134.91 82.9758C135.01 83.0597 135.126 83.1229 135.252 83.1617C135.377 83.2005 135.508 83.2141 135.639 83.2019C135.769 83.1896 135.896 83.1516 136.012 83.0902C136.128 83.0288 136.23 82.945 136.313 82.8438C136.396 82.7426 136.459 82.626 136.497 82.5005C136.535 82.3751 136.548 82.2434 136.534 82.1131C136.521 81.9827 136.483 81.8562 136.42 81.7409C136.358 81.6255 136.274 81.5237 136.172 81.4411L130.255 76.5805V69.8637L134.91 73.6875C135.113 73.8549 135.375 73.9346 135.637 73.909C135.899 73.8835 136.141 73.7548 136.308 73.5513C136.476 73.3477 136.555 73.086 136.53 72.8237C136.504 72.5614 136.376 72.32 136.172 72.1526L130.256 67.2917V60.5748L134.91 64.3985C135.01 64.4824 135.127 64.5456 135.252 64.5844C135.377 64.6232 135.509 64.6368 135.639 64.6246C135.769 64.6123 135.896 64.5743 136.012 64.5129C136.128 64.4514 136.23 64.3677 136.313 64.2665C136.397 64.1653 136.459 64.0487 136.497 63.9232C136.535 63.7978 136.548 63.6661 136.535 63.5358C136.522 63.4054 136.483 63.2789 136.421 63.1636C136.358 63.0482 136.274 62.9464 136.172 62.8638L129.889 57.7021C129.711 57.5558 129.488 57.476 129.257 57.4762C129.027 57.4764 128.803 57.5566 128.626 57.7031L122.344 62.8638C122.145 63.0323 122.019 63.2728 121.996 63.5331C121.972 63.7934 122.052 64.0525 122.218 64.2544C122.384 64.4563 122.623 64.5846 122.883 64.6116C123.143 64.6385 123.403 64.562 123.607 64.3985L128.261 60.5747V67.2917L122.344 72.1526C122.142 72.3204 122.015 72.5615 121.99 72.8231C121.965 73.0846 122.044 73.3454 122.211 73.5484C122.378 73.7514 122.619 73.8799 122.88 73.906C123.142 73.9321 123.403 73.8535 123.607 73.6875L128.261 69.8637V76.58L122.344 81.4411C122.242 81.5234 122.156 81.6252 122.093 81.7407C122.031 81.8561 121.991 81.983 121.978 82.1138C121.964 82.2446 121.977 82.3768 122.014 82.5028C122.052 82.6287 122.115 82.7459 122.198 82.8475C122.282 82.9491 122.385 83.0331 122.501 83.0946C122.617 83.1561 122.745 83.1939 122.876 83.2058C123.007 83.2178 123.139 83.2036 123.264 83.1641C123.39 83.1246 123.506 83.0606 123.607 82.9758L128.261 79.152V85.8676L122.344 90.729C122.242 90.8113 122.156 90.9131 122.093 91.0286C122.031 91.1441 121.991 91.2709 121.978 91.4017C121.964 91.5326 121.977 91.6648 122.014 91.7907C122.052 91.9167 122.115 92.0338 122.198 92.1354C122.282 92.237 122.385 92.321 122.501 92.3825C122.617 92.444 122.745 92.4819 122.876 92.4938C123.007 92.5057 123.139 92.4915 123.264 92.452C123.39 92.4126 123.506 92.3485 123.607 92.2637L128.261 88.4396V100.991L101.001 91.7017V79.1569L105.648 82.9744C105.749 83.0583 105.865 83.1215 105.99 83.1603C106.115 83.1991 106.247 83.2127 106.377 83.2005C106.508 83.1882 106.635 83.1502 106.75 83.0888C106.866 83.0273 106.969 82.9436 107.052 82.8424C107.135 82.7412 107.197 82.6245 107.235 82.4991C107.273 82.3737 107.286 82.242 107.273 82.1117C107.26 81.9813 107.221 81.8548 107.159 81.7395C107.097 81.6241 107.012 81.5222 106.911 81.4397L101.001 76.5854V69.8689L105.648 73.687C105.852 73.8544 106.113 73.9341 106.376 73.9085C106.638 73.883 106.879 73.7543 107.047 73.5507C107.214 73.3472 107.294 73.0855 107.268 72.8232C107.243 72.5609 107.114 72.3195 106.911 72.1521L101.002 67.2968V60.581L105.649 64.3985C105.75 64.4824 105.866 64.5456 105.991 64.5844C106.116 64.6232 106.248 64.6368 106.378 64.6246C106.509 64.6123 106.635 64.5743 106.751 64.5129C106.867 64.4514 106.969 64.3677 107.052 64.2665C107.136 64.1653 107.198 64.0487 107.236 63.9232C107.274 63.7978 107.287 63.6661 107.274 63.5358C107.261 63.4054 107.222 63.2789 107.16 63.1636C107.097 63.0482 107.013 62.9464 106.911 62.8638L100.63 57.7031C100.452 57.5566 100.228 57.4764 99.9978 57.4762C99.7673 57.476 99.5439 57.5558 99.3657 57.7021L93.0829 62.8638C92.9812 62.9464 92.8968 63.0482 92.8346 63.1636C92.7724 63.2789 92.7336 63.4054 92.7204 63.5358C92.7073 63.6661 92.7201 63.7978 92.7581 63.9232C92.7961 64.0487 92.8585 64.1653 92.9417 64.2665C93.0249 64.3677 93.1274 64.4514 93.2431 64.5129C93.3588 64.5743 93.4856 64.6123 93.6161 64.6246C93.7465 64.6368 93.8781 64.6232 94.0033 64.5844C94.1284 64.5456 94.2447 64.4824 94.3453 64.3985L98.9922 60.5808V67.2972L93.0831 72.1521C92.9823 72.235 92.8988 72.3369 92.8375 72.4521C92.7761 72.5672 92.738 72.6933 92.7253 72.8232C92.6998 73.0855 92.7795 73.3472 92.9469 73.5507C93.1143 73.7543 93.3557 73.883 93.618 73.9085C93.8803 73.9341 94.142 73.8544 94.3455 73.687L98.9924 69.8689V76.5854L93.0833 81.4402C92.9815 81.5228 92.8971 81.6247 92.8349 81.74C92.7727 81.8553 92.7339 81.9818 92.7208 82.1122C92.7077 82.2426 92.7205 82.3742 92.7584 82.4997C92.7964 82.6251 92.8588 82.7417 92.942 82.8429C93.0253 82.9441 93.1277 83.0279 93.2435 83.0893C93.3592 83.1508 93.4859 83.1887 93.6164 83.201C93.7469 83.2132 93.8785 83.1996 94.0036 83.1608C94.1288 83.122 94.245 83.0588 94.3457 82.9749L98.9926 79.1572V91.6911L73.3643 100.427V88.4403L78.0184 92.2643C78.1191 92.3482 78.2353 92.4113 78.3605 92.4501C78.4856 92.4889 78.6172 92.5026 78.7477 92.4903C78.8782 92.4781 79.0049 92.4401 79.1206 92.3787C79.2364 92.3172 79.3388 92.2335 79.4221 92.1323C79.5053 92.0311 79.5677 91.9144 79.6057 91.789C79.6436 91.6636 79.6564 91.5319 79.6433 91.4015C79.6302 91.2712 79.5914 91.1447 79.5292 91.0293C79.467 90.914 79.3826 90.8121 79.2808 90.7296L73.3643 85.8676V79.1521L78.0184 82.9758C78.1191 83.0597 78.2353 83.1229 78.3605 83.1617C78.4856 83.2005 78.6172 83.2141 78.7477 83.2019C78.8782 83.1896 79.0049 83.1516 79.1206 83.0902C79.2364 83.0288 79.3388 82.945 79.4221 82.8438C79.5053 82.7426 79.5677 82.626 79.6057 82.5005C79.6436 82.3751 79.6564 82.2434 79.6433 82.1131C79.6302 81.9827 79.5914 81.8562 79.5292 81.7409C79.467 81.6255 79.3826 81.5237 79.2808 81.4411L73.3643 76.58V69.8637L78.0184 73.6875C78.222 73.8549 78.4837 73.9346 78.746 73.909C79.0083 73.8835 79.2497 73.7548 79.4171 73.5513C79.5845 73.3477 79.6642 73.086 79.6386 72.8237C79.6131 72.5614 79.4844 72.32 79.2808 72.1526L73.3643 67.2917V60.5748L78.0184 64.3985C78.1191 64.4824 78.2353 64.5456 78.3605 64.5844C78.4856 64.6232 78.6172 64.6368 78.7477 64.6246C78.8782 64.6123 79.0049 64.5743 79.1206 64.5129C79.2364 64.4514 79.3388 64.3677 79.4221 64.2665C79.5053 64.1653 79.5677 64.0487 79.6057 63.9232C79.6436 63.7978 79.6564 63.6661 79.6433 63.5358C79.6302 63.4054 79.5914 63.2789 79.5292 63.1636C79.467 63.0482 79.3826 62.9464 79.2808 62.8638L72.9996 57.7031C72.8217 57.5566 72.5984 57.4764 72.3679 57.4762C72.1374 57.476 71.914 57.5558 71.7358 57.7021L65.453 62.8638C65.3504 62.9461 65.2651 63.0479 65.2022 63.1634C65.1392 63.2788 65.0998 63.4057 65.0862 63.5365C65.0727 63.6673 65.0852 63.7995 65.1231 63.9255C65.161 64.0514 65.2236 64.1686 65.3071 64.2702C65.3907 64.3718 65.4936 64.4558 65.6098 64.5173C65.7261 64.5788 65.8534 64.6166 65.9844 64.6285C66.1154 64.6405 66.2474 64.6263 66.3729 64.5868C66.4983 64.5473 66.6147 64.4833 66.7152 64.3985L71.3695 60.5747V67.2917L65.453 72.1524C65.2508 72.3202 65.1233 72.5613 65.0984 72.8229C65.0734 73.0845 65.1532 73.3453 65.3201 73.5482C65.487 73.7512 65.7275 73.8798 65.9889 73.9058C66.2504 73.9319 66.5116 73.8533 66.7152 73.6873L71.3695 69.8633V76.5803L65.453 81.4409C65.3504 81.5232 65.2651 81.625 65.2022 81.7405C65.1392 81.856 65.0998 81.9828 65.0862 82.1136C65.0727 82.2445 65.0852 82.3767 65.1231 82.5026C65.161 82.6286 65.2236 82.7457 65.3071 82.8473C65.3907 82.9489 65.4936 83.0329 65.6098 83.0944C65.7261 83.1559 65.8534 83.1937 65.9844 83.2057C66.1154 83.2176 66.2474 83.2034 66.3729 83.1639C66.4983 83.1244 66.6147 83.0604 66.7152 82.9756L71.3695 79.1518V85.8676L65.453 90.7289C65.3504 90.8111 65.2651 90.913 65.2022 91.0284C65.1392 91.1439 65.0998 91.2707 65.0862 91.4016C65.0727 91.5324 65.0852 91.6646 65.1231 91.7906C65.161 91.9165 65.2236 92.0337 65.3071 92.1353C65.3907 92.2368 65.4936 92.3208 65.6098 92.3823C65.7261 92.4439 65.8534 92.4817 65.9844 92.4936C66.1154 92.5055 66.2474 92.4914 66.3729 92.4519C66.4983 92.4124 66.6147 92.3484 66.7152 92.2636L71.3695 88.4392V101.107L45.6269 109.883V97.7298L50.2811 101.554C50.4848 101.72 50.746 101.798 51.0074 101.772C51.2689 101.746 51.5094 101.618 51.6763 101.415C51.8432 101.212 51.9229 100.951 51.898 100.689C51.8731 100.428 51.7456 100.187 51.5434 100.019L45.6269 95.1578V88.4415L50.2811 92.2653C50.4848 92.4313 50.746 92.5099 51.0074 92.4838C51.2689 92.4578 51.5094 92.3292 51.6763 92.1262C51.8432 91.9233 51.9229 91.6625 51.898 91.4009C51.8731 91.1393 51.7456 90.8982 51.5434 90.7304L45.6269 85.8693V79.1525L50.2811 82.9763C50.4851 83.1398 50.7452 83.2164 51.0052 83.1894C51.2652 83.1624 51.504 83.0341 51.6701 82.8322C51.8361 82.6304 51.9159 82.3712 51.8922 82.1109C51.8685 81.8506 51.7431 81.6102 51.5434 81.4416L45.6269 76.5805V69.864L50.2811 73.6878C50.3817 73.7727 50.498 73.8367 50.6235 73.8762C50.749 73.9156 50.881 73.9298 51.012 73.9179C51.143 73.906 51.2703 73.8681 51.3866 73.8066C51.5028 73.7451 51.6057 73.6611 51.6892 73.5595C51.7728 73.458 51.8354 73.3408 51.8733 73.2148C51.9112 73.0889 51.9237 72.9567 51.9102 72.8259C51.8966 72.695 51.8572 72.5682 51.7942 72.4527C51.7312 72.3372 51.646 72.2354 51.5434 72.1531L45.6269 67.2917V60.5748L50.2811 64.3987C50.4848 64.5647 50.746 64.6432 51.0074 64.6172C51.2689 64.5911 51.5094 64.4625 51.6763 64.2596C51.8432 64.0566 51.9229 63.7958 51.898 63.5342C51.8731 63.2726 51.7456 63.0316 51.5434 62.8638L45.2622 57.7033C45.0842 57.5568 44.8609 57.4765 44.6304 57.4763C44.3999 57.4762 44.1765 57.556 43.9983 57.7022L37.7161 62.8638C37.5125 63.0312 37.3838 63.2726 37.3583 63.5349C37.3327 63.7972 37.4124 64.0589 37.5798 64.2624C37.7473 64.466 37.9887 64.5947 38.251 64.6202C38.5132 64.6458 38.775 64.5661 38.9785 64.3987L43.6321 60.575V67.2922L37.7161 72.1528C37.6143 72.2354 37.5299 72.3372 37.4677 72.4526C37.4055 72.5679 37.3667 72.6944 37.3536 72.8248C37.3405 72.9551 37.3533 73.0868 37.3912 73.2122C37.4292 73.3377 37.4916 73.4543 37.5749 73.5555C37.6581 73.6567 37.7605 73.7405 37.8763 73.8019C37.992 73.8633 38.1188 73.9013 38.2492 73.9136C38.3797 73.9258 38.5113 73.9122 38.6364 73.8734C38.7616 73.8346 38.8778 73.7714 38.9785 73.6875L43.6321 69.864V76.5805L37.7161 81.4413C37.6143 81.5238 37.5299 81.6257 37.4677 81.741C37.4055 81.8564 37.3667 81.9829 37.3536 82.1132C37.3405 82.2436 37.3533 82.3753 37.3912 82.5007C37.4292 82.6261 37.4916 82.7428 37.5749 82.844C37.6581 82.9452 37.7605 83.0289 37.8763 83.0904C37.992 83.1518 38.1188 83.1898 38.2492 83.202C38.3797 83.2143 38.5113 83.2006 38.6364 83.1618C38.7616 83.123 38.8778 83.0599 38.9785 82.976L43.6321 79.1523V85.8695L37.7161 90.7301C37.5125 90.8975 37.3838 91.1389 37.3583 91.4012C37.3327 91.6635 37.4124 91.9252 37.5798 92.1287C37.7473 92.3323 37.9887 92.461 38.251 92.4865C38.5132 92.5121 38.775 92.4324 38.9785 92.265L43.6321 88.4413V95.158L37.7161 100.019C37.5125 100.186 37.3838 100.427 37.3583 100.69C37.3327 100.952 37.4124 101.214 37.5798 101.417C37.7473 101.621 37.9887 101.749 38.251 101.775C38.5132 101.801 38.775 101.721 38.9785 101.553L43.6321 97.7296V110.563L25.5467 116.728V57.0122L62.768 35.5229L62.771 35.5208V35.5229L99.9974 14.03L137.224 35.5229L174.445 57.0122L174.445 99.9999Z" fill="black"/>
<path d="M113.987 167.061C115.189 167.679 116.549 167.92 117.891 167.753C118.32 167.701 118.744 167.609 119.156 167.477C120.798 166.949 122.175 165.81 123 164.295C123.017 164.265 123.04 164.242 123.056 164.211L123.061 164.2C123.088 164.157 123.112 164.111 123.132 164.065L123.137 164.05L123.141 164.043C123.216 163.893 123.253 163.734 123.316 163.581C123.429 163.327 123.528 163.067 123.61 162.802C124.006 161.309 123.882 159.726 123.258 158.314C122.633 156.901 121.546 155.744 120.175 155.032L114.786 152.262L120.178 149.489C121.765 148.664 122.961 147.244 123.504 145.539C124.047 143.834 123.892 141.984 123.074 140.392C122.255 138.801 120.84 137.6 119.137 137.05C117.435 136.5 115.584 136.647 113.989 137.459L99.9945 144.656L86.001 137.46C84.4183 136.652 82.5803 136.497 80.8846 137.029C79.1889 137.561 77.7699 138.738 76.9331 140.306C76.9032 140.354 76.8774 140.404 76.8558 140.455C76.0662 142.048 75.9337 143.888 76.487 145.577C77.0403 147.267 78.2351 148.672 79.814 149.489L85.204 152.261L79.8165 155.032C78.5251 155.702 77.4875 156.776 76.8609 158.089C76.0902 159.558 75.9233 161.269 76.3957 162.859C76.4547 163.072 76.5584 163.277 76.6395 163.487C76.71 163.7 76.7914 163.909 76.8833 164.114L76.8932 164.134L76.8961 164.141C77.0356 164.389 77.1908 164.628 77.361 164.857C78.1958 166.092 79.418 167.014 80.8349 167.478C80.949 167.515 81.0702 167.524 81.1869 167.555C82.7987 167.996 84.5169 167.82 86.006 167.062L99.9959 159.867L113.987 167.061ZM108.09 155.705L111.447 157.427C111.331 157.608 111.196 157.773 111.096 157.968C110.69 158.756 110.444 159.616 110.371 160.499C110.298 161.382 110.401 162.271 110.673 163.115L110.675 163.121L102.171 158.748L108.09 155.705ZM119.262 156.819L119.272 156.824C120.114 157.256 120.808 157.929 121.263 158.759C121.858 159.848 122.008 161.125 121.68 162.321C121.669 162.36 121.648 162.397 121.637 162.435C121.558 162.706 121.455 162.969 121.329 163.222L121.325 163.229C121.038 163.786 120.644 164.281 120.166 164.686C119.687 165.09 119.133 165.396 118.536 165.586C118.273 165.667 118.004 165.726 117.73 165.762C116.991 165.862 116.238 165.786 115.533 165.541C114.829 165.296 114.191 164.889 113.673 164.352C113.155 163.815 112.77 163.164 112.55 162.451C112.331 161.738 112.282 160.983 112.408 160.247C112.534 159.512 112.831 158.816 113.275 158.217C113.72 157.618 114.299 157.132 114.967 156.798C115.634 156.464 116.37 156.292 117.117 156.295C117.863 156.299 118.598 156.479 119.262 156.819ZM115.04 154.629L115.034 154.63C114.207 154.895 113.438 155.318 112.771 155.874L110.263 154.588L112.611 153.38L115.04 154.629ZM114.902 139.228C116.028 138.65 117.337 138.542 118.543 138.929C119.748 139.315 120.751 140.165 121.33 141.291C121.909 142.417 122.017 143.727 121.63 144.933C121.243 146.138 120.393 147.141 119.267 147.719L89.3167 163.12L89.3193 163.114C89.8647 161.42 89.717 159.58 88.9087 157.994L88.8953 157.967C88.8367 157.854 88.7545 157.761 88.6909 157.652L117.556 142.844C117.791 142.724 117.968 142.516 118.049 142.265C118.13 142.015 118.108 141.742 117.988 141.508C117.869 141.273 117.66 141.096 117.41 141.015C117.159 140.934 116.887 140.956 116.652 141.076L87.4176 156.073C86.7098 155.422 85.8709 154.93 84.9571 154.63L84.952 154.629L114.902 139.228ZM81.455 165.585C80.8682 165.398 80.3231 165.099 79.8492 164.705L79.8397 164.696C79.6078 164.501 79.395 164.285 79.2043 164.05C79.1398 163.971 79.0909 163.875 79.0312 163.791C78.7425 163.43 78.5302 163.014 78.4073 162.568C78.3786 162.483 78.3354 162.401 78.3119 162.316C78.0249 161.275 78.1005 160.168 78.5262 159.177C78.9519 158.185 79.7023 157.368 80.6541 156.859C80.6998 156.84 80.744 156.817 80.7863 156.791C81.8944 156.242 83.1727 156.147 84.3501 156.525C85.5274 156.903 86.5113 157.724 87.093 158.815C87.112 158.86 87.1344 158.904 87.1599 158.946C87.5397 159.713 87.7052 160.57 87.6388 161.424C87.5724 162.278 87.2766 163.098 86.7826 163.798C86.2887 164.498 85.6149 165.052 84.8325 165.401C84.05 165.75 83.1879 165.881 82.337 165.781C82.0376 165.743 81.7423 165.678 81.455 165.585ZM80.7254 147.721C79.6035 147.139 78.7567 146.138 78.3695 144.935C77.9823 143.733 78.0861 142.426 78.6583 141.299L78.6634 141.29C79.2455 140.167 80.2477 139.321 81.4515 138.935C82.6552 138.548 83.9629 138.654 85.0893 139.228L97.8196 145.773L95.4546 146.99L83.8328 141.029C83.5988 140.913 83.3283 140.894 83.0801 140.975C82.8319 141.057 82.626 141.234 82.507 141.466C82.388 141.699 82.3655 141.969 82.4445 142.218C82.5234 142.468 82.6974 142.676 82.9286 142.797L93.2815 148.108L87.3801 151.142L80.7254 147.721Z" fill="black"/>
<path d="M92.7647 137.153C94.0629 138.109 95.5459 138.785 97.1194 139.136C98.6928 139.488 100.322 139.508 101.904 139.195C104.542 138.702 106.968 137.417 108.858 135.512C110.572 133.844 111.913 131.831 112.791 129.606C113.671 127.466 113.964 125.129 113.64 122.838C113.345 120.937 112.474 119.173 111.143 117.783C111.006 117.624 110.823 117.512 110.618 117.464C110.414 117.415 110.199 117.432 110.005 117.513C109.811 117.594 109.648 117.734 109.538 117.913C109.429 118.092 109.379 118.302 109.395 118.511C109.535 119.809 109.247 121.117 108.575 122.237C108.353 122.592 108.094 122.922 107.802 123.222L107.871 122.985C108.185 121.98 108.383 120.941 108.462 119.89V119.886C108.665 117.72 108.383 115.536 107.636 113.492C106.889 111.448 105.696 109.597 104.144 108.072C104.125 108.051 104.105 108.031 104.084 108.012C101.294 105.635 97.9443 104.008 94.3513 103.283C94.1287 103.228 93.894 103.253 93.6868 103.351C93.4796 103.45 93.3129 103.617 93.2148 103.824C93.1168 104.031 93.0934 104.266 93.1488 104.488C93.2042 104.711 93.3348 104.907 93.5186 105.045C94.2768 105.649 94.8936 106.412 95.3258 107.28L95.3511 107.333C96.1718 108.968 96.593 110.774 96.5801 112.603C96.6314 114.317 96.1379 116.004 95.1705 117.42C94.862 117.833 94.4908 118.195 94.0704 118.494C93.9905 118.336 93.9326 118.169 93.8983 117.996C93.6991 116.483 93.7527 114.948 94.0567 113.452C94.0852 113.257 94.055 113.058 93.97 112.88C93.885 112.702 93.749 112.553 93.5792 112.452C93.4095 112.351 93.2136 112.304 93.0166 112.314C92.8195 112.325 92.6301 112.395 92.4725 112.513C90.9281 113.778 89.6644 115.351 88.7621 117.132C87.8598 118.912 87.3387 120.861 87.2321 122.855C86.9881 125.556 87.3372 128.278 88.2549 130.831C89.1179 133.329 90.6839 135.524 92.7647 137.153ZM89.2091 123.026C89.3883 120.471 90.2883 118.02 91.8047 115.956C91.7506 116.782 91.8023 117.611 91.9584 118.424C92.0187 118.89 92.1935 119.335 92.4672 119.718C92.7409 120.101 93.1049 120.41 93.527 120.618C93.6669 120.687 93.8207 120.721 93.9762 120.719C94.1318 120.717 94.2847 120.678 94.4226 120.607C95.3423 120.126 96.1415 119.444 96.7603 118.612C97.9848 116.854 98.6176 114.753 98.567 112.611C98.5811 110.46 98.0851 108.336 97.1194 106.414L97.087 106.357L96.9684 106.139C99.0944 106.849 101.054 107.982 102.729 109.471L102.78 109.516C104.122 110.852 105.15 112.47 105.789 114.253C106.428 116.036 106.663 117.939 106.475 119.824C106.398 120.713 106.224 121.592 105.955 122.444C105.67 123.442 105.322 124.435 105.056 125.16C104.994 125.329 104.98 125.512 105.013 125.689C105.047 125.866 105.128 126.03 105.248 126.165C105.368 126.3 105.522 126.399 105.694 126.453C105.866 126.507 106.049 126.513 106.224 126.471C107.898 125.91 109.326 124.786 110.265 123.291C110.65 122.672 110.942 122 111.132 121.296C111.391 121.892 111.575 122.518 111.678 123.16C111.944 125.1 111.689 127.075 110.939 128.884C110.165 130.844 108.983 132.618 107.473 134.088C107.048 134.499 106.597 134.882 106.122 135.234C105.997 134.568 105.913 133.895 105.868 133.219C105.797 132.189 105.808 131.155 105.902 130.127C105.925 129.865 105.844 129.603 105.675 129.401C105.507 129.199 105.264 129.072 105.002 129.048C104.74 129.024 104.479 129.105 104.276 129.274C104.074 129.443 103.947 129.685 103.923 129.947C103.818 131.079 103.804 132.218 103.881 133.352C103.943 134.35 104.089 135.341 104.319 136.315L104.298 136.324C102.168 134.509 100.825 131.94 100.549 129.156C100.252 125.812 100.971 122.456 102.613 119.528C102.675 119.413 102.713 119.287 102.727 119.157C102.74 119.027 102.727 118.895 102.69 118.77C102.652 118.645 102.59 118.529 102.507 118.427C102.425 118.326 102.323 118.242 102.208 118.18C102.093 118.118 101.966 118.08 101.836 118.066C101.706 118.053 101.575 118.066 101.45 118.103C101.325 118.141 101.208 118.203 101.107 118.286C101.005 118.368 100.922 118.47 100.86 118.585C99.0259 121.871 98.2279 125.634 98.5703 129.381C98.8628 132.283 100.135 134.999 102.177 137.082C102.131 137.093 102.086 137.108 102.039 137.117C101.992 137.088 101.943 137.062 101.891 137.041C99.5782 136.357 97.6045 134.834 96.3565 132.77C94.8647 130.323 94.0806 127.51 94.0913 124.644C94.0903 124.381 93.9846 124.128 93.7975 123.943C93.6104 123.757 93.3573 123.654 93.0939 123.655C92.8304 123.656 92.5781 123.761 92.3926 123.948C92.207 124.136 92.1034 124.389 92.1045 124.652C92.0969 127.894 92.9892 131.074 94.6821 133.838C95.5124 135.154 96.5801 136.304 97.8308 137.229C96.4258 136.988 95.098 136.417 93.9558 135.564C92.1834 134.164 90.8524 132.283 90.1223 130.145C89.303 127.867 88.9917 125.437 89.2091 123.026Z" fill="black"/>
<path d="M84.4161 160.272C84.2615 159.971 84.0212 159.723 83.7256 159.559C83.4299 159.395 83.0923 159.322 82.7554 159.35C82.4184 159.378 82.0973 159.505 81.8325 159.715C81.5678 159.926 81.3714 160.21 81.2681 160.532C81.1649 160.854 81.1594 161.199 81.2524 161.524C81.3454 161.849 81.5327 162.139 81.7906 162.358C82.0485 162.577 82.3655 162.714 82.7014 162.752C83.0373 162.791 83.3771 162.729 83.6777 162.574C83.8774 162.472 84.055 162.331 84.2002 162.159C84.3454 161.988 84.4554 161.79 84.524 161.576C84.5925 161.362 84.6183 161.137 84.5998 160.913C84.5813 160.69 84.5189 160.472 84.4161 160.272Z" fill="black"/>
<path d="M117.878 162.574C118.178 162.42 118.426 162.179 118.591 161.884C118.755 161.588 118.827 161.25 118.8 160.913C118.772 160.576 118.645 160.255 118.434 159.991C118.224 159.726 117.94 159.529 117.618 159.426C117.296 159.323 116.951 159.317 116.626 159.41C116.301 159.503 116.01 159.691 115.792 159.949C115.573 160.207 115.436 160.524 115.397 160.859C115.359 161.195 115.421 161.535 115.576 161.836C115.783 162.239 116.142 162.543 116.574 162.682C117.005 162.82 117.474 162.781 117.878 162.574Z" fill="black"/>
<path d="M107.031 26.1901C107.219 26.1183 107.382 25.9909 107.497 25.8247C107.611 25.6584 107.673 25.4612 107.673 25.2593C107.673 25.0574 107.611 24.8602 107.497 24.6939C107.382 24.5277 107.219 24.4003 107.031 24.3285C104.547 23.3801 101.842 23.1708 99.242 23.7259C96.6421 24.2809 94.2584 25.5765 92.3785 27.4564L92.3744 27.4604C91.0956 28.7386 90.0811 30.2562 89.3889 31.9265C88.6967 33.5969 88.3405 35.3873 88.3405 37.1953C88.3405 39.0034 88.6967 40.7938 89.3889 42.4642C90.0811 44.1345 91.0956 45.6521 92.3744 46.9303L92.3785 46.9343C94.2601 48.8114 96.6438 50.1051 99.243 50.6601C101.842 51.215 104.546 51.0076 107.031 50.0627C107.219 49.991 107.382 49.8635 107.497 49.6973C107.611 49.531 107.673 49.3339 107.673 49.1319C107.673 48.93 107.611 48.7328 107.497 48.5666C107.382 48.4003 107.219 48.2729 107.031 48.2011C104.802 47.3492 102.885 45.841 101.533 43.876C100.18 41.9109 99.4563 39.5816 99.4563 37.1961C99.4563 34.8107 100.18 32.4814 101.533 30.5163C102.885 28.5513 104.802 27.042 107.031 26.1901ZM97.4661 37.1947C97.4676 39.5206 98.0575 41.8084 99.1808 43.845C100.304 45.8817 101.924 47.6011 103.891 48.8433C103.302 48.9304 102.708 48.9738 102.113 48.973C100.562 48.979 99.026 48.6787 97.5917 48.0895C96.1574 47.5003 94.8536 46.6337 93.7551 45.5394C92.6566 44.4451 91.7849 43.1446 91.1901 41.7127C90.5954 40.2807 90.2892 38.7454 90.2892 37.1948C90.2892 35.6442 90.5954 34.1089 91.1901 32.677C91.7849 31.245 92.6566 29.9446 93.7551 28.8503C94.8536 27.756 96.1574 26.8893 97.5917 26.3001C99.026 25.7109 100.562 25.4107 102.113 25.4167C102.708 25.4156 103.302 25.4589 103.891 25.5464C101.924 26.7886 100.304 28.508 99.181 30.5446C98.0577 32.5813 97.4678 34.8689 97.4661 37.1947Z" fill="black"/>
<path d="M58.5964 57.2122C58.2735 57.2122 57.9579 57.308 57.6894 57.4874C57.4209 57.6667 57.2117 57.9217 57.0881 58.22C56.9645 58.5183 56.9322 58.8466 56.9952 59.1633C57.0582 59.48 57.2137 59.7709 57.442 59.9992C57.6703 60.2275 57.9612 60.383 58.2779 60.446C58.5946 60.509 58.9229 60.4766 59.2212 60.3531C59.5195 60.2295 59.7744 60.0203 59.9538 59.7518C60.1332 59.4833 60.229 59.1677 60.229 58.8448C60.2281 58.4121 60.0558 57.9973 59.7498 57.6914C59.4439 57.3854 59.0291 57.2131 58.5964 57.2122Z" fill="black"/>
<path d="M73.3265 39.1631C74.2281 39.1631 74.959 38.4322 74.959 37.5306C74.959 36.6289 74.2281 35.898 73.3265 35.898C72.4248 35.898 71.6939 36.6289 71.6939 37.5306C71.6939 38.4322 72.4248 39.1631 73.3265 39.1631Z" fill="black"/>
<path d="M82.5731 47.1552C82.8959 47.1552 83.2116 47.0595 83.4801 46.8801C83.7485 46.7007 83.9578 46.4457 84.0814 46.1474C84.2049 45.8491 84.2372 45.5209 84.1743 45.2042C84.1113 44.8875 83.9558 44.5966 83.7275 44.3683C83.4991 44.14 83.2082 43.9845 82.8916 43.9215C82.5749 43.8585 82.2466 43.8908 81.9483 44.0144C81.65 44.1379 81.395 44.3472 81.2156 44.6157C81.0362 44.8841 80.9405 45.1998 80.9405 45.5227C80.9414 45.9554 81.1137 46.3701 81.4196 46.6761C81.7256 46.9821 82.1403 47.1544 82.5731 47.1552Z" fill="black"/>
<path d="M49.8191 52.014C50.7207 52.014 51.4517 51.2831 51.4517 50.3815C51.4517 49.4798 50.7207 48.7489 49.8191 48.7489C48.9174 48.7489 48.1865 49.4798 48.1865 50.3815C48.1865 51.2831 48.9174 52.014 49.8191 52.014Z" fill="black"/>
<path d="M61.7295 76.3309C61.4066 76.3309 61.091 76.4267 60.8225 76.6061C60.554 76.7855 60.3448 77.0404 60.2212 77.3387C60.0977 77.6371 60.0653 77.9653 60.1283 78.282C60.1913 78.5987 60.3468 78.8896 60.5751 79.1179C60.8034 79.3462 61.0943 79.5017 61.411 79.5647C61.7277 79.6277 62.056 79.5954 62.3543 79.4718C62.6526 79.3482 62.9076 79.139 63.087 78.8705C63.2663 78.602 63.3621 78.2864 63.3621 77.9635C63.3612 77.5308 63.1889 77.1161 62.8829 76.8101C62.577 76.5041 62.1622 76.3318 61.7295 76.3309Z" fill="black"/>
<path d="M57.0279 92.0029C56.705 92.0028 56.3893 92.0984 56.1208 92.2777C55.8522 92.4571 55.6429 92.712 55.5192 93.0103C55.3956 93.3086 55.3632 93.6369 55.4261 93.9536C55.489 94.2703 55.6445 94.5613 55.8728 94.7896C56.1011 95.018 56.392 95.1736 56.7087 95.2366C57.0254 95.2996 57.3537 95.2673 57.652 95.1438C57.9504 95.0202 58.2054 94.811 58.3848 94.5425C58.5642 94.274 58.6599 93.9583 58.6599 93.6354C58.6591 93.2028 58.4868 92.7882 58.181 92.4822C57.8751 92.1762 57.4605 92.0039 57.0279 92.0029Z" fill="black"/>
<path d="M33.8342 76.3313C33.5113 76.3313 33.1957 76.427 32.9272 76.6064C32.6587 76.7858 32.4495 77.0408 32.3259 77.3391C32.2023 77.6374 32.17 77.9657 32.233 78.2824C32.296 78.599 32.4515 78.8899 32.6798 79.1183C32.9081 79.3466 33.199 79.5021 33.5157 79.5651C33.8324 79.6281 34.1606 79.5957 34.459 79.4722C34.7573 79.3486 35.0122 79.1393 35.1916 78.8709C35.371 78.6024 35.4668 78.2868 35.4668 77.9639C35.4659 77.5312 35.2936 77.1164 34.9876 76.8104C34.6816 76.5045 34.2669 76.3322 33.8342 76.3313Z" fill="black"/>
<path d="M36.6549 108.432C37.5565 108.432 38.2874 107.701 38.2874 106.8C38.2874 105.898 37.5565 105.167 36.6549 105.167C35.7532 105.167 35.0223 105.898 35.0223 106.8C35.0223 107.701 35.7532 108.432 36.6549 108.432Z" fill="black"/>
<path d="M30.6993 90.7495C30.3764 90.7493 30.0607 90.845 29.7922 91.0243C29.5236 91.2037 29.3143 91.4586 29.1906 91.7569C29.067 92.0552 29.0346 92.3835 29.0975 92.7002C29.1605 93.0169 29.3159 93.3079 29.5442 93.5362C29.7725 93.7646 30.0634 93.9201 30.3801 93.9832C30.6968 94.0462 31.0251 94.0139 31.3234 93.8904C31.6218 93.7668 31.8768 93.5576 32.0562 93.2891C32.2356 93.0206 32.3314 92.7049 32.3314 92.382C32.3305 91.9494 32.1583 91.5347 31.8524 91.2288C31.5465 90.9228 31.1319 90.7505 30.6993 90.7495Z" fill="black"/>
<path d="M31.6394 62.3577C32.5411 62.3577 33.272 61.6268 33.272 60.7252C33.272 59.8235 32.5411 59.0926 31.6394 59.0926C30.7378 59.0926 30.0069 59.8235 30.0069 60.7252C30.0069 61.6268 30.7378 62.3577 31.6394 62.3577Z" fill="black"/>
<path d="M66.2748 46.8674C65.9519 46.8674 65.6363 46.9632 65.3678 47.1426C65.0994 47.322 64.8901 47.5769 64.7665 47.8752C64.643 48.1736 64.6106 48.5018 64.6736 48.8185C64.7366 49.1352 64.8921 49.4261 65.1204 49.6544C65.3488 49.8827 65.6397 50.0382 65.9563 50.1012C66.273 50.1642 66.6013 50.1319 66.8996 50.0083C67.1979 49.8847 67.4529 49.6755 67.6323 49.407C67.8117 49.1385 67.9074 48.8229 67.9074 48.5C67.9065 48.0673 67.7342 47.6526 67.4283 47.3466C67.1223 47.0406 66.7076 46.8683 66.2748 46.8674Z" fill="black"/>
<path d="M85.6166 67.934C85.6166 67.6111 85.5208 67.2955 85.3414 67.027C85.1621 66.7585 84.9071 66.5493 84.6088 66.4257C84.3105 66.3021 83.9822 66.2698 83.6655 66.3328C83.3488 66.3958 83.0579 66.5513 82.8296 66.7796C82.6013 67.0079 82.4458 67.2988 82.3828 67.6155C82.3198 67.9322 82.3521 68.2604 82.4757 68.5587C82.5993 68.8571 82.8085 69.112 83.077 69.2914C83.3455 69.4708 83.6611 69.5666 83.984 69.5666C84.4167 69.5657 84.8315 69.3934 85.1374 69.0874C85.4434 68.7814 85.6157 68.3667 85.6166 67.934Z" fill="black"/>
<path d="M89.3124 76.018C88.9895 76.018 88.6739 76.1137 88.4054 76.2931C88.137 76.4725 87.9277 76.7275 87.8041 77.0258C87.6806 77.3241 87.6482 77.6524 87.7112 77.969C87.7742 78.2857 87.9297 78.5766 88.158 78.8049C88.3864 79.0333 88.6772 79.1887 88.9939 79.2517C89.3106 79.3147 89.6389 79.2824 89.9372 79.1588C90.2355 79.0353 90.4905 78.826 90.6699 78.5575C90.8493 78.2891 90.945 77.9734 90.945 77.6505C90.9441 77.2178 90.7718 76.8031 90.4659 76.4971C90.1599 76.1911 89.7451 76.0189 89.3124 76.018Z" fill="black"/>
<path d="M86.4914 87.3018C86.1685 87.3018 85.8528 87.3975 85.5843 87.5768C85.3158 87.7562 85.1066 88.0112 84.983 88.3095C84.8594 88.6078 84.827 88.936 84.89 89.2527C84.953 89.5694 85.1084 89.8604 85.3368 90.0887C85.5651 90.317 85.856 90.4725 86.1726 90.5355C86.4893 90.5985 86.8176 90.5662 87.1159 90.4427C87.4142 90.3191 87.6692 90.1099 87.8486 89.8414C88.028 89.5729 88.1238 89.2573 88.1238 88.9344C88.1229 88.5017 87.9507 88.0869 87.6447 87.7809C87.3388 87.475 86.9241 87.3027 86.4914 87.3018Z" fill="black"/>
<path d="M117.208 67.3727C117.531 67.3727 117.847 67.2769 118.115 67.0975C118.384 66.9182 118.593 66.6632 118.716 66.3649C118.84 66.0666 118.872 65.7383 118.809 65.4216C118.746 65.1049 118.591 64.814 118.363 64.5857C118.134 64.3574 117.843 64.2019 117.527 64.1389C117.21 64.0759 116.882 64.1083 116.583 64.2318C116.285 64.3554 116.03 64.5646 115.851 64.8331C115.671 65.1016 115.576 65.4172 115.576 65.7401C115.576 66.1728 115.749 66.5876 116.055 66.8935C116.361 67.1995 116.775 67.3718 117.208 67.3727Z" fill="black"/>
<path d="M113.76 75.7054C113.438 75.7054 113.122 75.8011 112.853 75.9805C112.585 76.1599 112.376 76.4149 112.252 76.7132C112.129 77.0115 112.096 77.3398 112.159 77.6565C112.222 77.9731 112.378 78.264 112.606 78.4924C112.834 78.7207 113.125 78.8762 113.442 78.9392C113.759 79.0021 114.087 78.9698 114.385 78.8463C114.684 78.7227 114.939 78.5134 115.118 78.245C115.297 77.9765 115.393 77.6608 115.393 77.338C115.392 76.9052 115.22 76.4905 114.914 76.1845C114.608 75.8786 114.193 75.7063 113.76 75.7054Z" fill="black"/>
<path d="M117.521 89.9401C118.423 89.9401 119.154 89.2092 119.154 88.3076C119.154 87.4059 118.423 86.675 117.521 86.675C116.62 86.675 115.889 87.4059 115.889 88.3076C115.889 89.2092 116.62 89.9401 117.521 89.9401Z" fill="black"/>
<path d="M113.447 55.4624C114.349 55.4624 115.08 54.7315 115.08 53.8298C115.08 52.9282 114.349 52.1973 113.447 52.1973C112.545 52.1973 111.814 52.9282 111.814 53.8298C111.814 54.7315 112.545 55.4624 113.447 55.4624Z" fill="black"/>
<path d="M90.5652 59.5372C91.4668 59.5372 92.1978 58.8063 92.1978 57.9047C92.1978 57.003 91.4668 56.2721 90.5652 56.2721C89.6635 56.2721 88.9326 57.003 88.9326 57.9047C88.9326 58.8063 89.6635 59.5372 90.5652 59.5372Z" fill="black"/>
<path d="M113.133 32.5811C114.035 32.5811 114.766 31.8502 114.766 30.9485C114.766 30.0469 114.035 29.316 113.133 29.316C112.232 29.316 111.501 30.0469 111.501 30.9485C111.501 31.8502 112.232 32.5811 113.133 32.5811Z" fill="black"/>
<path d="M119.401 42.1669C119.079 42.1669 118.763 42.2626 118.494 42.442C118.226 42.6214 118.017 42.8764 117.893 43.1747C117.77 43.473 117.737 43.8012 117.8 44.1179C117.863 44.4346 118.019 44.7255 118.247 44.9538C118.475 45.1822 118.766 45.3376 119.083 45.4006C119.4 45.4636 119.728 45.4313 120.026 45.3077C120.325 45.1842 120.58 44.9749 120.759 44.7064C120.938 44.438 121.034 44.1223 121.034 43.7994C121.033 43.3667 120.861 42.952 120.555 42.646C120.249 42.34 119.834 42.1678 119.401 42.1669Z" fill="black"/>
<path d="M129.431 40.4171C130.333 40.4171 131.064 39.6862 131.064 38.7845C131.064 37.8829 130.333 37.1519 129.431 37.1519C128.53 37.1519 127.799 37.8829 127.799 38.7845C127.799 39.6862 128.53 40.4171 129.431 40.4171Z" fill="black"/>
<path d="M131.626 49.3766C131.303 49.3766 130.988 49.4723 130.719 49.6517C130.451 49.8311 130.242 50.0861 130.118 50.3844C129.994 50.6827 129.962 51.011 130.025 51.3277C130.088 51.6443 130.244 51.9352 130.472 52.1636C130.7 52.3919 130.991 52.5474 131.308 52.6104C131.624 52.6733 131.953 52.641 132.251 52.5175C132.549 52.3939 132.804 52.1846 132.984 51.9162C133.163 51.6477 133.259 51.332 133.259 51.0092C133.258 50.5764 133.086 50.1617 132.78 49.8557C132.474 49.5498 132.059 49.3775 131.626 49.3766Z" fill="black"/>
<path d="M144.163 49.1941C144.486 49.1941 144.801 49.0983 145.07 48.9189C145.338 48.7395 145.548 48.4846 145.671 48.1862C145.795 47.8879 145.827 47.5597 145.764 47.243C145.701 46.9263 145.546 46.6354 145.317 46.4071C145.089 46.1788 144.798 46.0233 144.481 45.9603C144.165 45.8973 143.836 45.9296 143.538 46.0532C143.24 46.1768 142.985 46.386 142.805 46.6545C142.626 46.923 142.53 47.2386 142.53 47.5615C142.531 47.9942 142.703 48.4089 143.009 48.7149C143.315 49.0209 143.73 49.1932 144.163 49.1941Z" fill="black"/>
<path d="M142.282 68.9399C142.605 68.9399 142.921 68.8442 143.189 68.6648C143.458 68.4854 143.667 68.2304 143.791 67.9321C143.914 67.6338 143.946 67.3056 143.883 66.9889C143.82 66.6722 143.665 66.3813 143.437 66.153C143.208 65.9247 142.917 65.7692 142.601 65.7062C142.284 65.6432 141.956 65.6755 141.658 65.7991C141.359 65.9226 141.104 66.1319 140.925 66.4004C140.745 66.6688 140.65 66.9845 140.65 67.3074C140.651 67.7401 140.823 68.1548 141.129 68.4608C141.435 68.7668 141.85 68.9391 142.282 68.9399Z" fill="black"/>
<path d="M144.724 77.3378C144.724 77.6607 144.82 77.9763 144.999 78.2448C145.179 78.5132 145.434 78.7225 145.732 78.8461C146.03 78.9696 146.359 79.002 146.675 78.939C146.992 78.876 147.283 78.7205 147.511 78.4922C147.739 78.2639 147.895 77.973 147.958 77.6563C148.021 77.3396 147.989 77.0113 147.865 76.713C147.741 76.4147 147.532 76.1597 147.264 75.9803C146.995 75.8009 146.68 75.7052 146.357 75.7052C145.924 75.7061 145.509 75.8784 145.203 76.1843C144.897 76.4903 144.725 76.9051 144.724 77.3378Z" fill="black"/>
<path d="M140.715 88.0601C141.038 88.0601 141.354 87.9644 141.622 87.785C141.891 87.6057 142.1 87.3507 142.223 87.0524C142.347 86.7541 142.379 86.4258 142.316 86.1091C142.253 85.7924 142.098 85.5015 141.87 85.2732C141.641 85.0448 141.35 84.8893 141.034 84.8263C140.717 84.7633 140.389 84.7956 140.09 84.9192C139.792 85.0428 139.537 85.252 139.358 85.5205C139.178 85.789 139.083 86.1046 139.083 86.4275C139.083 86.8602 139.256 87.275 139.562 87.5809C139.868 87.8869 140.282 88.0592 140.715 88.0601Z" fill="black"/>
<path d="M142.909 97.6455C142.586 97.6455 142.271 97.7413 142.002 97.9206C141.734 98.1 141.524 98.355 141.401 98.6533C141.277 98.9516 141.245 99.2799 141.308 99.5966C141.371 99.9133 141.526 100.204 141.755 100.432C141.983 100.661 142.274 100.816 142.591 100.879C142.907 100.942 143.236 100.91 143.534 100.786C143.832 100.663 144.087 100.454 144.266 100.185C144.446 99.9166 144.542 99.601 144.542 99.2781C144.541 98.8454 144.368 98.4306 144.062 98.1247C143.757 97.8187 143.342 97.6464 142.909 97.6455Z" fill="black"/>
<path d="M145.417 59.8505C146.318 59.8505 147.049 59.1196 147.049 58.218C147.049 57.3163 146.318 56.5854 145.417 56.5854C144.515 56.5854 143.784 57.3163 143.784 58.218C143.784 59.1196 144.515 59.8505 145.417 59.8505Z" fill="black"/>
<path d="M157.954 55.1489C158.277 55.1489 158.593 55.0532 158.861 54.8738C159.13 54.6944 159.339 54.4394 159.463 54.1411C159.586 53.8428 159.618 53.5145 159.555 53.1979C159.492 52.8812 159.337 52.5903 159.109 52.362C158.88 52.1336 158.589 51.9782 158.273 51.9152C157.956 51.8522 157.628 51.8845 157.329 52.0081C157.031 52.1316 156.776 52.3409 156.597 52.6094C156.417 52.8778 156.322 53.1935 156.322 53.5164C156.323 53.9491 156.495 54.3638 156.801 54.6698C157.107 54.9758 157.522 55.148 157.954 55.1489Z" fill="black"/>
<path d="M170.178 65.4923C170.501 65.4923 170.817 65.3965 171.086 65.2171C171.354 65.0378 171.563 64.7828 171.687 64.4845C171.81 64.1862 171.843 63.8579 171.78 63.5412C171.717 63.2245 171.561 62.9336 171.333 62.7053C171.105 62.477 170.814 62.3215 170.497 62.2585C170.18 62.1955 169.852 62.2278 169.554 62.3514C169.255 62.475 169 62.6842 168.821 62.9527C168.642 63.2212 168.546 63.5368 168.546 63.8597C168.547 64.2924 168.719 64.7072 169.025 65.0131C169.331 65.3191 169.746 65.4914 170.178 65.4923Z" fill="black"/>
<path d="M167.358 79.597C167.681 79.597 167.997 79.5012 168.265 79.3218C168.533 79.1424 168.743 78.8875 168.866 78.5891C168.99 78.2908 169.022 77.9626 168.959 77.6459C168.896 77.3292 168.741 77.0383 168.512 76.81C168.284 76.5817 167.993 76.4262 167.676 76.3632C167.36 76.3002 167.032 76.3325 166.733 76.4561C166.435 76.5797 166.18 76.7889 166.001 77.0574C165.821 77.3259 165.725 77.6415 165.725 77.9644C165.726 78.3971 165.899 78.8118 166.205 79.1178C166.511 79.4238 166.925 79.5961 167.358 79.597Z" fill="black"/>
<path d="M169.865 91.6896C169.542 91.6896 169.227 91.7853 168.958 91.9647C168.69 92.1441 168.48 92.3991 168.357 92.6974C168.233 92.9957 168.201 93.324 168.264 93.6406C168.327 93.9573 168.482 94.2482 168.711 94.4765C168.939 94.7049 169.23 94.8603 169.547 94.9233C169.863 94.9863 170.192 94.954 170.49 94.8304C170.788 94.7069 171.043 94.4976 171.223 94.2291C171.402 93.9607 171.498 93.645 171.498 93.3221C171.497 92.8894 171.325 92.4747 171.019 92.1687C170.713 91.8627 170.298 91.6905 169.865 91.6896Z" fill="black"/>
<path d="M167.358 109.06C168.26 109.06 168.991 108.329 168.991 107.427C168.991 106.526 168.26 105.795 167.358 105.795C166.456 105.795 165.725 106.526 165.725 107.427C165.725 108.329 166.456 109.06 167.358 109.06Z" fill="black"/>
<path d="M80.0653 56.4018C80.967 56.4018 81.6979 55.6709 81.6979 54.7693C81.6979 53.8676 80.967 53.1367 80.0653 53.1367C79.1637 53.1367 78.4328 53.8676 78.4328 54.7693C78.4328 55.6709 79.1637 56.4018 80.0653 56.4018Z" fill="black"/>
</g>
<defs>
<clipPath id="clip0_3_224">
<rect width="200" height="200" fill="white"/>
</clipPath>
</defs>
</svg>
