<svg width="200" height="200" viewBox="0 0 200 200" fill="none" xmlns="http://www.w3.org/2000/svg">
<g clip-path="url(#clip0_3_177)">
<path d="M100.548 12.0572C100.394 11.954 100.213 11.8961 100.027 11.8901C99.8416 11.8841 99.6578 11.9302 99.4968 12.0233L61.7739 33.8021L24.1382 55.5337C23.9633 55.6126 23.8149 55.7404 23.7108 55.9016C23.6067 56.0629 23.5513 56.2507 23.5514 56.4426V143.56H23.5563L23.5593 143.571L23.5539 143.598C23.5551 143.808 23.6235 144.013 23.7491 144.181C23.8746 144.35 24.0508 144.474 24.2518 144.535L61.7779 166.199L99.5009 187.978C99.6513 188.065 99.8218 188.11 99.9953 188.11C100.169 188.11 100.339 188.065 100.49 187.978L138.213 166.199L175.853 144.469C176.028 144.39 176.176 144.262 176.28 144.101C176.384 143.94 176.439 143.752 176.439 143.56V56.4418H176.434C176.434 56.2672 176.388 56.0956 176.301 55.9445C176.214 55.7934 176.088 55.668 175.936 55.581L138.213 33.8021L100.548 12.0572ZM137.224 164.478L99.9959 185.971L62.768 164.478L28.3275 144.595H39.49L61.5753 157.345L61.6243 157.376L99.3472 179.155L99.3483 179.153C99.4989 179.241 99.6699 179.287 99.844 179.287C100.018 179.288 100.189 179.242 100.34 179.155L138.064 157.376L160.202 144.595H171.663L137.224 164.478ZM70.4673 144.595L99.5009 161.357C99.6513 161.444 99.8218 161.489 99.9953 161.489C100.169 161.489 100.339 161.444 100.49 161.357L129.524 144.595H140.967L137.224 146.756L99.9974 168.249L62.7709 146.756L62.7152 146.725L59.0247 144.596L70.4673 144.595ZM85.8797 144.595L99.5009 152.459C99.6514 152.545 99.8218 152.591 99.9953 152.591C100.169 152.591 100.339 152.545 100.49 152.459L114.111 144.595H125.554L99.9959 159.35L74.438 144.595H85.8797ZM110.141 144.595L99.9959 150.452L89.8502 144.595H110.141ZM55.0542 144.595L61.7253 148.447L61.7742 148.477L99.4968 170.257L99.4979 170.255C99.6485 170.342 99.8195 170.388 99.9936 170.388C100.168 170.389 100.339 170.343 100.49 170.257L138.213 148.477L144.937 144.595H156.231L137.075 155.654L99.8468 177.147L62.6211 155.654L62.5658 155.624L43.4606 144.595H55.0542ZM174.444 100.001V142.6H162.774V128.983L167.826 133.134C167.927 133.218 168.043 133.281 168.168 133.319C168.293 133.358 168.425 133.371 168.555 133.359C168.685 133.346 168.812 133.308 168.927 133.247C169.043 133.185 169.145 133.102 169.228 133.001C169.311 132.9 169.374 132.783 169.412 132.658C169.45 132.533 169.462 132.401 169.449 132.271C169.436 132.141 169.398 132.014 169.336 131.899C169.274 131.784 169.19 131.682 169.088 131.599L162.774 126.412V119.096L167.826 123.247C168.03 123.411 168.29 123.487 168.55 123.46C168.81 123.433 169.049 123.305 169.215 123.103C169.381 122.901 169.461 122.642 169.437 122.382C169.413 122.121 169.288 121.881 169.088 121.712L162.4 116.217C162.222 116.071 161.999 115.991 161.768 115.992C161.538 115.992 161.314 116.072 161.136 116.219L154.45 121.712C154.347 121.795 154.262 121.897 154.199 122.012C154.136 122.127 154.096 122.254 154.083 122.385C154.069 122.516 154.082 122.648 154.12 122.774C154.158 122.9 154.22 123.017 154.304 123.119C154.387 123.22 154.49 123.304 154.607 123.366C154.723 123.427 154.85 123.465 154.981 123.477C155.112 123.489 155.244 123.475 155.37 123.435C155.495 123.396 155.611 123.332 155.712 123.247L160.764 119.096V126.411L154.449 131.599C154.348 131.682 154.263 131.784 154.202 131.899C154.14 132.014 154.101 132.141 154.088 132.271C154.075 132.401 154.088 132.533 154.126 132.658C154.164 132.783 154.226 132.9 154.309 133.001C154.392 133.102 154.495 133.185 154.61 133.247C154.726 133.308 154.852 133.346 154.983 133.359C155.113 133.371 155.244 133.358 155.369 133.319C155.494 133.281 155.611 133.218 155.711 133.134L160.763 128.983V142.6H142.181V128.983L147.234 133.134C147.438 133.302 147.7 133.381 147.962 133.356C148.224 133.33 148.466 133.202 148.633 132.998C148.8 132.794 148.88 132.533 148.855 132.27C148.829 132.008 148.7 131.767 148.497 131.599L142.181 126.411V119.096L147.234 123.248C147.438 123.413 147.699 123.491 147.96 123.465C148.221 123.439 148.461 123.31 148.628 123.108C148.795 122.905 148.874 122.645 148.85 122.383C148.825 122.122 148.698 121.881 148.497 121.713L142.181 116.524V109.208L147.234 113.359C147.438 113.525 147.699 113.603 147.96 113.576C148.221 113.55 148.461 113.422 148.628 113.219C148.795 113.016 148.874 112.756 148.85 112.495C148.825 112.234 148.698 111.993 148.497 111.825L141.808 106.33C141.63 106.184 141.407 106.104 141.176 106.104C140.946 106.104 140.722 106.184 140.544 106.331L133.858 111.824C133.756 111.907 133.672 112.009 133.61 112.124C133.547 112.239 133.509 112.366 133.496 112.496C133.482 112.627 133.495 112.758 133.533 112.884C133.571 113.009 133.634 113.126 133.717 113.227C133.8 113.328 133.902 113.412 134.018 113.473C134.134 113.535 134.261 113.573 134.391 113.585C134.522 113.597 134.653 113.584 134.778 113.545C134.904 113.506 135.02 113.443 135.12 113.359L140.172 109.208V116.524L133.858 121.712C133.756 121.795 133.671 121.897 133.609 122.012C133.547 122.128 133.508 122.254 133.495 122.384C133.482 122.515 133.495 122.646 133.533 122.772C133.571 122.897 133.633 123.014 133.716 123.115C133.8 123.216 133.902 123.3 134.018 123.362C134.133 123.423 134.26 123.461 134.391 123.473C134.521 123.485 134.653 123.472 134.778 123.433C134.903 123.394 135.019 123.331 135.12 123.247L140.172 119.096V126.411L133.857 131.599C133.756 131.682 133.673 131.784 133.611 131.899C133.55 132.014 133.512 132.141 133.499 132.27C133.474 132.533 133.553 132.794 133.721 132.998C133.888 133.202 134.13 133.33 134.392 133.356C134.654 133.381 134.916 133.302 135.119 133.134L140.171 128.983V142.6H121.584V128.978L126.643 133.135C126.744 133.218 126.86 133.282 126.985 133.32C127.11 133.359 127.242 133.373 127.373 133.361C127.503 133.348 127.63 133.31 127.745 133.249C127.861 133.188 127.964 133.104 128.047 133.003C128.13 132.901 128.193 132.785 128.23 132.659C128.268 132.534 128.281 132.402 128.268 132.272C128.255 132.141 128.216 132.015 128.154 131.9C128.092 131.784 128.007 131.682 127.906 131.6L121.584 126.406V119.09L126.643 123.248C126.847 123.413 127.108 123.491 127.369 123.465C127.63 123.439 127.87 123.31 128.037 123.108C128.203 122.905 128.283 122.645 128.259 122.383C128.234 122.122 128.107 121.881 127.906 121.713L121.584 116.52V109.202L126.643 113.359C126.847 113.525 127.108 113.603 127.369 113.576C127.63 113.55 127.87 113.422 128.037 113.219C128.203 113.016 128.283 112.756 128.259 112.495C128.234 112.234 128.107 111.993 127.906 111.825L121.584 106.632V99.3147L126.643 103.471C126.847 103.639 127.108 103.719 127.371 103.693C127.633 103.668 127.874 103.539 128.042 103.335C128.209 103.132 128.289 102.87 128.263 102.608C128.238 102.346 128.109 102.104 127.906 101.937L121.217 96.4419C121.039 96.2957 120.815 96.2158 120.585 96.216C120.354 96.2162 120.131 96.2964 119.953 96.4429L113.268 101.936C113.167 102.019 113.083 102.121 113.022 102.236C112.961 102.351 112.923 102.477 112.91 102.607C112.897 102.737 112.91 102.868 112.948 102.993C112.986 103.118 113.049 103.234 113.132 103.335C113.214 103.435 113.316 103.519 113.432 103.58C113.547 103.641 113.673 103.68 113.803 103.692C113.932 103.705 114.064 103.692 114.188 103.654C114.313 103.616 114.429 103.553 114.53 103.471L119.59 99.3136V106.63L113.268 111.824C113.166 111.907 113.081 112.009 113.019 112.124C112.957 112.239 112.918 112.366 112.905 112.496C112.892 112.627 112.905 112.758 112.943 112.884C112.981 113.009 113.043 113.126 113.126 113.227C113.21 113.328 113.312 113.412 113.428 113.473C113.544 113.535 113.67 113.573 113.801 113.585C113.931 113.597 114.063 113.584 114.188 113.545C114.313 113.506 114.429 113.443 114.53 113.359L119.589 109.202V116.518L113.268 121.712C113.166 121.795 113.081 121.897 113.019 122.012C112.957 122.128 112.918 122.254 112.905 122.384C112.892 122.515 112.905 122.646 112.943 122.772C112.981 122.897 113.043 123.014 113.126 123.115C113.21 123.216 113.312 123.3 113.428 123.362C113.544 123.423 113.67 123.461 113.801 123.473C113.931 123.485 114.063 123.472 114.188 123.433C114.313 123.394 114.429 123.331 114.53 123.247L119.59 119.09V126.406L113.268 131.6C113.166 131.682 113.081 131.784 113.019 131.9C112.957 132.015 112.918 132.141 112.905 132.272C112.892 132.402 112.905 132.534 112.943 132.659C112.981 132.785 113.043 132.901 113.126 133.003C113.21 133.104 113.312 133.188 113.428 133.249C113.544 133.31 113.67 133.348 113.801 133.361C113.931 133.373 114.063 133.359 114.188 133.32C114.313 133.282 114.429 133.218 114.53 133.135L119.59 128.978V142.6H100.992V128.976L106.051 133.134C106.152 133.217 106.268 133.279 106.393 133.317C106.517 133.355 106.649 133.368 106.778 133.356C106.908 133.343 107.034 133.305 107.15 133.244C107.265 133.182 107.367 133.099 107.45 132.998C107.532 132.897 107.595 132.781 107.633 132.656C107.671 132.531 107.684 132.4 107.671 132.27C107.658 132.141 107.62 132.014 107.559 131.899C107.498 131.784 107.414 131.682 107.313 131.599L100.992 126.405V119.09L106.051 123.247C106.152 123.331 106.268 123.394 106.393 123.432C106.518 123.471 106.65 123.485 106.78 123.473C106.911 123.46 107.037 123.422 107.153 123.361C107.269 123.3 107.371 123.216 107.455 123.115C107.538 123.013 107.6 122.897 107.638 122.771C107.676 122.646 107.689 122.514 107.676 122.384C107.663 122.253 107.624 122.127 107.562 122.012C107.499 121.896 107.415 121.794 107.313 121.712L100.992 116.518V109.202L106.051 113.358C106.254 113.525 106.516 113.605 106.778 113.579C107.041 113.554 107.282 113.425 107.45 113.222C107.617 113.018 107.697 112.756 107.671 112.494C107.646 112.232 107.517 111.99 107.313 111.823L100.992 106.629V99.3129L106.051 103.47C106.254 103.637 106.516 103.717 106.778 103.691C107.041 103.666 107.282 103.537 107.45 103.334C107.617 103.13 107.697 102.868 107.671 102.606C107.646 102.344 107.517 102.102 107.313 101.935L100.992 96.7407V89.4242L106.051 93.5812C106.254 93.7486 106.516 93.8283 106.778 93.8028C107.041 93.7772 107.282 93.6485 107.45 93.445C107.617 93.2414 107.697 92.9797 107.671 92.7174C107.646 92.4551 107.517 92.2137 107.313 92.0463L100.627 86.5525C100.449 86.4059 100.226 86.3257 99.9952 86.3254C99.7647 86.3252 99.5413 86.405 99.3631 86.5512L92.6744 92.0463C92.4708 92.2137 92.3422 92.4551 92.3166 92.7174C92.2911 92.9797 92.3707 93.2414 92.5381 93.445C92.7056 93.6485 92.947 93.7772 93.2093 93.8028C93.4715 93.8283 93.7333 93.7486 93.9368 93.5812L98.9961 89.424V96.7409L92.6744 101.935C92.5736 102.018 92.4901 102.12 92.4287 102.235C92.3674 102.35 92.3293 102.476 92.3166 102.606C92.3039 102.736 92.317 102.867 92.355 102.992C92.393 103.117 92.4553 103.233 92.5381 103.334C92.621 103.434 92.723 103.518 92.8381 103.579C92.9533 103.641 93.0794 103.679 93.2093 103.691C93.3391 103.704 93.4702 103.691 93.5951 103.653C93.7199 103.615 93.836 103.553 93.9368 103.47L98.9961 99.3127V106.629L92.6744 111.823C92.4708 111.99 92.3422 112.232 92.3166 112.494C92.2911 112.756 92.3707 113.018 92.5381 113.222C92.7056 113.425 92.947 113.554 93.2093 113.579C93.4715 113.605 93.7333 113.525 93.9368 113.358L98.9975 109.202V116.518L92.6758 121.713C92.5741 121.795 92.4896 121.897 92.4274 122.012C92.3652 122.128 92.3264 122.254 92.3133 122.385C92.3002 122.515 92.313 122.647 92.3509 122.772C92.3889 122.897 92.4513 123.014 92.5346 123.115C92.6178 123.217 92.7202 123.3 92.836 123.362C92.9517 123.423 93.0785 123.461 93.2089 123.473C93.3394 123.486 93.471 123.472 93.5961 123.433C93.7213 123.394 93.8376 123.331 93.9382 123.247L98.9975 119.09V126.406L92.6758 131.6C92.575 131.683 92.4915 131.785 92.4302 131.9C92.3688 132.015 92.3307 132.141 92.318 132.271C92.3054 132.401 92.3184 132.532 92.3564 132.657C92.3944 132.782 92.4567 132.898 92.5396 132.999C92.6225 133.099 92.7244 133.183 92.8395 133.244C92.9547 133.306 93.0808 133.344 93.2107 133.356C93.3405 133.369 93.4716 133.356 93.5965 133.318C93.7213 133.28 93.8374 133.218 93.9382 133.135L98.9975 128.978V142.602H80.4012V128.978L85.4605 133.135C85.5611 133.218 85.6774 133.282 85.8025 133.32C85.9277 133.359 86.0593 133.373 86.1897 133.361C86.3202 133.348 86.4469 133.31 86.5627 133.249C86.6784 133.188 86.7809 133.104 86.8641 133.003C86.9473 132.901 87.0097 132.785 87.0477 132.659C87.0857 132.534 87.0985 132.402 87.0854 132.272C87.0722 132.141 87.0334 132.015 86.9712 131.9C86.909 131.784 86.8246 131.682 86.7229 131.6L80.4012 126.406V119.09L85.4605 123.248C85.5611 123.332 85.6774 123.395 85.8025 123.434C85.9277 123.473 86.0593 123.486 86.1897 123.474C86.3202 123.462 86.4469 123.424 86.5627 123.362C86.6784 123.301 86.7809 123.217 86.8641 123.116C86.9473 123.015 87.0097 122.898 87.0477 122.773C87.0857 122.647 87.0985 122.515 87.0854 122.385C87.0722 122.255 87.0334 122.128 86.9712 122.013C86.909 121.898 86.8246 121.796 86.7229 121.713L80.4012 116.519V109.202L85.4605 113.359C85.5611 113.443 85.6774 113.506 85.8025 113.545C85.9277 113.584 86.0593 113.598 86.1897 113.585C86.3202 113.573 86.4469 113.535 86.5627 113.474C86.6784 113.412 86.7809 113.329 86.8641 113.227C86.9473 113.126 87.0097 113.009 87.0477 112.884C87.0857 112.759 87.0985 112.627 87.0854 112.497C87.0722 112.366 87.0334 112.24 86.9712 112.124C86.909 112.009 86.8246 111.907 86.7229 111.825L80.4012 106.63V99.3138L85.4605 103.471C85.5612 103.553 85.6773 103.616 85.8021 103.654C85.9269 103.692 86.058 103.705 86.1879 103.692C86.3177 103.68 86.4438 103.641 86.559 103.58C86.6741 103.519 86.776 103.435 86.8589 103.335C86.9418 103.234 87.0041 103.118 87.0421 102.993C87.0801 102.868 87.0932 102.737 87.0805 102.607C87.0679 102.477 87.0298 102.351 86.9684 102.236C86.9071 102.121 86.8236 102.019 86.7229 101.936L80.0365 96.442C79.8585 96.2955 79.6352 96.2153 79.4048 96.2151C79.1743 96.215 78.9509 96.2948 78.7727 96.441L72.084 101.936C71.9832 102.019 71.8998 102.121 71.8384 102.236C71.777 102.351 71.7389 102.477 71.7263 102.607C71.7137 102.737 71.7267 102.868 71.7648 102.993C71.8028 103.118 71.865 103.234 71.9479 103.335C72.0308 103.435 72.1327 103.519 72.2479 103.58C72.363 103.641 72.4891 103.68 72.619 103.692C72.7488 103.705 72.8799 103.692 73.0047 103.654C73.1295 103.616 73.2456 103.553 73.3464 103.471L78.4062 99.3136V106.631L72.0841 111.824C71.9824 111.907 71.898 112.009 71.8358 112.124C71.7736 112.239 71.7348 112.366 71.7217 112.496C71.7085 112.627 71.7213 112.758 71.7593 112.884C71.7973 113.009 71.8597 113.126 71.9429 113.227C72.0262 113.328 72.1286 113.412 72.2443 113.473C72.3601 113.535 72.4868 113.573 72.6173 113.585C72.7477 113.597 72.8793 113.584 73.0045 113.545C73.1297 113.506 73.2459 113.443 73.3466 113.359L78.4064 109.202V116.518L72.0841 121.712C71.9824 121.794 71.898 121.896 71.8358 122.011C71.7736 122.127 71.7348 122.253 71.7217 122.384C71.7085 122.514 71.7213 122.646 71.7593 122.771C71.7973 122.897 71.8597 123.013 71.9429 123.114C72.0262 123.216 72.1286 123.299 72.2443 123.361C72.3601 123.422 72.4868 123.46 72.6173 123.472C72.7477 123.485 72.8793 123.471 73.0045 123.432C73.1297 123.393 73.2459 123.33 73.3466 123.246L78.4064 119.09V126.405L72.0841 131.6C71.9824 131.682 71.898 131.784 71.8358 131.9C71.7736 132.015 71.7348 132.141 71.7217 132.272C71.7085 132.402 71.7213 132.534 71.7593 132.659C71.7973 132.785 71.8597 132.901 71.9429 133.003C72.0262 133.104 72.1286 133.188 72.2443 133.249C72.3601 133.31 72.4868 133.348 72.6173 133.361C72.7477 133.373 72.8793 133.359 73.0045 133.32C73.1297 133.282 73.2459 133.218 73.3466 133.135L78.4064 128.978V142.6H59.8169V128.983L64.8695 133.134C64.9702 133.218 65.0864 133.281 65.2115 133.319C65.3365 133.358 65.468 133.371 65.5982 133.359C65.7285 133.346 65.855 133.308 65.9706 133.247C66.0861 133.185 66.1883 133.102 66.2715 133.001C66.3546 132.9 66.4169 132.783 66.4549 132.658C66.4928 132.533 66.5057 132.401 66.4927 132.271C66.4797 132.141 66.4412 132.014 66.3792 131.899C66.3173 131.784 66.2332 131.682 66.1317 131.599L59.8169 126.411V119.096L64.8695 123.248C64.9701 123.333 65.0864 123.397 65.2119 123.436C65.3373 123.476 65.4694 123.49 65.6004 123.478C65.7314 123.466 65.8587 123.428 65.9749 123.367C66.0912 123.305 66.1941 123.221 66.2776 123.12C66.3612 123.018 66.4237 122.901 66.4617 122.775C66.4996 122.649 66.5121 122.517 66.4985 122.386C66.485 122.255 66.4456 122.128 66.3826 122.013C66.3196 121.897 66.2344 121.795 66.1317 121.713L59.8169 116.524V109.208L64.8695 113.359C64.9701 113.444 65.0864 113.508 65.2119 113.548C65.3373 113.587 65.4694 113.601 65.6004 113.589C65.7314 113.577 65.8587 113.54 65.9749 113.478C66.0912 113.417 66.1941 113.333 66.2776 113.231C66.3612 113.129 66.4237 113.012 66.4617 112.886C66.4996 112.76 66.5121 112.628 66.4985 112.497C66.485 112.366 66.4456 112.24 66.3826 112.124C66.3196 112.009 66.2344 111.907 66.1317 111.825L59.4454 106.331C59.2674 106.184 59.0441 106.104 58.8136 106.104C58.5831 106.104 58.3596 106.183 58.1815 106.33L51.4929 111.825C51.3921 111.908 51.3086 112.009 51.2473 112.125C51.1859 112.24 51.1478 112.366 51.1352 112.496C51.1225 112.626 51.1356 112.757 51.1736 112.882C51.2116 113.006 51.2739 113.122 51.3568 113.223C51.4397 113.324 51.5416 113.407 51.6568 113.469C51.7719 113.53 51.8981 113.568 52.0279 113.581C52.1578 113.594 52.2889 113.581 52.4137 113.542C52.5385 113.504 52.6547 113.442 52.7554 113.359L57.808 109.208V116.524L51.4929 121.712C51.2893 121.88 51.1607 122.121 51.1352 122.383C51.1096 122.646 51.1894 122.907 51.3568 123.111C51.5242 123.314 51.7656 123.443 52.0279 123.469C52.2902 123.494 52.5519 123.414 52.7554 123.247L57.808 119.095V126.411L51.4929 131.599C51.3903 131.681 51.305 131.783 51.2421 131.899C51.1792 132.014 51.1398 132.141 51.1263 132.272C51.1127 132.403 51.1253 132.535 51.1632 132.661C51.2012 132.787 51.2637 132.904 51.3473 133.006C51.4308 133.107 51.5337 133.191 51.65 133.253C51.7662 133.314 51.8936 133.352 52.0245 133.364C52.1555 133.376 52.2876 133.362 52.413 133.322C52.5385 133.283 52.6549 133.219 52.7554 133.134L57.808 128.983V142.6H39.2263V128.983L44.278 133.134C44.3788 133.217 44.495 133.279 44.6198 133.317C44.7446 133.355 44.8757 133.368 45.0056 133.356C45.1355 133.343 45.2616 133.305 45.3767 133.243C45.4919 133.182 45.5938 133.099 45.6767 132.998C45.7596 132.897 45.8218 132.781 45.8598 132.656C45.8978 132.531 45.9109 132.4 45.8982 132.27C45.8856 132.14 45.8475 132.014 45.7861 131.899C45.7247 131.784 45.6412 131.682 45.5404 131.599L39.2262 126.411V119.096L44.2779 123.247C44.3785 123.331 44.4948 123.394 44.6199 123.433C44.7451 123.472 44.8767 123.485 45.0071 123.473C45.1376 123.461 45.2644 123.423 45.3801 123.362C45.4958 123.3 45.5983 123.216 45.6815 123.115C45.7647 123.014 45.8272 122.897 45.8651 122.772C45.9031 122.646 45.9159 122.515 45.9028 122.384C45.8896 122.254 45.8509 122.128 45.7886 122.012C45.7264 121.897 45.642 121.795 45.5403 121.712L38.8525 116.217C38.6742 116.071 38.4508 115.991 38.2203 115.992C37.9897 115.992 37.7664 116.072 37.5885 116.219L30.9021 121.712C30.8013 121.795 30.7179 121.897 30.6565 122.012C30.5951 122.128 30.557 122.254 30.5444 122.384C30.5189 122.646 30.5986 122.908 30.766 123.111C30.9334 123.315 31.1749 123.443 31.4372 123.469C31.6995 123.494 31.9611 123.415 32.1647 123.247L37.2164 119.096V126.411L30.9023 131.599C30.7997 131.682 30.7144 131.784 30.6515 131.899C30.5886 132.015 30.5492 132.141 30.5357 132.272C30.5221 132.403 30.5347 132.535 30.5726 132.661C30.6106 132.787 30.6731 132.904 30.7567 133.006C30.8403 133.107 30.9431 133.191 31.0594 133.253C31.1757 133.314 31.303 133.352 31.4339 133.364C31.5649 133.376 31.697 133.362 31.8224 133.322C31.9479 133.283 32.0643 133.219 32.1648 133.134L37.2166 128.983V142.6H25.5466V57.0122L62.7668 35.5234L62.7698 35.5215L62.7709 35.5234L99.9974 14.0302L137.224 35.5234L174.444 57.0122V100.001Z" fill="black"/>
<path d="M186.734 50.4975C186.734 50.3231 186.688 50.1518 186.601 50.0007C186.514 49.8496 186.389 49.7241 186.238 49.6366L143.367 24.8839L143.366 24.886L143.363 24.8839L100.49 0.132049C100.339 0.0455326 100.169 0 99.9953 0C99.8218 0 99.6513 0.0455326 99.5009 0.132049L56.6801 24.8538L56.6246 24.8839L13.822 49.5966C13.6519 49.6778 13.5082 49.8055 13.4077 49.9649C13.3072 50.1244 13.254 50.309 13.2542 50.4975V149.503H13.2571C13.2572 149.677 13.303 149.849 13.39 150C13.477 150.151 13.6022 150.276 13.753 150.364L56.625 175.117L56.6261 175.115L56.6292 175.117L99.5009 199.869C99.6514 199.955 99.8218 200 99.9953 200C100.169 200 100.339 199.955 100.49 199.869L143.311 175.147L143.366 175.117L186.169 150.403C186.339 150.322 186.483 150.195 186.583 150.035C186.684 149.876 186.737 149.691 186.737 149.503V50.4975H186.734ZM184.742 100.001V148.93L142.369 173.395L142.32 173.426L99.9959 197.862L57.6206 173.397L57.6216 173.396L15.249 148.929V51.0701L57.6216 26.6053L57.6705 26.5747L99.9959 2.13883L142.37 26.6038L142.369 26.6053L184.742 51.0701V100.001Z" fill="black"/>
<path d="M126.674 54.2785C126.675 48.1056 124.535 42.1235 120.619 37.3514C116.704 32.5794 111.255 29.3126 105.201 28.1078C99.1465 26.903 92.8619 27.8347 87.4177 30.7442C81.9734 33.6537 77.7065 38.3609 75.3438 44.0637C72.9812 49.7665 72.6691 56.1122 74.4606 62.0193C76.2522 67.9265 80.0366 73.0297 85.169 76.4594C90.3014 79.8892 96.4642 81.4331 102.607 80.8283C108.751 80.2235 114.494 77.5073 118.859 73.1425C121.34 70.668 123.308 67.7276 124.649 64.4903C125.99 61.253 126.678 57.7826 126.674 54.2785ZM99.9958 78.9617C94.2851 78.9617 88.751 76.9815 84.3366 73.3586C79.9221 69.7358 76.9004 64.6943 75.7864 59.0933C74.6723 53.4923 75.5347 47.6782 78.2268 42.6418C80.9188 37.6054 85.2739 33.6582 90.5499 31.4728C95.8259 29.2874 101.697 28.999 107.161 30.6568C112.626 32.3145 117.347 35.8159 120.52 40.5642C123.693 45.3125 125.121 51.014 124.561 56.6972C124.001 62.3805 121.488 67.6938 117.45 71.7319C115.16 74.0274 112.44 75.8478 109.444 77.0885C106.449 78.3292 103.238 78.9658 99.9958 78.9617Z" fill="black"/>
<path d="M114.543 39.7301C111.177 36.3646 106.749 34.2702 102.012 33.8038C97.2753 33.3375 92.5233 34.5279 88.5659 37.1723C84.6084 39.8168 81.6902 43.7516 80.3086 48.3064C78.927 52.8612 79.1675 57.7541 80.989 62.1515C82.8105 66.5488 86.1004 70.1786 90.2981 72.4223C94.4958 74.666 99.3415 75.3848 104.01 74.4562C108.678 73.5277 112.88 71.0092 115.899 67.3299C118.919 63.6507 120.569 59.0382 120.57 54.2785C120.573 51.5761 120.042 48.8996 119.008 46.4029C117.974 43.9062 116.457 41.6385 114.543 39.7301ZM113.133 67.4163C109.893 70.6533 105.567 72.5741 100.993 72.8074V67.9606C100.989 67.6983 100.883 67.448 100.696 67.2638C100.509 67.0796 100.258 66.9763 99.9954 66.9763C99.7332 66.9763 99.4814 67.0796 99.2948 67.2638C99.1081 67.448 99.0015 67.6983 98.998 67.9606V72.8074C94.4231 72.5765 90.0968 70.6553 86.8578 67.4162C83.6187 64.1772 81.6975 59.8509 81.4666 55.276H86.3134C86.5757 55.2725 86.826 55.1659 87.0102 54.9792C87.1944 54.7926 87.2977 54.5409 87.2977 54.2786C87.2977 54.0163 87.1944 53.7646 87.0102 53.578C86.826 53.3913 86.5757 53.2847 86.3134 53.2812H81.4659C81.6969 48.7063 83.618 44.3801 86.8571 41.141C90.0962 37.9019 94.4224 35.9808 98.9973 35.7498V40.5965C98.9955 40.7285 99.02 40.8597 99.0694 40.9822C99.1187 41.1048 99.1919 41.2163 99.2847 41.3103C99.3775 41.4044 99.488 41.479 99.6099 41.53C99.7318 41.581 99.8626 41.6072 99.9947 41.6072C100.127 41.6072 100.258 41.581 100.379 41.53C100.501 41.479 100.612 41.4044 100.705 41.3103C100.797 41.2163 100.871 41.1048 100.92 40.9822C100.969 40.8597 100.994 40.7285 100.992 40.5965V35.7493C105.567 35.9803 109.893 37.9015 113.132 41.1405C116.371 44.3796 118.293 48.7058 118.524 53.2807H113.678C113.545 53.2789 113.414 53.3034 113.292 53.3528C113.169 53.4021 113.058 53.4753 112.964 53.5681C112.87 53.6609 112.795 53.7714 112.744 53.8933C112.693 54.0152 112.667 54.146 112.667 54.2781C112.667 54.4102 112.693 54.541 112.744 54.6629C112.795 54.7847 112.87 54.8953 112.964 54.9881C113.058 55.0809 113.169 55.1541 113.292 55.2034C113.414 55.2527 113.545 55.2772 113.678 55.2755H118.524C118.291 59.85 116.37 64.1757 113.133 67.4163Z" fill="black"/>
<path d="M108.923 44.0089L102.69 47.1535L96.4568 50.2977C96.2658 50.3937 96.1108 50.5487 96.0147 50.7397L92.8703 56.9732L89.7259 63.206C89.6313 63.3937 89.5983 63.6064 89.6317 63.8139C89.665 64.0214 89.7629 64.2131 89.9115 64.3617C90.0601 64.5103 90.2518 64.6083 90.4593 64.6416C90.6668 64.675 90.8795 64.642 91.0672 64.5474L97.3005 61.4029L103.534 58.2587C103.725 58.1627 103.88 58.0075 103.976 57.8163L107.12 51.5837L110.265 45.3504C110.359 45.1627 110.392 44.95 110.359 44.7425C110.326 44.535 110.228 44.3433 110.079 44.1947C109.93 44.0461 109.739 43.9481 109.531 43.9148C109.324 43.8814 109.111 43.9144 108.923 44.0089ZM96.4014 59.6198L92.8743 61.399L94.6535 57.8723L97.1769 52.87L101.403 57.0962L96.4014 59.6198ZM105.337 50.6846L102.813 55.6863L98.5877 51.46L103.59 48.9366L107.116 47.1574L105.337 50.6846Z" fill="black"/>
<path d="M159.289 78.6625C158.705 78.9301 158.158 79.2704 157.66 79.6754C156.99 78.7303 156.137 77.9298 155.151 77.3217C154.165 76.7136 153.066 76.3105 151.921 76.1363C150.776 75.9622 149.607 76.0206 148.485 76.3081C147.363 76.5956 146.31 77.1063 145.39 77.8096C144.628 76.0876 143.369 74.6321 141.775 73.6297C140.181 72.6272 138.324 72.1233 136.442 72.1826C134.56 72.2419 132.739 72.8616 131.211 73.9625C129.683 75.0633 128.519 76.5951 127.867 78.3616C127.671 78.2969 127.471 78.2394 127.267 78.1893C126.005 77.88 124.684 77.9016 123.432 78.252C122.181 78.6024 121.04 79.2697 120.122 80.1894L120.124 80.1913L120.122 80.1933C119.419 80.8949 118.861 81.7286 118.48 82.6464C118.1 83.5642 117.904 84.5481 117.905 85.5416C117.905 85.6953 117.912 85.8653 117.924 86.0498C117.933 86.1827 117.947 86.3219 117.964 86.4645C117.976 86.7205 118.086 86.9621 118.272 87.1391C118.457 87.3161 118.704 87.4149 118.96 87.415H168.954V87.4125C169.194 87.4124 169.427 87.325 169.608 87.1663C169.79 87.0077 169.907 86.7887 169.939 86.55C169.961 86.3875 169.978 86.226 169.989 86.0688L169.99 86.0492C170.003 85.8648 170.009 85.6947 170.009 85.5411C170.01 84.5469 169.815 83.5623 169.435 82.6438C169.054 81.7253 168.496 80.891 167.792 80.1889L167.79 80.1908L167.788 80.1889C166.698 79.0962 165.298 78.364 163.779 78.0909C162.259 77.8178 160.692 78.0179 159.289 78.6625ZM168.014 85.4215H119.9C119.929 83.9842 120.513 82.6138 121.53 81.5974L121.532 81.5993C122.367 80.7582 123.45 80.2066 124.621 80.0252C125.793 79.8438 126.991 80.0422 128.042 80.5913C128.18 80.6629 128.333 80.7012 128.488 80.7032C128.644 80.7051 128.798 80.6707 128.937 80.6025C129.077 80.5344 129.199 80.4345 129.294 80.3108C129.388 80.1871 129.452 80.0431 129.481 79.8902C129.87 78.2659 130.793 76.8191 132.101 75.7811C133.41 74.7432 135.029 74.1741 136.699 74.1649C138.369 74.1557 139.994 74.7069 141.314 75.7303C142.634 76.7538 143.573 78.1904 143.98 79.8103C144.024 79.9867 144.115 80.1476 144.244 80.2757C144.374 80.4038 144.535 80.494 144.712 80.5367C144.889 80.5793 145.074 80.5728 145.247 80.5177C145.42 80.4626 145.575 80.3611 145.695 80.2243C146.419 79.4205 147.328 78.8058 148.344 78.4335C149.359 78.0613 150.45 77.9428 151.522 78.0885C152.594 78.2341 153.614 78.6394 154.493 79.2691C155.373 79.8988 156.085 80.7338 156.568 81.7016C156.641 81.8478 156.75 81.9736 156.883 82.0679C157.017 82.1622 157.171 82.2222 157.334 82.2423C157.496 82.2625 157.661 82.2423 157.813 82.1835C157.966 82.1247 158.101 82.0292 158.208 81.9054L158.211 81.9079C158.712 81.3258 159.327 80.8533 160.018 80.52C160.71 80.1866 161.463 79.9994 162.23 79.9703C162.997 79.9412 163.762 80.0706 164.477 80.3506C165.191 80.6305 165.841 81.055 166.384 81.5974L166.382 81.5993C167.4 82.6144 167.985 83.9844 168.014 85.4215Z" fill="black"/>
<path d="M33.3598 66.4752C33.3952 66.7518 33.4465 67.0261 33.5135 67.2968C33.5518 67.5302 33.6718 67.7425 33.8521 67.8956C34.0324 68.0488 34.2612 68.1329 34.4978 68.1331H69.339V68.1295C69.559 68.1294 69.7728 68.0562 69.9469 67.9215C70.121 67.7869 70.2455 67.5983 70.3009 67.3853C70.379 67.0857 70.4378 66.7813 70.4769 66.4741C70.5171 66.1674 70.5381 65.8586 70.5398 65.5493C70.5402 64.2168 70.1732 62.9101 69.4791 61.7727C68.785 60.6352 67.7907 59.7113 66.6056 59.1023C65.4204 58.4933 64.0903 58.223 62.7614 58.3209C61.4326 58.4189 60.1565 58.8814 59.0734 59.6576C58.4285 58.3066 57.4143 57.1658 56.148 56.3671C54.8818 55.5685 53.4153 55.1446 51.9183 55.1446C50.4212 55.1446 48.9548 55.5685 47.6885 56.3671C46.4223 57.1658 45.4081 58.3066 44.7632 59.6576C43.3677 58.6571 41.6622 58.185 39.9509 58.3255C38.2397 58.466 36.634 59.21 35.4205 60.4247L35.4224 60.4266C34.7483 61.0985 34.2136 61.8969 33.8488 62.7759C33.484 63.655 33.2965 64.5974 33.2968 65.5491C33.2984 65.8588 33.3195 66.1681 33.3598 66.4752ZM36.8274 61.8341L36.8293 61.8321L36.8313 61.8341C37.3354 61.3277 37.9376 60.9296 38.6011 60.6644C39.2646 60.3992 39.9753 60.2723 40.6896 60.2917C41.4039 60.311 42.1067 60.4761 42.7548 60.7768C43.403 61.0776 43.9829 61.5076 44.4588 62.0405C44.5797 62.1748 44.7347 62.2736 44.9074 62.3265C45.0801 62.3794 45.264 62.3842 45.4392 62.3406C45.6145 62.297 45.7746 62.2065 45.9024 62.0789C46.0302 61.9512 46.1208 61.7912 46.1646 61.616C46.4868 60.3338 47.228 59.196 48.2705 58.383C49.3131 57.5701 50.5972 57.1285 51.9193 57.1285C53.2413 57.1285 54.5255 57.5701 55.568 58.383C56.6105 59.196 57.3517 60.3338 57.6739 61.616C57.7181 61.7926 57.8098 61.9537 57.9391 62.0818C58.0684 62.2099 58.2303 62.3001 58.4073 62.3426C58.5843 62.3852 58.7696 62.3783 58.943 62.3229C59.1164 62.2675 59.2712 62.1657 59.3908 62.0284C59.8828 61.483 60.483 61.046 61.1531 60.7452C61.9535 60.3897 62.8301 60.2398 63.7032 60.309C64.5763 60.3783 65.4183 60.6645 66.1527 61.1418C66.8871 61.619 67.4907 62.2721 67.9086 63.0418C68.3265 63.8115 68.5456 64.6734 68.5458 65.5493C68.5465 65.746 68.5369 65.9426 68.5171 66.1382H35.3207C35.3006 65.9425 35.2909 65.7459 35.2916 65.5491C35.2901 64.8593 35.4249 64.176 35.6883 63.5384C35.9517 62.9009 36.3394 62.3216 36.8274 61.8341Z" fill="black"/>
<path d="M81.0488 84.9761C80.13 84.0564 78.9897 83.3892 77.7379 83.039C76.486 82.6887 75.165 82.6671 73.9024 82.9763C73.6988 83.026 73.4986 83.0839 73.304 83.1487C72.6516 81.3825 71.487 79.8513 69.9594 78.7509C68.4317 77.6504 66.6104 77.031 64.7285 76.9717C62.8467 76.9124 60.99 77.416 59.3961 78.4181C57.8022 79.4202 56.5436 80.8751 55.7814 82.5967C54.8605 81.8937 53.8076 81.3833 52.6853 81.096C51.563 80.8086 50.3943 80.7502 49.249 80.9243C48.1036 81.0983 47.0051 81.5011 46.0188 82.1088C45.0324 82.7165 44.1786 83.5166 43.5081 84.4614C42.056 83.277 40.2159 82.6739 38.3445 82.769C36.4731 82.8641 34.7036 83.6506 33.379 84.9761L33.3222 85.0382C31.9363 86.45 31.1606 88.3498 31.1622 90.3281C31.1622 90.4823 31.1689 90.6523 31.1812 90.8368L31.1827 90.8563C31.1932 91.0135 31.2101 91.1751 31.2321 91.3367C31.2643 91.5753 31.3819 91.7943 31.5631 91.9529C31.7444 92.1115 31.977 92.199 32.2178 92.1992V92.2016H82.2103C82.4666 92.2015 82.713 92.1027 82.8984 91.9257C83.0837 91.7487 83.1938 91.5071 83.2057 91.2511C83.2233 91.1091 83.2377 90.9695 83.2462 90.8369C83.2587 90.6525 83.265 90.4824 83.265 90.3283C83.2657 89.3344 83.0701 88.3501 82.6893 87.4321C82.3086 86.514 81.7502 85.6802 81.0463 84.9785L81.0488 84.9761ZM81.2704 90.2079H33.1572C33.1846 88.7947 33.7497 87.4452 34.7373 86.4342L34.7887 86.3862C35.3278 85.8451 35.9724 85.4208 36.6824 85.1395C37.3924 84.8582 38.1528 84.726 38.9161 84.7511C39.6794 84.7762 40.4294 84.958 41.1194 85.2854C41.8094 85.6127 42.4248 86.0784 42.9271 86.6537C43.0302 86.7872 43.1656 86.8923 43.3205 86.9592C43.4753 87.0261 43.6447 87.0525 43.8126 87.036C43.9804 87.0194 44.1414 86.9605 44.2803 86.8647C44.4191 86.769 44.5314 86.6395 44.6065 86.4884C45.1595 85.3832 46.0085 84.4532 47.059 83.8022C47.9797 83.2376 49.0236 82.9049 50.1012 82.8325C51.1789 82.7602 52.2579 82.9505 53.2458 83.387C54.0941 83.7672 54.8536 84.3206 55.4756 85.0115C55.5953 85.1483 55.7503 85.2498 55.9236 85.3049C56.0969 85.3599 56.282 85.3665 56.4587 85.3238C56.6355 85.2811 56.7972 85.1908 56.9263 85.0628C57.0554 84.9347 57.147 84.7737 57.1911 84.5973C57.5988 82.978 58.5377 81.5422 59.8576 80.5193C61.1774 79.4964 62.8021 78.9456 64.472 78.9548C66.1418 78.964 67.7603 79.5328 69.0688 80.5702C70.3773 81.6076 71.3002 83.0537 71.69 84.6774C71.7187 84.8303 71.7827 84.9744 71.877 85.0981C71.9713 85.2219 72.0933 85.3218 72.2331 85.3899C72.373 85.4581 72.5269 85.4925 72.6824 85.4905C72.838 85.4884 72.9909 85.45 73.129 85.3783C73.5223 85.173 73.9387 85.0155 74.3694 84.9092C74.8039 84.8049 75.2492 84.7527 75.696 84.7539C76.4284 84.753 77.1538 84.8968 77.8304 85.177C78.507 85.4573 79.1216 85.8685 79.6388 86.387L79.641 86.3851L79.6429 86.387C80.6589 87.4023 81.2422 88.7717 81.2704 90.2079Z" fill="black"/>
<path d="M131.465 54.789C130.884 55.3686 130.423 56.0572 130.109 56.8154C129.794 57.5736 129.633 58.3864 129.634 59.207C129.634 59.3802 129.645 59.5793 129.665 59.7993C129.683 59.978 129.706 60.1484 129.734 60.3077C129.761 60.5519 129.877 60.7776 130.06 60.9416C130.243 61.1056 130.48 61.1963 130.726 61.1964H161.844V61.1916C162.059 61.1915 162.269 61.1211 162.441 60.9911C162.614 60.8612 162.739 60.6786 162.798 60.4712C162.891 60.1524 162.961 59.8273 163.007 59.4985C163.054 59.1699 163.078 58.8384 163.079 58.5065C163.079 57.2045 162.721 55.9275 162.044 54.8154C161.367 53.7033 160.397 52.799 159.24 52.2016C158.083 51.6041 156.784 51.3366 155.486 51.4284C154.187 51.5201 152.938 51.9675 151.877 52.7216C151.223 51.3637 150.188 50.2255 148.898 49.4462C147.608 48.6669 146.119 48.2802 144.613 48.3333C143.106 48.3864 141.648 48.8771 140.416 49.7454C139.184 50.6137 138.232 51.8219 137.676 53.2226C137.573 53.1923 137.469 53.1636 137.364 53.1383C136.322 52.8817 135.231 52.8988 134.197 53.1879C133.164 53.477 132.222 54.0289 131.465 54.789ZM137.843 55.4288C137.98 55.5 138.132 55.5383 138.287 55.5407C138.441 55.5431 138.594 55.5096 138.733 55.4428C138.873 55.376 138.995 55.2777 139.09 55.1557C139.184 55.0337 139.25 54.8914 139.28 54.7399C139.58 53.485 140.292 52.367 141.303 51.5649C142.313 50.7627 143.563 50.3227 144.854 50.3153C146.144 50.3079 147.399 50.7335 148.419 51.524C149.438 52.3146 150.163 53.4243 150.478 54.6756C150.522 54.8523 150.613 55.0134 150.743 55.1415C150.872 55.2697 151.034 55.3599 151.211 55.4023C151.388 55.4448 151.574 55.4378 151.747 55.3823C151.921 55.3268 152.075 55.2247 152.195 55.0873C152.886 54.3221 153.793 53.7842 154.796 53.5446C155.799 53.305 156.851 53.375 157.813 53.7453C158.776 54.1155 159.604 54.7687 160.187 55.6188C160.771 56.4688 161.084 57.4758 161.084 58.507C161.084 58.7394 161.07 58.9716 161.039 59.2021H131.629C131.63 58.0745 132.079 56.9935 132.877 56.1967C133.675 55.3999 134.756 54.9526 135.884 54.953C136.225 54.9518 136.565 54.9913 136.897 55.0708C137.226 55.1518 137.543 55.2724 137.843 55.4288Z" fill="black"/>
</g>
<defs>
<clipPath id="clip0_3_177">
<rect width="200" height="200" fill="white"/>
</clipPath>
</defs>
</svg>
